<svg width="100" height="98" viewBox="0 0 100 98" fill="none" xmlns="http://www.w3.org/2000/svg">
<g opacity="0.5" clip-path="url(#clip0_582_1045)">
<path d="M38.6104 88.8472L36.0062 91.2446L38.0758 87.772C36.4453 84.8152 33.7786 82.2598 33.7786 82.2598C33.7786 82.2598 28.2461 87.5603 28.2461 91.7269C28.2461 95.8934 30.7231 97.3483 33.7786 97.3483C36.834 97.3483 39.311 95.8934 39.311 91.7269C39.311 90.7995 39.0365 89.816 38.6104 88.8472Z" fill="#FBFBFB"/>
<path d="M35.3362 91.374V91.5794C35.324 93.9666 34.9214 95.8292 34.1314 97.1408C34.1202 97.1601 34.108 97.1784 34.0968 97.1977L34.0084 97.1439L33.924 97.091C34.8004 95.6747 35.1105 93.6728 35.1217 91.5905C35.1227 91.5234 35.1237 91.4553 35.1227 91.3872C35.1196 90.5057 35.0658 89.614 34.9793 88.7478C34.9732 88.6807 34.9661 88.6126 34.959 88.5445C34.839 87.4017 34.6662 86.3097 34.4893 85.3611C34.4771 85.294 34.4639 85.2269 34.4506 85.1608C34.1446 83.5564 33.8325 82.3943 33.7613 82.1371C33.7532 82.1056 33.7481 82.0883 33.7471 82.0842L33.8437 82.0568L33.8447 82.0558L33.9423 82.0283C33.9433 82.0324 33.9606 82.0903 33.989 82.1981C34.0978 82.6007 34.3805 83.6937 34.6581 85.1354C34.6703 85.2005 34.6835 85.2676 34.6957 85.3347C34.84 86.1043 34.9814 86.9645 35.0932 87.8673C35.1217 88.0941 35.1471 88.3177 35.1695 88.5384C35.1776 88.6065 35.1847 88.6746 35.1908 88.7417C35.2844 89.6781 35.3328 90.5555 35.3362 91.374Z" fill="#FBFBFB"/>
<path d="M34.6584 85.1361C34.5903 85.1452 34.5211 85.1544 34.451 85.1615C34.2605 85.1811 34.0691 85.1909 33.8776 85.191C33.0613 85.192 32.2553 85.01 31.5188 84.6582C31.4761 84.7121 31.4334 84.766 31.3896 84.8209C32.1644 85.1991 33.0154 85.3952 33.8776 85.3943C34.082 85.3942 34.2863 85.3834 34.4896 85.3618C34.5588 85.3546 34.6279 85.3455 34.696 85.3353C35.2583 85.2547 35.8051 85.0891 36.3177 84.8443C36.274 84.7883 36.2313 84.7334 36.1896 84.6796C35.7044 84.9063 35.1885 85.0601 34.6584 85.1361Z" fill="#FBFBFB"/>
<path d="M35.17 88.5389C35.0999 88.543 35.0297 88.545 34.9596 88.545C34.9382 88.546 34.9159 88.546 34.8945 88.546C34.0101 88.546 33.1388 88.3322 32.3549 87.9227C31.571 87.5132 30.8977 86.9202 30.3925 86.1943C30.3518 86.2543 30.3111 86.3143 30.2715 86.3753C30.7981 87.1098 31.4921 87.7082 32.296 88.1211C33.1 88.5339 33.9907 88.7493 34.8945 88.7493C34.923 88.7493 34.9514 88.7493 34.9799 88.7483C35.0511 88.7473 35.1212 88.7453 35.1914 88.7422C36.2769 88.6866 37.3235 88.3195 38.2059 87.6848C38.1734 87.6248 38.1409 87.5649 38.1073 87.5049C37.2497 88.128 36.2289 88.4874 35.17 88.5389Z" fill="#FBFBFB"/>
<path d="M35.3365 91.3743C35.2654 91.3804 35.1942 91.3845 35.123 91.3875C35.0468 91.3906 34.9705 91.3926 34.8942 91.3926C33.7058 91.3912 32.5498 91.005 31.5993 90.2916C30.6488 89.5783 29.9549 88.5762 29.6216 87.4355C29.5758 87.5179 29.5301 87.5992 29.4863 87.6816C29.8619 88.8197 30.5866 89.8104 31.5574 90.5131C32.5283 91.2158 33.6958 91.5947 34.8942 91.596C34.9705 91.596 35.0468 91.5949 35.122 91.5909C35.1942 91.5888 35.2654 91.5848 35.3365 91.5797C36.7741 91.4672 38.1151 90.8127 39.0882 89.7486C39.0669 89.6733 39.0425 89.5991 39.0181 89.5239C38.0782 90.596 36.7576 91.2597 35.3365 91.3743Z" fill="#FBFBFB"/>
<path d="M99.8558 5.44862H0.145195C0.1069 5.44848 0.0702209 5.43318 0.0431888 5.40605C0.0161567 5.37893 0.000976562 5.34219 0.000976562 5.3039C0.000976562 5.2656 0.0161567 5.22887 0.0431888 5.20174C0.0702209 5.17462 0.1069 5.15931 0.145195 5.15918H99.8558C99.8941 5.15931 99.9307 5.17462 99.9578 5.20174C99.9848 5.22887 100 5.2656 100 5.3039C100 5.34219 99.9848 5.37893 99.9578 5.40605C99.9307 5.43318 99.8941 5.44848 99.8558 5.44862Z" fill="#FBFBFB"/>
<path d="M3.40244 3.42207C4.28162 3.42207 4.99434 2.70936 4.99434 1.83018C4.99434 0.950997 4.28162 0.238281 3.40244 0.238281C2.52326 0.238281 1.81055 0.950997 1.81055 1.83018C1.81055 2.70936 2.52326 3.42207 3.40244 3.42207Z" fill="#3F3D56"/>
<path d="M8.90146 3.42207C9.78064 3.42207 10.4934 2.70936 10.4934 1.83018C10.4934 0.950997 9.78064 0.238281 8.90146 0.238281C8.02229 0.238281 7.30957 0.950997 7.30957 1.83018C7.30957 2.70936 8.02229 3.42207 8.90146 3.42207Z" fill="#3F3D56"/>
<path d="M14.4005 3.42207C15.2797 3.42207 15.9924 2.70936 15.9924 1.83018C15.9924 0.950997 15.2797 0.238281 14.4005 0.238281C13.5213 0.238281 12.8086 0.950997 12.8086 1.83018C12.8086 2.70936 13.5213 3.42207 14.4005 3.42207Z" fill="#3F3D56"/>
<path d="M96.5601 1.21266H92.6527C92.5761 1.2124 92.5027 1.18179 92.4487 1.12753C92.3946 1.07328 92.3643 0.999815 92.3643 0.923225C92.3643 0.846635 92.3946 0.773167 92.4487 0.718916C92.5027 0.664665 92.5761 0.634055 92.6527 0.633791H96.5601C96.5982 0.633659 96.6359 0.641048 96.6711 0.655534C96.7064 0.670021 96.7384 0.69132 96.7654 0.71821C96.7924 0.7451 96.8138 0.77705 96.8284 0.812231C96.843 0.847412 96.8505 0.885132 96.8505 0.923225C96.8505 0.961319 96.843 0.999038 96.8284 1.03422C96.8138 1.0694 96.7924 1.10135 96.7654 1.12824C96.7384 1.15513 96.7064 1.17643 96.6711 1.19092C96.6359 1.2054 96.5982 1.21279 96.5601 1.21266Z" fill="#3F3D56"/>
<path d="M96.5601 2.29762H92.6527C92.5761 2.29736 92.5027 2.26675 92.4487 2.2125C92.3946 2.15824 92.3643 2.08478 92.3643 2.00819C92.3643 1.9316 92.3946 1.85813 92.4487 1.80388C92.5027 1.74963 92.5761 1.71902 92.6527 1.71875H96.5601C96.5982 1.71862 96.6359 1.72601 96.6711 1.7405C96.7064 1.75498 96.7384 1.77628 96.7654 1.80317C96.7924 1.83006 96.8138 1.86201 96.8284 1.89719C96.843 1.93237 96.8505 1.97009 96.8505 2.00819C96.8505 2.04628 96.843 2.084 96.8284 2.11918C96.8138 2.15436 96.7924 2.18631 96.7654 2.2132C96.7384 2.24009 96.7064 2.26139 96.6711 2.27588C96.6359 2.29036 96.5982 2.29775 96.5601 2.29762Z" fill="#3F3D56"/>
<path d="M96.5601 3.38258H92.6527C92.5761 3.38232 92.5027 3.35171 92.4487 3.29746C92.3946 3.24321 92.3643 3.16974 92.3643 3.09315C92.3643 3.01656 92.3946 2.94309 92.4487 2.88884C92.5027 2.83459 92.5761 2.80398 92.6527 2.80371H96.5601C96.5982 2.80358 96.6359 2.81097 96.6711 2.82546C96.7064 2.83995 96.7384 2.86124 96.7654 2.88813C96.7924 2.91502 96.8138 2.94697 96.8284 2.98216C96.843 3.01734 96.8505 3.05505 96.8505 3.09315C96.8505 3.13124 96.843 3.16896 96.8284 3.20414C96.8138 3.23932 96.7924 3.27128 96.7654 3.29817C96.7384 3.32505 96.7064 3.34635 96.6711 3.36084C96.6359 3.37532 96.5982 3.38272 96.5601 3.38258Z" fill="#3F3D56"/>
<path d="M94.38 11.9932H3.00391V60.4055H94.38V11.9932Z" fill="#FBFBFB"/>
<path d="M94.38 21.0552V20.5804H76.5927V11.9932H76.1179V20.5804H58.3305V11.9932H57.8558V20.5804H40.0685V11.9932H39.5937V20.5804H21.8063V11.9932H21.3316V20.5804H3.00391V21.0552H21.3316V30.5419H3.00391V31.0166H21.3316V40.5033H3.00391V40.9781H21.3316V50.463H3.00391V50.9378H21.3316V60.4055H21.8063V50.9378H39.5937V60.4055H40.0685V50.9378H57.8558V60.4055H58.3305V50.9378H76.1179V60.4055H76.5927V50.9378H94.38V50.463H76.5927V40.9781H94.38V40.5033H76.5927V31.0166H94.38V30.5419H76.5927V21.0552L94.38 21.0552ZM39.5937 50.463H21.8063V40.9781H39.5937V50.463ZM39.5937 40.5033H21.8063V31.0166H39.5937V40.5033ZM39.5937 30.5419H21.8063V21.0552H39.5937V30.5419ZM57.8558 50.4631H40.0685V40.9781H57.8558V50.4631ZM57.8558 40.5033H40.0685V31.0166H57.8558V40.5033ZM57.8558 30.5419H40.0685V21.0552H57.8558V30.5419ZM76.1179 50.4631H58.3305V40.9781H76.1179V50.4631ZM76.1179 40.5033H58.3305V31.0166H76.1179V40.5033ZM76.1179 30.5419H58.3305V21.0552H76.1179V30.5419Z" fill="#FBFBFB"/>
<path d="M31.4578 23.3623H25.3447V29.2805H31.4578V23.3623Z" fill="#FBFBFB"/>
<path d="M87.7391 42.5254H81.626V48.4436H87.7391V42.5254Z" fill="#FBFBFB"/>
<path d="M33.3573 52.3662H27.2441V58.2844H33.3573V52.3662Z" fill="#FBFBFB"/>
<path d="M35.1639 22.2646H29.0508V28.1829H35.1639V22.2646Z" fill="#FBFBFB"/>
<path d="M63.9004 46.8646L71.1546 40.4014L73.2947 41.4617L64.5942 50.5873L63.9004 46.8646Z" fill="#FFB6B6"/>
<path d="M72.1092 42.6237C73.0627 42.6237 73.8357 41.8508 73.8357 40.8973C73.8357 39.9438 73.0627 39.1709 72.1092 39.1709C71.1558 39.1709 70.3828 39.9438 70.3828 40.8973C70.3828 41.8508 71.1558 42.6237 72.1092 42.6237Z" fill="#FFB6B6"/>
<path d="M57.1094 95.5124H55.3928L54.5762 88.8916L57.1095 88.8918L57.1094 95.5124Z" fill="#FFB6B6"/>
<path d="M57.5474 97.1766L52.0127 97.1764V97.1064C52.0127 96.5351 52.2397 95.9871 52.6437 95.5831C53.0477 95.1792 53.5956 94.9522 54.167 94.9521L57.5475 94.9523L57.5474 97.1766Z" fill="#2F2E41"/>
<path d="M50.8945 95.5124H49.1779L48.3613 88.8916L50.8947 88.8918L50.8945 95.5124Z" fill="#FFB6B6"/>
<path d="M51.3326 97.1766L45.7979 97.1764V97.1064C45.7979 96.5351 46.0249 95.9871 46.4289 95.5831C46.8329 95.1792 47.3808 94.9522 47.9521 94.9521L51.3326 94.9523L51.3326 97.1766Z" fill="#2F2E41"/>
<path d="M58.5516 57.6665C58.5516 57.6665 62.8677 57.3212 61.4865 64.9174C60.1054 72.5137 57.2446 93.2932 57.2446 93.2932L54.6509 93.6497L53.1186 65.9303L51.9593 93.6497L48.6606 93.2932L45.4308 63.5363C45.4308 63.5363 44.3938 61.1438 45.4302 59.4914C46.4667 57.8391 58.5516 57.6665 58.5516 57.6665Z" fill="#2F2E41"/>
<path d="M55.7891 38.8482L56.9874 38.2062C56.9874 38.2062 59.9397 37.9544 61.1446 41.4225L64.34 46.2488L69.5193 41.7601L71.7636 43.3139L65.2362 51.1043L62.5221 51.4511L56.6523 43.8548L55.7891 38.8482Z" fill="#3F3D56"/>
<path d="M51.4411 24.8408C46.5178 24.8408 45.1396 30.2492 45.1396 33.3003C45.1396 36.3514 47.9609 35.8899 51.4411 35.8899C52.9349 35.8899 54.3064 35.9743 55.3864 35.83L55.9058 34.5616L56.3238 35.6126C57.2103 35.2869 57.7425 34.6249 57.7425 33.3003C57.7425 30.2492 56.534 24.8408 51.4411 24.8408Z" fill="#2F2E41"/>
<path d="M51.42 35.8848C53.7618 35.8848 55.6602 33.9864 55.6602 31.6446C55.6602 29.3027 53.7618 27.4043 51.42 27.4043C49.0781 27.4043 47.1797 29.3027 47.1797 31.6446C47.1797 33.9864 49.0781 35.8848 51.42 35.8848Z" fill="#FFB6B6"/>
<path d="M46.5205 31.2289H48.1976L48.9375 29.1572L49.0854 31.2289H49.887L50.3186 30.0204L50.405 31.2289H56.3611C56.3611 30.0385 55.8882 28.8967 55.0464 28.0549C54.2046 27.2132 53.0629 26.7402 51.8724 26.7402H51.0092C49.8187 26.7402 48.677 27.2132 47.8352 28.0549C46.9934 28.8967 46.5205 30.0385 46.5205 31.2289Z" fill="#2F2E41"/>
<path d="M74.8709 34.3486H68.7578V40.2669H74.8709V34.3486Z" fill="#FBFBFB"/>
<path d="M59.8933 56.1037C59.2422 56.1121 57.2812 44.4762 57.2812 44.4762L56.9877 38.2059L54.845 38.1339V37.9929C54.845 37.7099 54.7326 37.4385 54.5324 37.2383C54.3323 37.0382 54.0609 36.9258 53.7779 36.9258H49.697C49.4259 36.9259 49.165 37.0293 48.9674 37.2149C48.7699 37.4005 48.6504 37.6545 48.6333 37.925L46.953 37.8685L44.043 47.1142C44.043 47.1142 46.7245 55.7049 45.4303 59.4908C45.4303 59.4908 58.0397 60.5736 60.4537 58.1702C60.4537 58.1702 60.5443 56.0953 59.8933 56.1037Z" fill="#3F3D56"/>
<path d="M47.6753 39.0207L46.9531 37.8688C46.9531 37.8688 44.6034 37.2879 43.636 38.8449C42.6686 40.4019 39.8252 48.8383 39.8252 48.8383L42.7601 49.8742L46.0906 45.205L47.6753 39.0207Z" fill="#3F3D56"/>
<path d="M55.0174 45.0527H48.9043V50.9709H55.0174V45.0527Z" fill="#FBFBFB"/>
<path d="M44.2146 47.1918L42.0879 46.9668C41.9536 47.2533 41.8862 47.5666 41.8909 47.883C41.8955 48.1994 41.9721 48.5106 42.1147 48.793C42.2574 49.0754 42.4624 49.3217 42.7143 49.5132C42.9662 49.7047 43.2584 49.8364 43.5687 49.8984L51.9838 51.5779L51.106 48.8745L44.2146 47.1918Z" fill="#FFB6B6"/>
<path d="M52.0086 51.6091C52.9621 51.6091 53.7351 50.8362 53.7351 49.8827C53.7351 48.9292 52.9621 48.1562 52.0086 48.1562C51.0552 48.1562 50.2822 48.9292 50.2822 49.8827C50.2822 50.8362 51.0552 51.6091 52.0086 51.6091Z" fill="#FFB6B6"/>
<path d="M49.8541 51.6612L43.4431 50.1963C42.9786 50.0888 42.5496 49.8633 42.1978 49.5415C41.846 49.2196 41.5832 48.8124 41.4349 48.3593L41.1758 47.5603L42.8396 46.251L50.4623 48.3815L49.8541 51.6612Z" fill="#3F3D56"/>
<path d="M85.8791 97.524H20.1023C20.0565 97.524 20.0126 97.5058 19.9803 97.4734C19.9479 97.4411 19.9297 97.3971 19.9297 97.3514C19.9297 97.3056 19.9479 97.2617 19.9803 97.2293C20.0126 97.1969 20.0565 97.1787 20.1023 97.1787H85.8791C85.9248 97.1787 85.9687 97.1969 86.0011 97.2293C86.0335 97.2617 86.0517 97.3056 86.0517 97.3514C86.0517 97.3971 86.0335 97.4411 86.0011 97.4734C85.9687 97.5058 85.9248 97.524 85.8791 97.524Z" fill="#FBFBFB"/>
</g>
<defs>
<clipPath id="clip0_582_1045">
<rect width="100" height="97.285" fill="white" transform="translate(0 0.238281)"/>
</clipPath>
</defs>
</svg>
