<svg width="24" height="25" viewBox="0 0 24 25" fill="none" xmlns="http://www.w3.org/2000/svg">
<path d="M23.933 7.304C23.8754 6.02617 23.669 5.15187 23.3761 4.38806C23.0689 3.60023 22.6608 2.92769 21.9934 2.26476C21.3261 1.60183 20.6588 1.1839 19.8714 0.881257C19.1081 0.583418 18.2343 0.381657 16.9572 0.324011C15.6754 0.266365 15.2673 0.251953 12.0122 0.251953C8.7524 0.251953 8.34431 0.266365 7.06726 0.324011C5.7902 0.381657 4.91643 0.588222 4.15308 0.881257C3.36092 1.1887 2.68878 1.59703 2.02625 2.26476C1.36372 2.9325 0.946035 3.60023 0.643574 4.38806C0.350716 5.15187 0.144274 6.02617 0.0866628 7.304C0.0290513 8.58662 0.0146484 8.99495 0.0146484 12.252C0.0146484 15.5138 0.0290513 15.9221 0.0866628 17.1999C0.144274 18.4777 0.350716 19.352 0.643574 20.1158C0.950836 20.9037 1.35892 21.5762 2.02625 22.2391C2.68878 22.9069 3.36092 23.32 4.14827 23.6227C4.91163 23.9205 5.7854 24.1222 7.06246 24.1799C8.34431 24.2375 8.7524 24.252 12.0074 24.252C15.2673 24.252 15.6754 24.2375 16.9524 24.1799C18.2295 24.1222 19.1033 23.9157 19.8666 23.6227C20.654 23.3152 21.3261 22.9069 21.9886 22.2391C22.6512 21.5714 23.0689 20.9037 23.3713 20.1158C23.669 19.352 23.8706 18.4777 23.9282 17.1999C23.9858 15.9173 24.0002 15.509 24.0002 12.252C24.0002 8.99495 23.9906 8.58182 23.933 7.304ZM21.7774 17.1038C21.7246 18.276 21.5278 18.9149 21.3645 19.3328C21.1485 19.8901 20.8844 20.2936 20.4619 20.7163C20.0395 21.1391 19.641 21.3937 19.0793 21.6194C18.6568 21.7828 18.0182 21.9797 16.8516 22.0326C15.589 22.0902 15.2097 22.1046 12.0026 22.1046C8.7956 22.1046 8.41633 22.0902 7.15368 22.0326C5.98224 21.9797 5.34371 21.7828 4.92603 21.6194C4.36912 21.4033 3.96584 21.1391 3.54335 20.7163C3.12087 20.2936 2.86642 19.8949 2.64077 19.3328C2.47754 18.9101 2.2807 18.2712 2.22789 17.1038C2.17028 15.8404 2.15588 15.4609 2.15588 12.252C2.15588 9.04299 2.17028 8.66348 2.22789 7.40007C2.2807 6.22793 2.47754 5.58902 2.64077 5.17109C2.85682 4.61384 3.12087 4.21032 3.54335 3.78758C3.96584 3.36484 4.36432 3.11024 4.92603 2.88446C5.34852 2.72113 5.98704 2.52417 7.15368 2.47133C8.41633 2.41368 8.7956 2.39927 12.0026 2.39927C15.2097 2.39927 15.589 2.41368 16.8516 2.47133C18.0231 2.52417 18.6616 2.72113 19.0793 2.88446C19.6362 3.10063 20.0395 3.36484 20.4619 3.78758C20.8844 4.21032 21.1389 4.60904 21.3645 5.17109C21.5278 5.59383 21.7246 6.23274 21.7774 7.40007C21.835 8.66348 21.8494 9.04299 21.8494 12.252C21.8494 15.4609 21.8302 15.8404 21.7774 17.1038Z" fill="url(#paint0_linear_539_599)"/>
<path d="M12.0028 6.08398C8.59413 6.08398 5.83838 8.84619 5.83838 12.2521C5.83838 15.6628 8.59893 18.4203 12.0028 18.4203C15.4067 18.4203 18.1672 15.6532 18.1672 12.2521C18.1672 8.84139 15.4115 6.08398 12.0028 6.08398ZM12.0028 16.2537C9.79437 16.2537 8.00361 14.4619 8.00361 12.2521C8.00361 10.0424 9.79437 8.25052 12.0028 8.25052C14.2113 8.25052 16.002 10.0424 16.002 12.2521C16.002 14.4619 14.2113 16.2537 12.0028 16.2537Z" fill="url(#paint1_linear_539_599)"/>
<path d="M18.4071 7.28465C19.2025 7.28465 19.8474 6.63942 19.8474 5.8435C19.8474 5.04757 19.2025 4.40234 18.4071 4.40234C17.6116 4.40234 16.9668 5.04757 16.9668 5.8435C16.9668 6.63942 17.6116 7.28465 18.4071 7.28465Z" fill="#BC30A0"/>
<path d="M0 12.252C0 15.5138 0.0144029 15.9221 0.0720144 17.1999C0.129626 18.4777 0.336067 19.352 0.628926 20.1158C0.936187 20.9037 1.34427 21.5762 2.0116 22.2391C2.67413 22.9021 3.34627 23.32 4.13363 23.6227C4.89698 23.9205 5.77075 24.1222 7.04781 24.1799C8.32967 24.2375 8.73775 24.252 11.9928 24.252C15.2527 24.252 15.6607 24.2375 16.9378 24.1799C18.2148 24.1222 19.0886 23.9157 19.852 23.6227C20.6393 23.3152 21.3115 22.9069 21.974 22.2391C22.6365 21.5762 23.0542 20.9037 23.3567 20.1158C23.6543 19.352 23.856 18.4777 23.9136 17.1999C23.9712 15.9173 23.9856 15.509 23.9856 12.252C23.9856 8.99014 23.9712 8.58182 23.9136 7.304C23.856 6.02617 23.6495 5.15187 23.3567 4.38806C23.0494 3.60023 22.6413 2.92769 21.974 2.26476C21.3163 1.59703 20.6441 1.1839 19.8568 0.881257C19.0934 0.583418 18.2196 0.381657 16.9426 0.324011C15.6607 0.266365 15.2527 0.251953 11.9976 0.251953C8.73775 0.251953 8.32967 0.266365 7.05261 0.324011C5.77555 0.381657 4.90178 0.588222 4.13843 0.881257C3.35107 1.1887 2.67894 1.59703 2.0164 2.26476C1.35387 2.9325 0.936187 3.60023 0.633727 4.38806C0.336067 5.15187 0.129626 6.02617 0.0720144 7.304C0.0144029 8.58182 0 8.99014 0 12.252ZM2.16523 12.252C2.16523 9.04779 2.17964 8.66348 2.23725 7.40007C2.29006 6.22793 2.4869 5.58902 2.65013 5.17109C2.86617 4.61384 3.13023 4.21032 3.55271 3.78758C3.97519 3.36484 4.37367 3.11024 4.93539 2.88446C5.35787 2.72113 5.9964 2.52417 7.16303 2.47133C8.42568 2.41368 8.80496 2.39927 12.012 2.39927C15.219 2.39927 15.5983 2.41368 16.861 2.47133C18.0324 2.52417 18.6709 2.72113 19.0886 2.88446C19.6455 3.10063 20.0488 3.36484 20.4713 3.78758C20.8938 4.21032 21.1482 4.60904 21.3739 5.17109C21.5371 5.59383 21.7339 6.23274 21.7868 7.40007C21.8444 8.66348 21.8588 9.04299 21.8588 12.252C21.8588 15.4609 21.8444 15.8404 21.7868 17.1038C21.7339 18.276 21.5371 18.9149 21.3739 19.3328C21.1578 19.8901 20.8938 20.2936 20.4713 20.7163C20.0488 21.1391 19.6503 21.3937 19.0886 21.6194C18.6661 21.7828 18.0276 21.9797 16.861 22.0326C15.5983 22.0902 15.219 22.1046 12.012 22.1046C8.80496 22.1046 8.42568 22.0902 7.16303 22.0326C5.9916 21.9797 5.35307 21.7828 4.93539 21.6194C4.37848 21.4033 3.97519 21.1391 3.55271 20.7163C3.13023 20.2936 2.87578 19.8949 2.65013 19.3328C2.4869 18.9101 2.29006 18.2712 2.23725 17.1038C2.17483 15.8404 2.16523 15.4561 2.16523 12.252Z" fill="url(#paint2_linear_539_599)"/>
<defs>
<linearGradient id="paint0_linear_539_599" x1="20.2957" y1="2.08716" x2="2.93328" y2="23.3596" gradientUnits="userSpaceOnUse">
<stop stop-color="#AE3DAE"/>
<stop offset="0.0468721" stop-color="#B23BA6"/>
<stop offset="0.1216" stop-color="#BD368E"/>
<stop offset="0.2148" stop-color="#CE2E69"/>
<stop offset="0.3216" stop-color="#E62335"/>
<stop offset="0.418" stop-color="#FF1800"/>
</linearGradient>
<linearGradient id="paint1_linear_539_599" x1="14.9427" y1="7.30498" x2="8.63529" y2="17.9035" gradientUnits="userSpaceOnUse">
<stop stop-color="#E12F6A"/>
<stop offset="0.1705" stop-color="#EA3751"/>
<stop offset="0.3563" stop-color="#F13D3E"/>
<stop offset="0.5467" stop-color="#F64133"/>
<stop offset="0.7469" stop-color="#F7422F"/>
<stop offset="0.7946" stop-color="#F74C2F"/>
<stop offset="0.8743" stop-color="#F7652F"/>
<stop offset="0.9757" stop-color="#F78F2E"/>
<stop offset="1" stop-color="#F79A2E"/>
</linearGradient>
<linearGradient id="paint2_linear_539_599" x1="17.4381" y1="-0.736078" x2="6.81389" y2="24.5883" gradientUnits="userSpaceOnUse">
<stop offset="0.2341" stop-color="#9E35A5" stop-opacity="0"/>
<stop offset="0.4512" stop-color="#D42F7F" stop-opacity="0.5"/>
<stop offset="0.7524" stop-color="#F7772E"/>
<stop offset="0.9624" stop-color="#FEF780"/>
</linearGradient>
</defs>
</svg>
