<svg width="24" height="25" viewBox="0 0 24 25" fill="none" xmlns="http://www.w3.org/2000/svg">
<rect y="0.251953" width="24" height="24" rx="12" fill="#0A66C2"/>
<g clip-path="url(#clip0_539_600)">
<path d="M5 7.11948C5 6.66902 5.15766 6.2974 5.47297 6.00462C5.78828 5.71182 6.1982 5.56543 6.7027 5.56543C7.1982 5.56543 7.59909 5.70956 7.90541 5.99786C8.22072 6.29516 8.37838 6.68254 8.37838 7.16002C8.37838 7.59246 8.22523 7.95281 7.91892 8.24111C7.60361 8.5384 7.18919 8.68705 6.67568 8.68705H6.66216C6.16666 8.68705 5.76577 8.5384 5.45946 8.24111C5.15315 7.94381 5 7.56993 5 7.11948ZM5.17568 18.9438V9.91678H8.17568V18.9438H5.17568ZM9.83784 18.9438H12.8378V13.9033C12.8378 13.5879 12.8739 13.3447 12.9459 13.1735C13.0721 12.8672 13.2635 12.6082 13.5203 12.3965C13.777 12.1848 14.0991 12.0789 14.4865 12.0789C15.4955 12.0789 16 12.7591 16 14.1195V18.9438H19V13.7681C19 12.4348 18.6847 11.4235 18.0541 10.7343C17.4234 10.0452 16.5901 9.70056 15.5541 9.70056C14.3919 9.70056 13.4865 10.2006 12.8378 11.2006V11.2276H12.8243L12.8378 11.2006V9.91678H9.83784C9.85585 10.2051 9.86486 11.1015 9.86486 12.606C9.86486 14.1105 9.85585 16.2231 9.83784 18.9438Z" fill="white"/>
</g>
<defs>
<clipPath id="clip0_539_600">
<rect x="5" y="5.25195" width="14" height="14" fill="white"/>
</clipPath>
</defs>
</svg>
