<svg width="116" height="117" viewBox="0 0 116 117" fill="none" xmlns="http://www.w3.org/2000/svg">
<g clip-path="url(#clip0_610_2232)">
<path d="M10.7339 76.9689L12.8684 77.9992L17.8586 70.256L14.708 68.7354L10.7339 76.9689Z" fill="#FFB6B6"/>
<path d="M9.58374 79.1585L16.1479 82.3271L16.1879 82.2441C16.515 81.5665 16.5595 80.7867 16.3117 80.0763C16.0639 79.3659 15.544 78.783 14.8664 78.4558L14.1064 76.9673L11.4301 76.7971L10.8571 76.5205L9.58374 79.1585Z" fill="#2F2E41"/>
<path d="M26.6231 79.8547L28.9931 79.8545L30.1208 70.7119L26.6226 70.7121L26.6231 79.8547Z" fill="#FFB6B6"/>
<path d="M26.5396 82.3272L33.8284 82.3269V82.2348C33.8284 81.4824 33.5295 80.7608 32.9974 80.2288C32.4654 79.6967 31.7438 79.3978 30.9914 79.3978H30.9912L29.6598 78.3877L27.1757 79.3979L26.5394 79.3979L26.5396 82.3272Z" fill="#2F2E41"/>
<path d="M28.9722 37.4534L31.6883 56.1837L31.9191 60.3938L30.4947 73.5313L31.0729 74.8043L29.4574 75.8006H26.1701L25.9957 61.923L23.5306 50.3003L23.1493 63.4738L22.6216 64.4917C20.6558 68.9518 18.0077 70.4122 16.1356 73.746L12.8482 71.9653L12.9171 70.6373C12.2567 70.3029 13.9087 69.3257 14.0674 68.6026L14.3549 67.3081L16.2726 63.3358L16.3457 61.9369L15.8209 52.4224L16.0679 39.6099L20.3799 36.3125L28.9722 37.4534Z" fill="#2F2E41"/>
<path d="M24.8414 10.8993C27.2001 10.8993 29.1123 8.98711 29.1123 6.62834C29.1123 4.26958 27.2001 2.35742 24.8414 2.35742C22.4826 2.35742 20.5704 4.26958 20.5704 6.62834C20.5704 8.98711 22.4826 10.8993 24.8414 10.8993Z" fill="#FFB6B6"/>
<path d="M25.4288 40.9095C19.7984 40.9097 15.5747 38.789 15.517 38.7594L15.4669 38.7337L15.4823 38.6797C15.6335 38.1503 15.7767 37.2622 15.5176 37.1327C15.4897 37.1221 15.4649 37.1045 15.4456 37.0817C15.4263 37.0589 15.4131 37.0317 15.4071 37.0024C15.3923 36.896 15.4988 36.7987 15.6463 36.664C15.9326 36.4026 16.3246 36.0446 16.0947 35.4698C15.6893 34.4565 16.8291 29.2637 16.9028 28.9309L16.416 20.6536C16.3273 19.0743 16.785 17.5126 17.7123 16.2312C18.6395 14.9497 19.9797 14.0265 21.5075 13.6169L21.5183 13.614L21.5295 13.6147C21.6878 13.6236 21.8554 13.086 21.9826 12.6926C22.1704 12.1111 22.2944 11.7538 22.5059 11.769C24.1437 11.8746 25.235 11.9437 25.9622 11.9889C27.3411 12.0745 27.5827 13.7516 27.6123 14.0194C29.0965 14.9237 30.2572 16.2737 30.9287 17.8767C31.6002 19.4798 31.7484 21.2539 31.352 22.9461L30.6647 25.9012L30.0574 27.321L30.2576 30.1222C31.1995 30.9055 30.9296 32.5079 30.876 32.7786C31.7735 33.7071 31.2223 34.7999 31.0886 35.0313C31.3184 35.3121 31.4747 35.6455 31.5436 36.0017C31.6125 36.3578 31.5918 36.7255 31.4833 37.0717L32.31 39.7583L32.2477 39.78C30.0544 40.5372 27.7491 40.9191 25.4288 40.9095Z" fill="#3F3D56"/>
<path d="M51.8888 12.8757C51.7401 12.6834 51.551 12.5261 51.3348 12.4149C51.1187 12.3036 50.8808 12.2411 50.6379 12.2317C50.395 12.2223 50.153 12.2663 49.929 12.3606C49.7049 12.4549 49.5042 12.5971 49.3411 12.7773L35.8363 12.8508L31.9994 14.7045L31.5017 16.829L37.7016 16.5698L49.5358 15.2181C49.8567 15.4721 50.2596 15.5995 50.6682 15.5763C51.0768 15.5531 51.4627 15.3808 51.7527 15.092C52.0428 14.8033 52.2168 14.4182 52.2419 14.0097C52.267 13.6012 52.1414 13.1977 51.8888 12.8757Z" fill="#FFB6B6"/>
<path d="M36.7141 17.3172L31.4573 19.804L26.5838 17.7638L26.5789 17.7244C26.4871 17.0036 26.6136 16.2718 26.9422 15.6236C27.2708 14.9755 27.7862 14.4408 28.4219 14.0887C29.439 13.5218 30.5477 13.138 31.6975 12.9547C34.9212 12.4751 35.575 12.2909 35.5813 12.2891L35.6522 12.2686L36.7141 17.3172Z" fill="#3F3D56"/>
<path d="M21.2198 9.31302C21.1671 9.31324 21.1147 9.30479 21.0647 9.28801C20.8685 9.20201 20.7045 9.0562 20.596 8.8714C19.839 7.78268 19.4735 6.33113 19.5098 4.55701C19.5251 3.80645 19.61 2.84681 20.1357 2.08188C20.5777 1.43867 21.4718 0.928218 22.3051 1.18444C22.2957 1.01781 22.3327 0.851822 22.412 0.704989C22.4914 0.558157 22.6099 0.43626 22.7545 0.352895C23.0738 0.188854 23.4264 0.099804 23.7853 0.0925194C24.6316 0.0131963 25.5065 -0.0688014 26.3635 0.093587C27.3244 0.275843 28.11 0.771109 28.519 1.45237L28.5274 1.47378L28.6105 1.87748C28.6217 1.93175 28.6445 1.98296 28.6773 2.02757C28.7102 2.07218 28.7523 2.10914 28.8008 2.13591C28.8494 2.16267 28.9031 2.1786 28.9584 2.18259C29.0136 2.18659 29.0691 2.17856 29.121 2.15906C29.1776 2.13775 29.2388 2.13157 29.2985 2.14113C29.3582 2.15069 29.4144 2.17565 29.4615 2.21356C29.5087 2.25147 29.5451 2.30102 29.5672 2.35731C29.5893 2.41359 29.5964 2.47468 29.5877 2.53454L29.5645 2.69513L29.8062 2.64991C29.8667 2.63863 29.9291 2.64358 29.987 2.66426C30.045 2.68494 30.0964 2.7206 30.136 2.76762C30.1757 2.81464 30.2022 2.87133 30.2128 2.93192C30.2234 2.99251 30.2178 3.05483 30.1965 3.11253L30.1282 3.2972C30.1782 3.29751 30.2276 3.30808 30.2734 3.32823C30.3192 3.34838 30.3603 3.3777 30.3943 3.41438C30.4432 3.46694 30.474 3.53377 30.4823 3.60509C30.4905 3.67642 30.4756 3.74849 30.44 3.81079C30.1699 4.27269 29.7867 4.65825 29.3264 4.93114C29.0749 5.08245 28.7999 5.19062 28.5127 5.25118C26.6489 5.65338 24.7273 5.71116 22.8427 5.42166C22.9543 5.79336 22.9972 6.18227 22.9694 6.56936C22.9531 6.78889 22.877 6.99976 22.7494 7.17912C22.6217 7.35849 22.4475 7.49951 22.2454 7.58692C22.159 7.61503 22.0706 7.63636 21.9808 7.65072C21.8951 7.66409 21.8106 7.68462 21.7282 7.71212C21.6062 7.75695 21.4981 7.83317 21.4149 7.93309C21.3318 8.03301 21.2764 8.1531 21.2545 8.28124C21.2325 8.40939 21.2447 8.54106 21.2899 8.66297C21.3351 8.78488 21.4116 8.89272 21.5118 8.9756L21.6989 8.78057L21.638 9.02851C21.6253 9.07678 21.6026 9.12183 21.5714 9.16075C21.5401 9.19966 21.501 9.23156 21.4567 9.25438C21.3838 9.29324 21.3024 9.31339 21.2198 9.31302Z" fill="#2F2E41"/>
<path d="M49.8203 61.3648C63.2912 61.3648 74.2115 50.6112 74.2115 37.346C74.2115 24.0807 63.2912 13.3271 49.8203 13.3271C36.3494 13.3271 25.4291 24.0807 25.4291 37.346C25.4291 50.6112 36.3494 61.3648 49.8203 61.3648Z" fill="#E6E6E6"/>
<path d="M70.0301 37.347C70.0333 40.2271 69.4009 43.0725 68.1779 45.6802C68.1404 45.7606 68.1016 45.841 68.0627 45.9214C66.1925 49.7525 63.1539 52.8906 59.3851 54.8832C59.306 54.9247 59.2269 54.9663 59.1478 55.0065C56.2615 56.4859 53.0636 57.2546 49.8202 57.2486C48.6952 57.2489 47.5719 57.1575 46.4618 56.9752C46.3733 56.9604 46.2848 56.9457 46.1977 56.9296C42.0436 56.1905 38.2238 54.1731 35.2713 51.1588C35.2096 51.0958 35.148 51.0315 35.085 50.9672C32.2572 48.0152 30.4167 44.2574 29.8181 40.2136C29.806 40.1251 29.7926 40.0367 29.7819 39.9482C29.2356 35.8368 30.0016 31.6578 31.9704 28.0073C32.012 27.9282 32.0562 27.8491 32.0991 27.7714C33.6155 25.0634 35.7384 22.7432 38.3014 20.9928C38.3751 20.9419 38.4488 20.8923 38.5226 20.8427C40.9991 19.196 43.8074 18.1139 46.7486 17.6732C46.837 17.6611 46.9255 17.6477 47.0139 17.6356C47.9439 17.5084 48.8815 17.4448 49.8202 17.4453C52.7761 17.4405 55.6977 18.0784 58.3826 19.3149C58.4644 19.3524 58.5448 19.3899 58.6252 19.4288C61.1365 20.627 63.3734 22.3306 65.1961 24.433C65.255 24.5 65.314 24.5684 65.3703 24.6367C67.5734 27.2368 69.0632 30.3646 69.6937 33.7137V33.7151C69.7111 33.8022 69.7259 33.8893 69.7406 33.9777C69.9337 35.0904 70.0305 36.2177 70.0301 37.347Z" fill="white"/>
<path d="M51.8158 35.8332C52.094 36.1779 52.2745 36.591 52.3385 37.0293L62.076 35.1927C61.6915 33.1226 60.7746 31.1883 59.4157 29.5801L51.8158 35.8332Z" fill="#560185"/>
<path d="M62.3818 35.364C62.3697 35.2755 62.3537 35.1884 62.3376 35.1013V35.0999C61.9451 32.9853 61.0094 31.0091 59.6224 29.3653C59.5648 29.297 59.5058 29.2286 59.4468 29.163C58.3288 27.8891 56.9684 26.8504 55.445 26.1074H55.4437C55.3633 26.0685 55.2842 26.0296 55.2025 25.9921C52.968 24.966 50.4868 24.6 48.0513 24.9374C47.9628 24.9481 47.8744 24.9615 47.7859 24.9763C46.0211 25.2555 44.3349 25.903 42.8367 26.8766C42.7616 26.9249 42.6866 26.9745 42.6129 27.0254C40.9677 28.1406 39.6079 29.6272 38.6433 31.3649C38.6004 31.4426 38.5575 31.5217 38.5146 31.6021C37.3097 33.8955 36.8567 36.5098 37.22 39.0749C37.2307 39.1647 37.2441 39.2532 37.2602 39.3403C37.6659 41.8113 38.8101 44.1015 40.5423 45.9098C40.6026 45.9741 40.6642 46.0385 40.7286 46.1014C42.552 47.9394 44.8914 49.179 47.4361 49.6556C47.5246 49.673 47.6131 49.6878 47.7015 49.7025C50.4133 50.1526 53.198 49.7253 55.6501 48.483C55.7292 48.4427 55.8069 48.4012 55.886 48.3583H55.8873C58.2056 47.1181 60.0812 45.1882 61.2547 42.8355C61.2949 42.7551 61.3338 42.6746 61.3713 42.5942C62.4302 40.3414 62.7825 37.8208 62.3818 35.364ZM61.1274 42.483C61.0899 42.5647 61.051 42.6451 61.0108 42.7242C59.8608 45.0233 58.0263 46.9093 55.76 48.1224C55.6809 48.164 55.6018 48.2055 55.5228 48.2457C53.1242 49.4617 50.3997 49.8792 47.7471 49.4371C47.6586 49.4237 47.5688 49.409 47.4817 49.3916C44.995 48.9251 42.7087 47.7142 40.9256 45.9192C40.8613 45.8562 40.7996 45.7919 40.738 45.7275C39.0454 43.9599 37.9258 41.7225 37.5256 39.3081C37.5108 39.221 37.4974 39.1325 37.4854 39.0441C37.1302 36.5344 37.5728 33.9766 38.7505 31.7321C38.7907 31.653 38.8336 31.5739 38.8778 31.4949C39.8236 29.7922 41.1568 28.3359 42.7697 27.2438C42.8434 27.1929 42.9171 27.1433 42.9921 27.0964C44.4553 26.1473 46.1011 25.5155 47.8235 25.2416C47.9106 25.2269 47.999 25.2135 48.0888 25.2028C50.4724 24.8726 52.9007 25.2311 55.0872 26.236C55.169 26.2722 55.2494 26.3111 55.3284 26.3499C56.8173 27.0751 58.1471 28.0892 59.2404 29.3332C59.2994 29.4002 59.3584 29.4685 59.4147 29.5369C60.7736 31.1451 61.6904 33.0795 62.0749 35.1495C62.091 35.2367 62.1057 35.3238 62.1191 35.4135C62.5084 37.8161 62.1627 40.2802 61.1274 42.483Z" fill="#CCCCCC"/>
<path d="M48.8889 35.3465L48.6704 35.502L42.7697 27.2438L42.6129 27.0254L38.3015 20.9919C38.3752 20.941 38.4489 20.8914 38.5226 20.8418L42.8367 26.8766L42.9921 27.0964L48.8889 35.3465Z" fill="#CCCCCC"/>
<path d="M47.8341 36.4147L47.7041 36.6505L38.7504 31.7321L38.5145 31.6021L31.9705 28.0064C32.012 27.9273 32.0562 27.8482 32.0991 27.7705L38.6432 31.3649L38.8777 31.4949L47.8341 36.4147Z" fill="#CCCCCC"/>
<path d="M47.7202 38.113L37.5255 39.3084L37.2602 39.3406L29.8182 40.2131C29.8061 40.1246 29.7927 40.0362 29.782 39.9477L37.22 39.0753L37.4853 39.0444L47.6894 37.8477L47.7202 38.113Z" fill="#CCCCCC"/>
<path d="M48.3783 39.0134L40.9256 45.9193L40.7286 46.1016L35.2714 51.1581C35.2097 51.0951 35.1481 51.0308 35.0851 50.9664L40.5423 45.91L40.7379 45.7277L48.196 38.8164L48.3783 39.0134Z" fill="#CCCCCC"/>
<path d="M58.6252 19.4284L55.445 26.1078H55.4436L55.3284 26.3504L50.9809 35.4823L50.7396 35.3671L55.0872 26.2365L55.2024 25.9925L58.3827 19.3145C58.4644 19.352 58.5448 19.3895 58.6252 19.4284Z" fill="#CCCCCC"/>
<path d="M65.3704 24.6363L59.6223 29.3658L59.4146 29.5374L51.5572 36.0024L51.387 35.796L59.2404 29.3336L59.4468 29.1634L65.1961 24.4326C65.2551 24.4996 65.3141 24.568 65.3704 24.6363Z" fill="#CCCCCC"/>
<path d="M69.7406 33.9775L62.3817 35.3646L62.1191 35.4142L52.049 37.3132L51.9994 37.0505L62.0748 35.1502L62.3375 35.1019V35.1006L69.6937 33.7148C69.7112 33.802 69.7259 33.8891 69.7406 33.9775Z" fill="#CCCCCC"/>
<path d="M68.178 45.6801C68.1405 45.7605 68.1016 45.8409 68.0627 45.9213L61.2547 42.8362L61.0107 42.725L51.8158 38.5584L51.927 38.3145L61.1273 42.4837L61.3713 42.595L68.178 45.6801Z" fill="#CCCCCC"/>
<path d="M59.3851 54.8825C59.306 54.924 59.227 54.9655 59.1479 55.0057L55.65 48.4831L55.5227 48.2459L50.7423 39.3311L50.9782 39.2051L55.7599 48.1226L55.8859 48.3585H55.8872L59.3851 54.8825Z" fill="#CCCCCC"/>
<path d="M49.4316 39.5466L47.747 49.4371L47.7014 49.7024L46.4618 56.9742C46.3733 56.9595 46.2849 56.9447 46.1978 56.9286L47.4361 49.6555L47.4817 49.3915L49.1662 39.501L49.4316 39.5466Z" fill="#CCCCCC"/>
<path d="M49.5081 35.1938L49.2427 35.2313L47.8235 25.2416L47.7859 24.9763L46.7487 17.6723C46.8371 17.6602 46.9256 17.6468 47.014 17.6348L48.0513 24.9374L48.0888 25.2027L49.5081 35.1938Z" fill="#CCCCCC"/>
<path d="M49.8203 39.8538C51.2266 39.8538 52.3666 38.7312 52.3666 37.3463C52.3666 35.9615 51.2266 34.8389 49.8203 34.8389C48.414 34.8389 47.2739 35.9615 47.2739 37.3463C47.2739 38.7312 48.414 39.8538 49.8203 39.8538Z" fill="#3F3D56"/>
<path d="M102.201 107.444L100.295 109.039L93.2323 102.447L96.0453 100.092L102.201 107.444Z" fill="#A0616A"/>
<path d="M103.933 109.375L98.072 114.283L98.0099 114.208C97.5033 113.603 97.2578 112.822 97.3274 112.036C97.397 111.25 97.7759 110.524 98.3809 110.017L98.381 110.017L98.7714 108.308L101.449 107.448L101.961 107.02L103.933 109.375Z" fill="#2F2E41"/>
<path d="M85.1722 113.528L82.6866 113.528L81.5039 103.939L85.1729 103.94L85.1722 113.528Z" fill="#A0616A"/>
<path d="M85.2598 116.122L77.6155 116.122V116.025C77.6155 115.236 77.929 114.479 78.487 113.921C79.045 113.363 79.8018 113.05 80.5909 113.05L81.9874 111.99L84.5926 113.05L85.26 113.05L85.2598 116.122Z" fill="#2F2E41"/>
<path d="M91.3898 67.6442C91.9903 68.3948 91.69 70.9469 91.69 70.9469L91.8373 86.841C94.3894 88.9428 96.3439 97.6689 96.3439 97.6689L98.7808 102.152C98.4805 103.053 96.5326 106.575 95.9321 106.425C95.6535 106.356 92.1853 103.157 89.8789 98.4135C87.2145 92.934 85.6851 85.8092 85.6851 85.8092C85.6851 85.8092 85.9853 106.226 85.9853 107.127C85.9853 108.027 81.932 107.577 81.0312 107.577C80.1305 107.577 75.494 70.7968 75.494 70.7968V68.695L76.2446 67.6441C76.2446 67.6441 90.7893 66.8935 91.3898 67.6442Z" fill="#2F2E41"/>
<path d="M59.1184 33.7082L57.2979 34.5578L59.3267 34.133C59.3267 34.133 60.8175 34.1937 60.8175 33.5868L63.2448 32.2518C63.2448 32.2518 65.3081 33.3441 65.9149 32.7372C66.5218 32.1304 65.4295 30.9167 65.4295 30.9167C65.4295 30.9167 66.1606 30.5135 66.0985 30.351C66.0363 30.1885 65.0654 30.4313 65.0654 30.4313C65.0654 30.4313 62.7594 29.0962 62.8807 31.4022L60.4534 33.0115C60.4534 33.0115 59.2397 32.98 59.1184 33.7082Z" fill="#3F3D56"/>
<path d="M92.2239 72.8417C89.038 74.4224 85.247 74.9005 81.6761 74.4808C78.5976 74.1184 77.9575 70.6789 75.1002 69.4585C76.0032 66.8643 76.014 63.4204 75.8615 62.4539C75.6004 60.8036 75.5519 49.3013 76.5081 48.1035C77.7622 46.532 79.6767 45.6925 79.5897 43.6839L79.8579 43.9593C79.519 43.0676 80.1753 42.0469 81.0393 41.6436C81.9034 41.2402 82.9015 41.2914 83.8536 41.3507C84.6552 41.4009 85.4568 41.4511 86.2585 41.5012C86.1536 41.8285 86.1282 42.176 86.1845 42.515C86.2407 42.854 86.377 43.1747 86.582 43.4505C88.0029 43.0584 89.5017 44.1006 90.1365 45.4294C90.7712 46.7593 90.7558 48.2939 90.7272 49.7671C90.6944 51.4717 91.9578 63.4426 90.4293 64.2001C91.2176 64.3988 92.3318 68.6028 91.6592 68.1473C91.9705 68.3653 91.8953 70.4011 92.2239 72.8417Z" fill="#560185"/>
<path d="M61.2555 31.7273C61.599 31.6264 61.9605 31.6019 62.3145 31.6558C62.6685 31.7096 63.0064 31.8404 63.3044 32.039C63.6023 32.2375 63.8531 32.499 64.0391 32.805C64.2251 33.1109 64.3418 33.454 64.3808 33.8099L77.8986 45.6953L75.4577 47.3168L62.0409 36.5545C61.4386 36.5806 60.8478 36.3847 60.3802 36.0042C59.9127 35.6236 59.6009 35.0848 59.5041 34.4898C59.4073 33.8948 59.5321 33.2849 59.8549 32.7758C60.1777 32.2666 60.6761 31.8936 61.2555 31.7273Z" fill="#A0616A"/>
<path d="M75.8128 41.8609C75.5169 41.8779 68.5308 36.7804 68.3521 37.0168L67.8826 39.563L66.5913 41.2706L69.3828 44.2298L70.1804 44.8839L70.6931 45.4261C70.5137 45.666 71.7043 46.9516 71.7688 47.245C71.8 47.3886 71.8617 47.5239 71.9497 47.6416C72.0377 47.7593 72.15 47.8567 72.2789 47.9273L76.8214 50.3919C77.427 50.8416 78.1862 51.0327 78.9325 50.9235C79.6788 50.8142 80.3513 50.4135 80.8026 49.8091C81.2538 49.2047 81.447 48.4461 81.3398 47.6995C81.2326 46.9529 80.8336 46.2793 80.2305 45.8264L79.5604 45.1487L78.5341 44.1086L76.6135 42.1635C76.5099 42.0581 76.3846 41.9765 76.2464 41.9242C76.1082 41.872 75.9602 41.8503 75.8128 41.8609Z" fill="#560185"/>
<path d="M83.3489 40.0046C86.0703 40.0046 88.2764 37.7984 88.2764 35.077C88.2764 32.3556 86.0703 30.1494 83.3489 30.1494C80.6274 30.1494 78.4213 32.3556 78.4213 35.077C78.4213 37.7984 80.6274 40.0046 83.3489 40.0046Z" fill="#A0616A"/>
<path d="M89.2271 33.5166C88.9531 32.4292 87.931 31.4806 86.815 31.5906C86.9529 30.7529 86.3953 29.9094 85.6437 29.5146C84.892 29.1198 83.9942 29.1029 83.1565 29.2403C82.6699 29.3286 82.1881 29.4411 81.7128 29.5776C81.3096 29.6861 79.419 29.0389 79.0186 29.157C78.676 29.2581 77.8518 30.4851 77.5918 30.7299C77.3318 30.9747 77.1941 31.3867 77.3678 31.6987C77.5393 32.0068 77.9316 32.1071 78.283 32.136C78.6344 32.1648 79.012 32.1598 79.3037 32.3578C79.6785 32.6124 79.7847 33.12 79.7695 33.5729C79.7542 34.0258 79.6504 34.4825 79.735 34.9277C79.8195 35.3729 80.1798 35.8176 80.6319 35.787C80.9704 35.4302 81.5887 35.4531 81.977 35.755C82.1626 35.9173 82.3109 36.1178 82.4118 36.3428C82.5127 36.5677 82.5638 36.8119 82.5615 37.0584C82.5536 37.5509 82.4771 38.0398 82.3342 38.5111C82.2528 38.8365 82.1915 39.231 82.4325 39.4643C82.5745 39.5775 82.7453 39.6488 82.9257 39.6702C83.6371 39.8213 86.3069 39.6163 87.0184 39.7674L86.9633 39.6588C87.4787 38.6629 88.1626 37.7611 88.6692 36.7606C89.1757 35.7602 89.5011 34.604 89.2271 33.5166Z" fill="#2F2E41"/>
<path d="M96.7907 74.2129C96.4425 74.1295 96.1168 73.9708 95.8365 73.748C95.5563 73.5251 95.3283 73.2435 95.1687 72.923C95.0091 72.6024 94.9217 72.2508 94.9126 71.8929C94.9036 71.5349 94.9731 71.1794 95.1164 70.8512L89.3069 53.8147L92.231 53.623L98.5119 69.6351C99.0472 69.9123 99.4623 70.3763 99.6784 70.939C99.8946 71.5018 99.8968 72.1243 99.6846 72.6885C99.4724 73.2528 99.0607 73.7197 98.5273 74.0006C97.9939 74.2816 97.376 74.3571 96.7907 74.2129Z" fill="#A0616A"/>
<path d="M87.9615 56.0425C88.2266 56.1751 91.7491 64.0733 92.0218 63.9572L93.6962 61.9824L95.6661 61.1439L94.7176 57.188L94.3514 56.2236L94.1765 55.4982C94.4515 55.3794 94.0586 53.6718 94.1487 53.3852C94.1931 53.2451 94.2069 53.0971 94.1891 52.9512C94.1714 52.8053 94.1225 52.6649 94.0458 52.5395L91.3325 48.1411C91.031 47.4496 90.4677 46.906 89.766 46.6293C89.0643 46.3526 88.2815 46.3654 87.5892 46.6651C86.897 46.9647 86.3519 47.5266 86.0733 48.2276C85.7948 48.9285 85.8056 49.7114 86.1034 50.4044L86.3473 51.3257L86.7198 52.7386L87.4177 55.3815C87.455 55.5245 87.523 55.6577 87.6169 55.7718C87.7108 55.8859 87.8284 55.9783 87.9615 56.0425Z" fill="#560185"/>
<path d="M110.441 113.302L109.068 111.096L108.794 112.357C108.746 112.578 108.698 112.802 108.653 113.024C108.263 112.691 107.848 112.383 107.443 112.088C106.196 111.183 104.951 110.278 103.705 109.371L104.095 111.632C104.336 113.024 104.587 114.445 105.181 115.718C105.247 115.862 105.318 116.005 105.395 116.144H111.188C111.235 116.015 111.267 115.881 111.285 115.745C111.286 115.736 111.287 115.727 111.286 115.718C111.377 114.855 110.9 114.041 110.441 113.302Z" fill="#F0F0F0"/>
<path d="M115.344 116.36L66.2501 116.415C66.1938 116.415 66.1399 116.393 66.1002 116.353C66.0604 116.313 66.0381 116.259 66.0381 116.203C66.0381 116.147 66.0604 116.093 66.1002 116.053C66.1399 116.014 66.1938 115.991 66.2501 115.991L115.344 115.937C115.372 115.936 115.4 115.942 115.425 115.952C115.451 115.963 115.475 115.979 115.494 115.998C115.514 116.018 115.53 116.041 115.54 116.067C115.551 116.093 115.557 116.121 115.557 116.149C115.557 116.176 115.551 116.204 115.54 116.23C115.53 116.256 115.514 116.279 115.494 116.299C115.475 116.318 115.451 116.334 115.425 116.345C115.4 116.355 115.372 116.361 115.344 116.36Z" fill="#CACACA"/>
<path d="M44.4025 79.391L43.0299 77.1851L42.7557 78.4457C42.7076 78.6664 42.6595 78.8908 42.615 79.1133C42.2251 78.7804 41.8103 78.4723 41.4044 78.1768C40.1582 77.2724 38.9125 76.3668 37.6674 75.46L38.0573 77.721C38.2976 79.1133 38.5487 80.534 39.1433 81.807C39.2092 81.9512 39.2804 82.0937 39.357 82.2325H45.1503C45.1969 82.1035 45.2292 81.9698 45.2465 81.8337C45.2479 81.8249 45.2485 81.8159 45.2482 81.807C45.3391 80.9435 44.8619 80.1299 44.4025 79.391Z" fill="#F0F0F0"/>
<path d="M49.3059 82.4494L0.211982 82.5041C0.155865 82.5039 0.102107 82.4815 0.0624846 82.4418C0.022862 82.402 0.000610352 82.3482 0.000610352 82.2921C0.000610352 82.236 0.022862 82.1822 0.0624846 82.1424C0.102107 82.1027 0.155865 82.0803 0.211982 82.0801L49.3059 82.0254C49.3338 82.0253 49.3615 82.0307 49.3873 82.0414C49.4131 82.052 49.4365 82.0676 49.4562 82.0873C49.476 82.107 49.4917 82.1304 49.5024 82.1561C49.5131 82.1819 49.5186 82.2095 49.5186 82.2374C49.5186 82.2653 49.5131 82.2929 49.5024 82.3186C49.4917 82.3444 49.476 82.3678 49.4562 82.3875C49.4365 82.4072 49.4131 82.4228 49.3873 82.4334C49.3615 82.444 49.3338 82.4495 49.3059 82.4494Z" fill="#CACACA"/>
<path d="M26.5997 41.519C26.3686 41.4439 26.1567 41.319 25.979 41.1531C25.8013 40.9872 25.6621 40.7844 25.5713 40.5589C25.4804 40.3335 25.4402 40.0908 25.4533 39.8481C25.4663 39.6054 25.5325 39.3685 25.6471 39.1541L21.1572 26.4173L21.6068 22.1798L23.4386 20.9941L25.2876 26.9176L28.0103 38.5133C28.3577 38.7296 28.6137 39.0659 28.7298 39.4583C28.8458 39.8508 28.8139 40.2722 28.64 40.6427C28.4662 41.0132 28.1624 41.307 27.7864 41.4685C27.4104 41.63 26.9881 41.648 26.5997 41.519Z" fill="#FFB6B6"/>
<path d="M18.738 17.7227L22.9844 16.0791L25.4499 24.2975L19.7591 26.1009L18.738 17.7227Z" fill="#3F3D56"/>
</g>
<defs>
<clipPath id="clip0_610_2232">
<rect width="115.556" height="116.416" fill="white"/>
</clipPath>
</defs>
</svg>
