<svg width="250" height="195" viewBox="0 0 250 195" fill="none" xmlns="http://www.w3.org/2000/svg">
<g opacity="0.5" clip-path="url(#clip0_582_1142)">
<path d="M52.3179 128.281C41.0462 117.185 36.2857 105.609 38.9127 95.6858C42.2839 82.9515 57.2608 74.1468 80.0031 71.5293L80.0871 72.2598C57.6614 74.8406 42.913 83.4477 39.6234 95.8739C37.0667 105.531 41.7582 116.854 52.8337 127.757L52.3179 128.281Z" fill="#F0F0F0"/>
<path d="M161.071 167.67C147.003 167.67 131.716 165.579 116.532 161.559C97.7542 156.588 80.5372 149.085 66.7422 139.86L67.1507 139.249C80.8793 148.429 98.02 155.898 116.72 160.848C133.618 165.322 150.644 167.395 165.949 166.848L165.976 167.583C164.359 167.641 162.724 167.67 161.071 167.67Z" fill="#F0F0F0"/>
<path d="M193.343 163.047L193.108 162.351C205.69 158.097 213.559 151.244 215.865 142.533C218.797 131.459 212.428 118.609 197.932 106.349C183.361 94.0264 162.351 83.8021 138.77 77.5594L138.958 76.8486C162.642 83.1188 183.755 93.3961 198.406 105.787C213.131 118.241 219.584 131.358 216.576 142.721C214.204 151.682 206.17 158.71 193.343 163.047Z" fill="#F0F0F0"/>
<path d="M77.8149 167.977C50.1728 155.718 28.8724 139.812 17.8379 123.191L18.4503 122.784C29.4085 139.291 50.597 155.102 78.1128 167.305L77.8149 167.977Z" fill="#F0F0F0"/>
<path d="M175.002 189.216C172.151 189.216 169.251 189.152 166.303 189.025L166.334 188.29C188.338 189.243 207.753 186.61 222.483 180.674L222.758 181.356C209.909 186.533 193.531 189.216 175.002 189.216Z" fill="#F0F0F0"/>
<path d="M158.965 72.19C154.396 70.7025 149.697 69.3175 144.997 68.0734C117.954 60.9141 91.3703 58.3722 68.1189 60.7238L68.0449 59.9923C91.3831 57.6329 118.058 60.1809 145.185 67.3626C149.898 68.6104 154.611 69.9993 159.192 71.4911L158.965 72.19Z" fill="#F0F0F0"/>
<path d="M35.0425 129.385C23.7709 118.289 19.0103 106.713 21.6373 96.7893C25.0085 84.055 39.9854 75.2503 62.7277 72.6328L62.8117 73.3633C40.386 75.9441 25.6376 84.5513 22.348 96.9774C19.7913 106.635 24.4828 117.958 35.5583 128.861L35.0425 129.385Z" fill="#F0F0F0"/>
<path d="M143.794 168.772C129.727 168.772 114.44 166.682 99.2552 162.662C80.4778 157.691 63.2609 150.187 49.4658 140.962L49.8743 140.352C63.6029 149.532 80.7436 157.001 99.4434 161.951C116.342 166.425 133.368 168.498 148.673 167.951L148.699 168.685C147.083 168.743 145.448 168.772 143.794 168.772Z" fill="#F0F0F0"/>
<path d="M176.067 164.149L175.832 163.453C188.413 159.199 196.282 152.347 198.589 143.636C201.52 132.562 195.151 119.711 180.655 107.451C166.085 95.129 145.074 84.9046 121.493 78.6619L121.681 77.9512C145.366 84.2213 166.478 94.4987 181.13 106.89C195.855 119.343 202.308 132.46 199.299 143.824C196.927 152.784 188.893 159.813 176.067 164.149Z" fill="#F0F0F0"/>
<path d="M60.5395 169.081C32.8974 156.821 11.597 140.916 0.5625 124.294L1.17488 123.888C12.1331 140.394 33.3217 156.205 60.8375 168.409L60.5395 169.081Z" fill="#F0F0F0"/>
<path d="M157.727 190.319C154.876 190.319 151.976 190.256 149.027 190.128L149.059 189.394C171.063 190.347 190.478 187.713 205.208 181.777L205.482 182.459C192.633 187.637 176.256 190.319 157.727 190.319Z" fill="#F0F0F0"/>
<path d="M141.688 73.2926C137.12 71.8051 132.42 70.42 127.721 69.1759C100.678 62.0166 74.0939 59.4747 50.8425 61.8264L50.7686 61.0948C74.1067 58.7354 100.781 61.2835 127.909 68.4652C132.622 69.7129 137.334 71.1019 141.916 72.5937L141.688 73.2926Z" fill="#F0F0F0"/>
<path d="M13.0923 109.695C18.375 103.772 26.8019 100.162 34.4386 102.323C27.3935 107.309 22.3389 114.626 20.1692 122.979C19.3441 126.204 18.7622 129.877 16.0804 131.848C14.4117 133.075 12.2007 133.368 10.1485 133.089C8.09633 132.809 6.15591 132.011 4.24167 131.22L3.72656 131.265C5.20752 123.468 7.80951 115.618 13.0923 109.695Z" fill="#FBFBFB"/>
<path d="M34.4155 102.488C28.0307 104.033 22.2953 107.552 18.024 112.543C17.0854 113.601 16.3195 114.801 15.7544 116.097C15.2448 117.378 15.0874 118.772 15.2988 120.134C15.4703 121.409 15.7933 122.692 15.6521 123.986C15.5699 124.647 15.349 125.283 15.0037 125.853C14.6585 126.423 14.1967 126.913 13.6486 127.292C12.3076 128.271 10.6947 128.71 9.10245 129.084C7.3346 129.5 5.49176 129.904 4.05068 131.079C3.87607 131.221 3.6654 130.942 3.83974 130.8C6.34698 128.756 9.83148 129.018 12.6055 127.533C13.8999 126.841 14.9934 125.754 15.2593 124.262C15.4917 122.958 15.1598 121.634 14.975 120.345C14.7494 119.019 14.8518 117.658 15.2735 116.381C15.7707 115.06 16.4891 113.833 17.398 112.753C19.4055 110.288 21.7879 108.155 24.4581 106.43C27.4946 104.445 30.8483 102.994 34.3742 102.14C34.5924 102.087 34.6323 102.435 34.4155 102.488Z" fill="#FBFBFB"/>
<path d="M19.305 110.854C18.5649 110.024 18.144 108.957 18.1175 107.846C18.0911 106.734 18.4607 105.648 19.1605 104.784C19.3027 104.609 19.5805 104.822 19.4381 104.997C18.785 105.801 18.4407 106.812 18.4675 107.847C18.4942 108.882 18.8902 109.874 19.584 110.643C19.7346 110.811 19.4547 111.02 19.305 110.854Z" fill="#FBFBFB"/>
<path d="M15.126 119.5C17.3947 119.651 19.6369 118.941 21.4054 117.512C21.5805 117.37 21.7913 117.649 21.6164 117.791C19.7732 119.274 17.4384 120.008 15.0778 119.846C14.8528 119.831 14.9022 119.485 15.126 119.5Z" fill="#FBFBFB"/>
<path d="M27.5729 104.903C27.7923 105.284 28.103 105.604 28.4768 105.836C28.8507 106.067 29.2762 106.202 29.715 106.228C29.9401 106.241 29.8905 106.587 29.6669 106.574C29.1822 106.543 28.7125 106.394 28.2988 106.139C27.8852 105.885 27.5401 105.533 27.2939 105.114C27.2674 105.076 27.2561 105.03 27.2625 104.985C27.2688 104.939 27.2922 104.898 27.3279 104.869C27.365 104.841 27.4116 104.829 27.4574 104.836C27.5033 104.842 27.5448 104.866 27.5729 104.903Z" fill="#FBFBFB"/>
<path d="M45.2788 126.911C45.1381 126.907 44.9973 126.903 44.8547 126.901C42.962 126.858 41.0688 126.968 39.194 127.232C39.0487 127.25 38.9017 127.27 38.7573 127.292C34.2471 127.975 29.9027 129.488 25.9451 131.756C24.3711 132.66 22.8681 133.683 21.4493 134.815C19.4898 136.378 17.4897 138.23 15.1957 139.031C14.9573 139.117 14.7138 139.189 14.4666 139.245L3.82081 131.89C3.80501 131.861 3.78741 131.834 3.77149 131.805L3.33301 131.531C3.40211 131.467 3.47514 131.403 3.54424 131.34C3.58417 131.303 3.62648 131.267 3.6664 131.23C3.69377 131.206 3.72127 131.182 3.74459 131.159C3.75367 131.151 3.76287 131.143 3.77028 131.137C3.79361 131.114 3.81774 131.094 3.83938 131.073C4.24662 130.713 4.6571 130.354 5.07083 129.997C5.07251 129.995 5.07251 129.995 5.07657 129.994C8.2359 127.286 11.6491 124.818 15.3284 122.946C15.4391 122.89 15.5513 122.831 15.6669 122.778C17.33 121.944 19.0586 121.247 20.8353 120.694C21.8091 120.395 22.7975 120.145 23.7966 119.945C26.3792 119.434 29.026 119.333 31.6401 119.644C36.8512 120.266 41.8054 122.548 45.0351 126.599C45.1177 126.703 45.198 126.805 45.2788 126.911Z" fill="#FBFBFB"/>
<path d="M45.1616 127.03C39.133 124.42 32.4353 123.776 26.0199 125.19C24.6334 125.469 23.2997 125.966 22.0679 126.661C20.8897 127.377 19.9248 128.395 19.2734 129.61C18.6432 130.731 18.1284 131.95 17.2368 132.898C16.7732 133.376 16.2137 133.751 15.595 133.998C14.9763 134.245 14.3123 134.359 13.6467 134.331C11.9864 134.306 10.4343 133.685 8.93751 133.025C7.27565 132.293 5.56108 131.506 3.7031 131.576C3.47798 131.585 3.4779 131.235 3.70268 131.227C6.93524 131.104 9.55942 133.412 12.6682 133.896C14.1188 134.122 15.6464 133.913 16.7568 132.882C17.7277 131.98 18.2597 130.724 18.888 129.583C19.5061 128.389 20.4073 127.364 21.5129 126.598C22.7054 125.842 24.0178 125.295 25.3938 124.98C28.4805 124.221 31.6673 123.952 34.8375 124.183C38.4571 124.426 42.0084 125.287 45.3378 126.727C45.5438 126.817 45.3663 127.118 45.1616 127.03Z" fill="#FBFBFB"/>
<path d="M28.0597 124.612C27.9687 123.504 28.2746 122.399 28.923 121.495C29.5713 120.592 30.5199 119.948 31.5991 119.679C31.8177 119.625 31.9114 119.962 31.6925 120.016C30.687 120.264 29.8036 120.864 29.2015 121.707C28.5995 122.55 28.3186 123.58 28.4095 124.612C28.429 124.836 28.0791 124.835 28.0597 124.612Z" fill="#FBFBFB"/>
<path d="M19.5181 129C21.2388 130.486 23.4565 131.27 25.729 131.193C25.9541 131.186 25.9543 131.535 25.7294 131.543C23.3645 131.618 21.0583 130.798 19.2711 129.248C19.1008 129.1 19.3488 128.853 19.5181 129Z" fill="#FBFBFB"/>
<path d="M38.2452 124.839C38.1911 125.275 38.2461 125.718 38.4054 126.128C38.5647 126.537 38.8233 126.901 39.1579 127.186C39.33 127.332 39.0818 127.579 38.9109 127.434C38.5427 127.117 38.2576 126.715 38.0805 126.263C37.9035 125.81 37.84 125.322 37.8954 124.839C37.8968 124.793 37.9157 124.75 37.9481 124.717C37.9806 124.685 38.0242 124.666 38.0701 124.664C38.1164 124.664 38.1608 124.683 38.1936 124.715C38.2264 124.748 38.2449 124.792 38.2452 124.839Z" fill="#FBFBFB"/>
<path d="M220.089 158.248C217.104 150.895 210.381 144.662 202.462 144.131C207.422 151.194 209.723 159.785 208.959 168.381C208.652 171.696 207.966 175.35 209.829 178.109C210.988 179.825 212.972 180.844 214.999 181.271C217.025 181.697 219.121 181.598 221.19 181.496L221.66 181.711C222.886 173.87 223.073 165.602 220.089 158.248Z" fill="#FBFBFB"/>
<path d="M202.429 144.295C207.923 147.896 212.142 153.138 214.487 159.274C215.016 160.586 215.334 161.973 215.43 163.384C215.48 164.762 215.16 166.128 214.503 167.34C213.913 168.482 213.177 169.582 212.876 170.848C212.731 171.499 212.725 172.172 212.859 172.825C212.992 173.477 213.262 174.094 213.651 174.635C214.585 176.008 215.957 176.964 217.33 177.852C218.856 178.837 220.456 179.837 221.418 181.428C221.535 181.621 221.827 181.429 221.71 181.236C220.036 178.468 216.666 177.544 214.552 175.214C213.566 174.126 212.902 172.735 213.153 171.241C213.372 169.934 214.13 168.799 214.737 167.647C215.395 166.474 215.756 165.158 215.788 163.813C215.764 162.402 215.5 161.005 215.007 159.682C213.944 156.686 212.417 153.876 210.482 151.354C208.289 148.464 205.618 145.971 202.585 143.981C202.397 143.858 202.243 144.172 202.429 144.295Z" fill="#FBFBFB"/>
<path d="M213.849 157.253C214.825 156.719 215.58 155.857 215.979 154.818C216.377 153.78 216.394 152.634 216.026 151.584C215.95 151.372 215.617 151.479 215.693 151.691C216.037 152.668 216.022 153.736 215.649 154.702C215.276 155.668 214.569 156.469 213.657 156.96C213.459 157.067 213.652 157.359 213.849 157.253Z" fill="#FBFBFB"/>
<path d="M214.878 166.8C212.691 166.18 210.817 164.757 209.632 162.817C209.515 162.625 209.223 162.817 209.34 163.009C210.577 165.026 212.529 166.502 214.807 167.143C215.024 167.204 215.094 166.861 214.878 166.8Z" fill="#FBFBFB"/>
<path d="M208.062 148.868C207.727 149.153 207.327 149.351 206.897 149.443C206.467 149.535 206.021 149.519 205.599 149.396C205.383 149.332 205.313 149.675 205.528 149.738C205.995 149.872 206.487 149.889 206.963 149.788C207.438 149.688 207.881 149.472 208.254 149.161C208.291 149.134 208.317 149.094 208.327 149.049C208.336 149.004 208.328 148.958 208.304 148.918C208.278 148.88 208.238 148.853 208.193 148.844C208.148 148.834 208.101 148.843 208.062 148.868Z" fill="#FBFBFB"/>
<path d="M183.989 163.645C184.123 163.689 184.257 163.733 184.392 163.779C186.189 164.374 187.935 165.115 189.612 165.993C189.743 166.059 189.875 166.127 190.003 166.197C194.022 168.355 197.605 171.241 200.57 174.707C201.748 176.088 202.82 177.556 203.776 179.099C205.096 181.23 206.358 183.646 208.249 185.171C208.444 185.333 208.65 185.482 208.864 185.618L221.362 182.269C221.387 182.247 221.412 182.228 221.437 182.206L221.942 182.095C221.898 182.012 221.851 181.927 221.808 181.844C221.782 181.795 221.754 181.748 221.729 181.7C221.712 181.668 221.694 181.636 221.68 181.606C221.674 181.595 221.668 181.585 221.663 181.577C221.649 181.547 221.632 181.521 221.619 181.494C221.357 181.017 221.091 180.541 220.821 180.066C220.82 180.064 220.82 180.064 220.817 180.061C218.751 176.449 216.366 172.977 213.53 169.978C213.445 169.888 213.359 169.795 213.267 169.706C211.982 168.361 210.588 167.124 209.1 166.006C208.284 165.396 207.437 164.829 206.563 164.305C204.302 162.956 201.844 161.971 199.277 161.386C194.16 160.22 188.727 160.704 184.324 163.434C184.211 163.504 184.101 163.573 183.989 163.645Z" fill="#FBFBFB"/>
<path d="M184.061 163.796C190.616 163.364 197.14 165.009 202.707 168.497C203.919 169.226 205.008 170.142 205.935 171.211C206.804 172.281 207.37 173.564 207.576 174.928C207.792 176.195 207.868 177.516 208.389 178.708C208.664 179.315 209.065 179.856 209.565 180.297C210.065 180.737 210.652 181.067 211.288 181.265C212.86 181.799 214.531 181.736 216.162 181.618C217.974 181.487 219.853 181.322 221.579 182.013C221.788 182.096 221.906 181.767 221.697 181.683C218.694 180.482 215.447 181.773 212.356 181.184C210.914 180.91 209.545 180.199 208.846 178.855C208.235 177.679 208.156 176.317 207.947 175.032C207.767 173.699 207.262 172.431 206.479 171.338C205.609 170.226 204.557 169.269 203.367 168.51C200.715 166.757 197.804 165.433 194.741 164.585C191.25 163.597 187.616 163.214 183.996 163.452C183.772 163.467 183.838 163.811 184.061 163.796Z" fill="#FBFBFB"/>
<path d="M200.979 167.269C201.437 166.256 201.521 165.112 201.214 164.043C200.907 162.974 200.23 162.049 199.304 161.433C199.116 161.309 198.914 161.595 199.103 161.719C199.966 162.291 200.596 163.153 200.88 164.149C201.164 165.145 201.082 166.21 200.65 167.151C200.556 167.356 200.886 167.473 200.979 167.269Z" fill="#FBFBFB"/>
<path d="M207.549 174.272C205.429 175.093 203.077 175.085 200.962 174.25C200.753 174.167 200.635 174.496 200.844 174.579C203.046 175.444 205.494 175.448 207.698 174.588C207.908 174.506 207.758 174.19 207.549 174.272Z" fill="#FBFBFB"/>
<path d="M191.311 164.058C191.215 164.487 191.014 164.886 190.727 165.218C190.439 165.55 190.073 165.806 189.662 165.962C189.451 166.042 189.602 166.357 189.812 166.278C190.265 166.104 190.669 165.821 190.987 165.455C191.306 165.088 191.53 164.649 191.64 164.176C191.654 164.132 191.651 164.085 191.632 164.043C191.612 164.002 191.577 163.969 191.534 163.952C191.491 163.937 191.443 163.939 191.401 163.959C191.359 163.979 191.327 164.015 191.311 164.058Z" fill="#FBFBFB"/>
<path d="M162.185 183.289C163.809 183.289 165.125 181.973 165.125 180.349C165.125 178.725 163.809 177.408 162.185 177.408C160.561 177.408 159.244 178.725 159.244 180.349C159.244 181.973 160.561 183.289 162.185 183.289Z" fill="#FD6584"/>
<path d="M172.599 133.206C174.223 133.206 175.539 131.89 175.539 130.266C175.539 128.642 174.223 127.325 172.599 127.325C170.975 127.325 169.658 128.642 169.658 130.266C169.658 131.89 170.975 133.206 172.599 133.206Z" fill="#E6E6E6"/>
<path d="M117.883 51.6418C119.507 51.6418 120.823 50.3253 120.823 48.7013C120.823 47.0773 119.507 45.7607 117.883 45.7607C116.259 45.7607 114.942 47.0773 114.942 48.7013C114.942 50.3253 116.259 51.6418 117.883 51.6418Z" fill="#E6E6E6"/>
<path d="M56.2627 161.5C56.2627 162.249 56.2874 162.997 56.3397 163.74C56.3952 164.627 56.4907 165.508 56.6201 166.383C57.0548 169.328 57.8859 172.202 59.0905 174.925C59.1521 175.06 59.2137 175.196 59.2753 175.331L59.3677 175.534C59.3985 175.602 59.4324 175.67 59.4632 175.735C59.5064 175.824 59.5464 175.91 59.5895 175.996C59.6419 176.104 59.6943 176.212 59.7497 176.32C59.7559 176.332 59.762 176.348 59.7713 176.363C59.8175 176.455 59.8606 176.545 59.9099 176.637C59.9189 176.657 59.9292 176.677 59.9407 176.696C59.9931 176.8 60.0485 176.908 60.104 177.013C60.1656 177.124 60.2241 177.238 60.2857 177.349C60.4336 177.623 60.5876 177.894 60.7447 178.165C60.7909 178.245 60.8371 178.325 60.8864 178.405C60.9295 178.479 60.9726 178.553 61.0188 178.627C61.0496 178.676 61.0804 178.729 61.1112 178.778C61.1605 178.861 61.2098 178.941 61.2622 179.024C61.3761 179.206 61.4932 179.388 61.6072 179.57H61.6103C61.6626 179.653 61.7181 179.736 61.7735 179.816V179.819C61.9368 180.066 62.1062 180.312 62.2756 180.555L62.2768 180.556L62.2778 180.556L62.2785 180.557L62.2787 180.558C62.4142 180.756 62.5559 180.947 62.6945 181.138V181.141C62.787 181.261 62.8763 181.384 62.9687 181.504C63.0426 181.603 63.1196 181.704 63.1966 181.803C63.212 181.825 63.2305 181.843 63.2459 181.865V181.868C63.2675 181.895 63.2891 181.92 63.3106 181.948C63.6371 182.367 63.9739 182.776 64.321 183.177L64.3764 183.242C64.3949 183.263 64.4165 183.285 64.435 183.309C64.4658 183.343 64.4935 183.377 64.5243 183.411C64.552 183.445 64.5828 183.479 64.6136 183.513C66.4227 185.55 68.4741 187.36 70.722 188.9C71.0208 189.107 71.3257 189.307 71.6307 189.501C71.7077 189.55 71.7847 189.599 71.8617 189.646C71.8833 189.661 71.9079 189.676 71.9295 189.692C71.9726 189.716 72.0127 189.741 72.0558 189.769C72.0958 189.793 72.1359 189.818 72.179 189.843C72.3423 189.944 72.5086 190.043 72.675 190.142C72.715 190.166 72.7581 190.191 72.8013 190.215C72.8413 190.237 72.8844 190.262 72.9275 190.286C72.9275 190.289 72.9275 190.289 72.9306 190.289H72.9337V190.293H72.9368C73.1432 190.413 73.3526 190.53 73.5652 190.644C73.6792 190.705 73.7962 190.77 73.9133 190.828C74.1782 190.973 74.4462 191.112 74.7142 191.244C74.8097 191.291 74.9082 191.337 75.0037 191.386C75.0838 191.423 75.1639 191.463 75.244 191.5C75.2686 191.512 75.2902 191.522 75.3118 191.534C75.3795 191.565 75.4442 191.595 75.512 191.626C75.5859 191.66 75.6598 191.694 75.7307 191.728C75.8139 191.765 75.8939 191.802 75.9771 191.836C76.2852 191.974 76.5963 192.107 76.9074 192.233C78.0223 192.69 79.1618 193.085 80.3204 193.416C80.3728 193.431 80.4282 193.447 80.4837 193.462C80.9797 193.601 81.4787 193.727 81.9808 193.841C82.8587 194.044 83.7448 194.211 84.6391 194.34H84.6453C84.7531 194.356 84.8579 194.371 84.9657 194.386C84.9749 194.386 84.9841 194.389 84.9965 194.389C84.9965 194.392 84.9965 194.392 84.9995 194.389C85.1166 194.405 85.2367 194.42 85.3538 194.436C85.3618 194.438 85.3701 194.439 85.3784 194.439C85.4893 194.454 85.6033 194.466 85.7142 194.479C85.8343 194.491 85.9544 194.503 86.0746 194.516C86.167 194.525 86.2594 194.534 86.3518 194.543C86.3597 194.546 86.3681 194.547 86.3765 194.546C86.4596 194.553 86.5428 194.562 86.626 194.568H86.6383C86.7092 194.574 86.7831 194.58 86.8539 194.587C87.7133 194.654 88.5759 194.685 89.4507 194.685C90.3964 194.685 91.3359 194.648 92.2631 194.568H92.2723C92.4725 194.55 92.6697 194.531 92.8668 194.513C92.9192 194.506 92.9685 194.503 93.0208 194.497C93.0301 194.497 93.0424 194.494 93.0516 194.494C93.067 194.491 93.0824 194.491 93.1009 194.488C93.1092 194.488 93.1176 194.487 93.1256 194.485C93.1933 194.479 93.2611 194.469 93.332 194.463L93.563 194.436C93.64 194.426 93.717 194.414 93.794 194.405C93.8125 194.402 93.8279 194.402 93.8464 194.399C93.9018 194.392 93.9573 194.383 94.0127 194.374C94.0404 194.371 94.0682 194.368 94.0928 194.365C94.1483 194.356 94.2006 194.349 94.2561 194.34H94.2591C95.9495 194.097 97.618 193.721 99.2493 193.216C99.3356 193.188 99.4219 193.163 99.5081 193.136C99.5112 193.136 99.5143 193.133 99.5173 193.133C99.542 193.123 99.5697 193.117 99.5943 193.108C99.8254 193.034 100.053 192.957 100.281 192.877C100.595 192.772 100.907 192.658 101.218 192.541C101.301 192.507 101.384 192.476 101.467 192.443C101.637 192.378 101.803 192.31 101.969 192.242C102.253 192.128 102.536 192.008 102.816 191.885C103.078 191.768 103.337 191.651 103.596 191.528C103.602 191.525 103.611 191.525 103.617 191.518C103.676 191.491 103.734 191.463 103.79 191.435H103.793C105.211 190.755 106.58 189.973 107.887 189.097C108.306 188.817 108.718 188.527 109.125 188.229C109.452 187.985 109.772 187.739 110.092 187.486C111.673 186.229 113.136 184.831 114.463 183.309V183.306C114.559 183.201 114.648 183.094 114.741 182.986C114.756 182.97 114.768 182.955 114.781 182.943C114.839 182.872 114.895 182.804 114.953 182.736V182.733C115.03 182.644 115.107 182.552 115.181 182.459C115.2 182.438 115.215 182.419 115.23 182.401V182.398C115.292 182.324 115.35 182.25 115.412 182.173C115.443 182.136 115.471 182.099 115.501 182.062V182.059C115.683 181.831 115.859 181.603 116.034 181.369C116.081 181.307 116.127 181.242 116.176 181.178C116.398 180.879 116.613 180.574 116.823 180.269V180.266C116.903 180.152 116.98 180.035 117.06 179.921C117.137 179.804 117.214 179.687 117.291 179.57C117.368 179.447 117.448 179.326 117.525 179.203L117.534 179.185C117.611 179.068 117.688 178.944 117.762 178.824C117.821 178.726 117.879 178.63 117.938 178.535C117.975 178.47 118.015 178.405 118.052 178.338C118.066 178.317 118.08 178.295 118.092 178.273C118.178 178.122 118.264 177.971 118.351 177.82C118.452 177.645 118.551 177.466 118.65 177.287C118.687 177.213 118.727 177.139 118.767 177.065C118.782 177.041 118.794 177.016 118.807 176.991C118.853 176.905 118.899 176.816 118.942 176.727C118.988 176.64 119.035 176.551 119.081 176.462C119.124 176.375 119.17 176.286 119.213 176.197C119.247 176.129 119.278 176.061 119.312 175.993C119.314 175.988 119.317 175.983 119.321 175.978C119.336 175.944 119.352 175.913 119.364 175.883C119.368 175.878 119.371 175.873 119.373 175.867C119.407 175.799 119.438 175.729 119.472 175.661C119.515 175.571 119.555 175.479 119.598 175.39C119.626 175.328 119.657 175.263 119.685 175.199C119.725 175.109 119.768 175.02 119.805 174.928C119.848 174.835 119.888 174.743 119.928 174.647C119.939 174.624 119.95 174.601 119.959 174.576C119.98 174.533 119.996 174.49 120.014 174.447C120.063 174.333 120.113 174.216 120.159 174.102C120.214 173.973 120.267 173.84 120.316 173.711C120.365 173.591 120.412 173.468 120.458 173.344L120.476 173.301C121.194 171.411 121.738 169.459 122.103 167.47V167.467C122.308 166.331 122.455 165.186 122.543 164.035C122.546 163.971 122.552 163.909 122.555 163.848C122.611 163.068 122.636 162.286 122.636 161.5C122.636 161.152 122.629 160.807 122.62 160.462C122.405 153.247 119.832 146.301 115.295 140.686C115.196 140.563 115.098 140.44 114.996 140.317C114.895 140.193 114.79 140.073 114.688 139.953C111.311 135.999 107.053 132.893 102.255 130.886C97.4579 128.879 92.2562 128.028 87.0694 128.401C81.8827 128.773 76.856 130.359 72.3947 133.031C67.9334 135.703 64.1623 139.385 61.3854 143.782C61.2345 144.022 61.0835 144.266 60.9388 144.509C60.7909 144.755 60.6492 145.002 60.5075 145.251C57.7169 150.212 56.2547 155.809 56.2627 161.5Z" fill="#FBFBFB"/>
<path d="M88.1323 139.793C93.5894 141.193 99.1817 142 104.812 142.2C105.663 142.247 106.517 142.241 107.368 142.183C109.237 142.026 110.838 141.438 112.622 141.117C113.479 140.963 114.434 140.85 115.297 140.684C115.098 140.437 114.895 140.192 114.688 139.951C112.827 140.108 110.937 140.623 109.053 140.862C105.851 141.269 102.264 140.815 99.8366 139.694C98.659 139.151 97.7569 138.472 96.5834 137.926C96.4238 137.844 96.251 137.791 96.0728 137.769C95.7345 137.759 95.4003 137.846 95.1095 138.019C93.1408 139.013 90.2823 139.821 87.6291 139.377C87.4313 139.531 87.8071 139.708 88.1323 139.793Z" fill="#FBFBFB"/>
<path d="M76.391 143.29C76.3668 143.286 76.3426 143.282 76.3184 143.278C76.4201 143.215 76.516 143.143 76.6047 143.062L76.391 143.29Z" fill="#FBFBFB"/>
<path d="M60.5088 145.252C61.6169 145.341 62.7308 145.406 63.8505 145.45C64.7019 145.496 65.5553 145.49 66.4061 145.432C68.2755 145.274 69.8769 144.688 71.6603 144.366C73.2947 144.073 75.2809 143.931 76.3187 143.279C73.6365 142.815 70.8576 143.76 68.0918 144.112C65.8547 144.387 63.5868 144.275 61.3877 143.781C61.0815 144.262 60.7885 144.753 60.5088 145.252Z" fill="#FBFBFB"/>
<path d="M73.9141 190.828C74.179 190.973 74.447 191.112 74.715 191.244C74.8105 191.29 74.909 191.336 75.0045 191.386C75.0846 191.423 75.1647 191.463 75.2448 191.5C75.2694 191.512 75.291 191.521 75.3126 191.534C75.3803 191.564 75.445 191.595 75.5128 191.626C75.5867 191.66 75.6606 191.694 75.7315 191.728C75.8147 191.765 75.8947 191.802 75.9779 191.835C76.286 191.974 76.5971 192.107 76.9082 192.233C78.0231 192.69 79.1626 193.085 80.3212 193.416C80.3736 193.431 80.4291 193.447 80.4845 193.462C80.9805 193.601 81.4795 193.727 81.9816 193.841C82.8595 194.044 83.7456 194.21 84.6399 194.34H84.6461C84.7539 194.355 84.8586 194.371 84.9665 194.386C84.9757 194.386 84.9849 194.389 84.9973 194.389C84.9973 194.392 84.9973 194.392 85.0003 194.389C85.1174 194.405 85.2375 194.42 85.3546 194.435C85.3626 194.438 85.3709 194.439 85.3792 194.438C85.4901 194.454 85.6041 194.466 85.715 194.478C85.8351 194.491 85.9553 194.503 86.0754 194.515C86.1678 194.525 86.2602 194.534 86.3526 194.543C86.3605 194.546 86.3689 194.547 86.3773 194.546C86.4604 194.552 86.5436 194.562 86.6268 194.568H86.6391C86.71 194.574 86.7839 194.58 86.8547 194.586C87.7142 194.654 88.5767 194.685 89.4515 194.685C90.3972 194.685 91.3367 194.648 92.2639 194.568H92.2731C92.4733 194.549 92.6705 194.531 92.8676 194.512C92.92 194.506 92.9693 194.503 93.0216 194.497C93.0309 194.497 93.0432 194.494 93.0524 194.494C93.0678 194.491 93.0832 194.491 93.1017 194.488C93.1101 194.488 93.1184 194.487 93.1264 194.485C93.1941 194.478 93.2619 194.469 93.3328 194.463L93.5638 194.435C93.6408 194.426 93.7178 194.414 93.7948 194.405C93.8133 194.401 93.8287 194.401 93.8472 194.398C93.9026 194.392 93.9581 194.383 94.0135 194.374C94.0412 194.371 94.069 194.368 94.0936 194.364C94.1491 194.355 94.2014 194.349 94.2569 194.34H94.2599C95.9503 194.096 97.6188 193.721 99.2502 193.216C99.3364 193.188 99.4227 193.163 99.5089 193.135C99.1112 191.281 98.2923 189.542 97.1157 188.054C95.939 186.566 94.436 185.368 92.7228 184.553C93.1466 184.15 93.4395 183.628 93.5638 183.056C93.6438 182.688 93.6501 182.307 93.5824 181.936C93.5148 181.565 93.3744 181.211 93.1695 180.894C92.7698 180.28 92.1426 179.85 91.426 179.699L86.8609 178.744C86.126 178.601 85.3643 178.753 84.7413 179.169C84.1183 179.584 83.6845 180.228 83.5341 180.962C83.4875 181.187 83.4668 181.416 83.4725 181.646C79.0768 184.572 75.9132 187.606 73.9141 190.828Z" fill="#5A2C7D"/>
<path d="M87.3927 176.941C92.6453 176.941 96.9035 172.682 96.9035 167.43C96.9035 162.177 92.6453 157.919 87.3927 157.919C82.14 157.919 77.8818 162.177 77.8818 167.43C77.8818 172.682 82.14 176.941 87.3927 176.941Z" fill="#FFB8B8"/>
<path d="M81.4646 175.63C80.4504 174.937 79.4147 173.605 78.7232 172.608C77.807 171.296 77.1766 169.807 76.8728 168.236C76.569 166.665 76.5987 165.048 76.9598 163.489C77.075 162.866 77.3581 162.286 77.7785 161.812C78.2265 161.369 78.9581 161.159 79.5048 161.472C79.3556 161.073 79.2899 160.647 79.3117 160.221C79.3335 159.795 79.4424 159.378 79.6316 158.996C80.0159 158.232 80.5727 157.569 81.2578 157.059C82.5682 156.05 84.1273 155.414 85.7697 155.22C87.4121 155.025 89.0765 155.279 90.5863 155.954C91.1803 156.23 90.2046 154.103 90.8264 154.309C91.4441 154.548 92.1309 154.536 92.7398 154.275C93.3247 153.981 95.2632 155.73 95.0389 155.114C95.4827 155.316 95.8683 155.627 96.1598 156.017C96.4513 156.408 96.6392 156.866 96.706 157.349C96.7727 157.832 96.7162 158.324 96.5417 158.779C96.3672 159.234 96.0804 159.637 95.7079 159.952C95.217 160.366 94.6042 160.605 94.0667 160.956C93.1251 161.619 92.4585 162.603 92.193 163.724C91.9275 164.844 92.0813 166.023 92.6254 167.037C92.06 166.674 91.4395 166.404 90.7881 166.239C90.4613 166.159 90.1201 166.158 89.793 166.237C89.466 166.316 89.1624 166.471 88.9076 166.691C88.6947 166.935 88.5339 167.219 88.4349 167.527C88.336 167.836 88.3012 168.161 88.3325 168.483C88.3538 169.128 88.5073 169.764 88.5245 170.409C88.5751 172.304 89.5896 175.905 88.121 176.912C86.962 177.706 82.8494 176.575 81.4646 175.63Z" fill="#2F2E41"/>
<path d="M249.558 12.1481H0.874655C0.791235 12.1462 0.711855 12.1118 0.653511 12.0521C0.595168 11.9925 0.5625 11.9124 0.5625 11.8289C0.5625 11.7455 0.595168 11.6654 0.653511 11.6057C0.711855 11.5461 0.791235 11.5116 0.874655 11.5098H249.558C249.641 11.5116 249.721 11.5461 249.779 11.6057C249.837 11.6654 249.87 11.7455 249.87 11.8289C249.87 11.9124 249.837 11.9925 249.779 12.0521C249.721 12.1118 249.641 12.1462 249.558 12.1481Z" fill="#CACACA"/>
<path d="M7.90199 7.68069C9.79866 7.68069 11.3362 6.10887 11.3362 4.16993C11.3362 2.231 9.79866 0.65918 7.90199 0.65918C6.00533 0.65918 4.46777 2.231 4.46777 4.16993C4.46777 6.10887 6.00533 7.68069 7.90199 7.68069Z" fill="#3F3D56"/>
<path d="M19.7643 7.68069C21.661 7.68069 23.1985 6.10887 23.1985 4.16993C23.1985 2.231 21.661 0.65918 19.7643 0.65918C17.8676 0.65918 16.3301 2.231 16.3301 4.16993C16.3301 6.10887 17.8676 7.68069 19.7643 7.68069Z" fill="#3F3D56"/>
<path d="M31.6286 7.68069C33.5252 7.68069 35.0628 6.10887 35.0628 4.16993C35.0628 2.231 33.5252 0.65918 31.6286 0.65918C29.7319 0.65918 28.1943 2.231 28.1943 4.16993C28.1943 6.10887 29.7319 7.68069 31.6286 7.68069Z" fill="#3F3D56"/>
<path d="M242.45 2.80691H234.021C233.854 2.80323 233.695 2.73436 233.579 2.61505C233.462 2.49574 233.396 2.33548 233.396 2.16859C233.396 2.0017 233.462 1.84144 233.579 1.72213C233.695 1.60283 233.854 1.53396 234.021 1.53027H242.45C242.617 1.53396 242.776 1.60283 242.893 1.72213C243.009 1.84144 243.075 2.0017 243.075 2.16859C243.075 2.33548 243.009 2.49574 242.893 2.61505C242.776 2.73436 242.617 2.80323 242.45 2.80691Z" fill="#3F3D56"/>
<path d="M242.45 5.20144H234.021C233.854 5.19778 233.695 5.12891 233.579 5.0096C233.462 4.8903 233.396 4.73003 233.396 4.56312C233.396 4.39622 233.462 4.23595 233.579 4.11664C233.695 3.99733 233.854 3.92847 234.021 3.9248H242.45C242.617 3.92847 242.776 3.99733 242.893 4.11664C243.009 4.23595 243.075 4.39622 243.075 4.56312C243.075 4.73003 243.009 4.8903 242.893 5.0096C242.776 5.12891 242.617 5.19778 242.45 5.20144Z" fill="#3F3D56"/>
<path d="M242.45 7.59402H234.021C233.854 7.59035 233.695 7.52149 233.579 7.40218C233.462 7.28287 233.396 7.1226 233.396 6.9557C233.396 6.78879 233.462 6.62853 233.579 6.50922C233.695 6.38991 233.854 6.32105 234.021 6.31738H242.45C242.617 6.32105 242.776 6.38991 242.893 6.50922C243.009 6.62853 243.075 6.78879 243.075 6.9557C243.075 7.1226 243.009 7.28287 242.893 7.40218C242.776 7.52149 242.617 7.59035 242.45 7.59402Z" fill="#3F3D56"/>
<path d="M93.9321 119.825C93.7318 119.824 93.5335 119.784 93.3488 119.707C93.073 119.596 92.8372 119.405 92.6721 119.158C92.507 118.911 92.4203 118.62 92.4235 118.322V116.817C92.4231 116.501 92.2976 116.198 92.0743 115.975C91.851 115.752 91.5483 115.626 91.2325 115.626C90.8351 115.625 90.454 115.467 90.173 115.186C89.8919 114.905 89.7338 114.524 89.7334 114.127V93.5021C89.7338 93.1046 89.8919 92.7236 90.1729 92.4425C90.4539 92.1615 90.8349 92.0034 91.2324 92.0029H159.563C159.961 92.0034 160.342 92.1615 160.623 92.4425C160.904 92.7235 161.062 93.1046 161.062 93.5021V114.127C161.062 114.524 160.904 114.905 160.623 115.186C160.342 115.467 159.961 115.625 159.563 115.626H99.2325C99.076 115.625 98.921 115.656 98.7764 115.716C98.6318 115.776 98.5006 115.864 98.3902 115.975L94.9827 119.382C94.8456 119.522 94.6821 119.633 94.5018 119.709C94.3214 119.785 94.1278 119.824 93.9321 119.825Z" fill="#FBFBFB"/>
<path d="M93.9325 120.134C93.6917 120.134 93.4533 120.086 93.2311 119.993C92.8988 119.859 92.6145 119.629 92.4155 119.331C92.2166 119.033 92.1121 118.682 92.1159 118.324V116.818C92.1156 116.584 92.0226 116.36 91.857 116.194C91.6915 116.029 91.4671 115.936 91.2329 115.935C90.7538 115.935 90.2944 115.744 89.9557 115.405C89.6169 115.066 89.4263 114.607 89.4258 114.128V93.5035C89.4263 93.0243 89.6168 92.565 89.9556 92.2262C90.2944 91.8874 90.7537 91.6968 91.2328 91.6963H159.564C160.043 91.6968 160.502 91.8874 160.841 92.2262C161.18 92.565 161.37 93.0243 161.371 93.5035V114.128C161.37 114.607 161.18 115.066 160.841 115.405C160.502 115.744 160.043 115.935 159.564 115.935H99.2329C99.1169 115.935 99.0019 115.958 98.8947 116.002C98.7875 116.046 98.6902 116.112 98.6084 116.194L95.2009 119.601C95.0352 119.77 94.8378 119.903 94.6201 119.995C94.4024 120.086 94.1687 120.134 93.9325 120.134ZM91.2328 92.3124C90.917 92.3127 90.6143 92.4384 90.391 92.6617C90.1678 92.8849 90.0422 93.1877 90.0419 93.5035V114.128C90.0422 114.444 90.1677 114.747 90.391 114.97C90.6144 115.193 90.9171 115.319 91.2329 115.319C91.6304 115.32 92.0114 115.478 92.2924 115.759C92.5734 116.04 92.7315 116.421 92.7319 116.818V118.324C92.732 118.559 92.8019 118.79 92.9328 118.985C93.0637 119.181 93.2497 119.334 93.4673 119.424C93.6849 119.514 93.9244 119.538 94.1554 119.492C94.3864 119.446 94.5986 119.332 94.7651 119.166L98.1728 115.758C98.3117 115.619 98.4769 115.508 98.6588 115.433C98.8408 115.357 99.0359 115.319 99.2329 115.319H159.564C159.88 115.319 160.182 115.193 160.406 114.97C160.629 114.747 160.754 114.444 160.755 114.128V93.5035C160.754 93.1877 160.629 92.8849 160.406 92.6616C160.182 92.4383 159.879 92.3127 159.564 92.3124L91.2328 92.3124Z" fill="#3F3D56"/>
<path d="M153.692 101.34H98.2824C98.0708 101.34 97.8678 101.256 97.7181 101.107C97.5685 100.957 97.4844 100.754 97.4844 100.542C97.4844 100.331 97.5685 100.128 97.7181 99.9779C97.8678 99.8282 98.0708 99.7441 98.2824 99.7441H153.692C153.903 99.7441 154.106 99.8282 154.256 99.9779C154.406 100.128 154.49 100.331 154.49 100.542C154.49 100.754 154.406 100.957 154.256 101.107C154.106 101.256 153.903 101.34 153.692 101.34Z" fill="#5A2C7D"/>
<path d="M153.59 104.731H98.2824C98.0708 104.731 97.8678 104.647 97.7181 104.497C97.5685 104.347 97.4844 104.144 97.4844 103.933C97.4844 103.721 97.5685 103.518 97.7181 103.369C97.8678 103.219 98.0708 103.135 98.2824 103.135H153.59C153.802 103.135 154.005 103.219 154.154 103.369C154.304 103.518 154.388 103.721 154.388 103.933C154.388 104.144 154.304 104.347 154.154 104.497C154.005 104.647 153.802 104.731 153.59 104.731Z" fill="#E6E6E6"/>
<path d="M153.535 108.122H98.2824C98.0708 108.122 97.8678 108.037 97.7181 107.888C97.5685 107.738 97.4844 107.535 97.4844 107.323C97.4844 107.112 97.5685 106.909 97.7181 106.759C97.8678 106.609 98.0708 106.525 98.2824 106.525H153.535C153.746 106.525 153.949 106.609 154.099 106.759C154.249 106.909 154.333 107.112 154.333 107.323C154.333 107.535 154.249 107.738 154.099 107.888C153.949 108.037 153.746 108.122 153.535 108.122Z" fill="#E6E6E6"/>
<path d="M240.949 88.803C240.949 89.5515 240.924 90.3001 240.872 91.0424C240.817 91.9296 240.721 92.8106 240.592 93.6854C240.157 96.631 239.326 99.5043 238.121 102.227C238.06 102.363 237.998 102.498 237.936 102.634L237.844 102.837C237.813 102.905 237.779 102.973 237.748 103.037C237.705 103.127 237.665 103.213 237.622 103.299C237.57 103.407 237.517 103.515 237.462 103.623C237.456 103.635 237.45 103.65 237.44 103.666C237.394 103.758 237.351 103.848 237.302 103.94C237.293 103.96 237.282 103.98 237.271 103.998C237.219 104.103 237.163 104.211 237.108 104.316C237.046 104.427 236.988 104.541 236.926 104.652C236.778 104.926 236.624 105.197 236.467 105.468C236.421 105.548 236.375 105.628 236.325 105.708C236.282 105.782 236.239 105.856 236.193 105.93C236.162 105.979 236.131 106.032 236.1 106.081C236.051 106.164 236.002 106.244 235.95 106.327C235.836 106.509 235.719 106.691 235.605 106.872H235.601C235.549 106.956 235.494 107.039 235.438 107.119V107.122C235.275 107.368 235.106 107.615 234.936 107.858C234.936 107.858 234.935 107.858 234.935 107.858C234.935 107.859 234.934 107.859 234.934 107.859C234.934 107.859 234.933 107.86 234.933 107.86C234.933 107.86 234.933 107.861 234.933 107.861C234.797 108.058 234.656 108.249 234.517 108.44V108.443C234.425 108.564 234.335 108.687 234.243 108.807C234.169 108.905 234.092 109.007 234.015 109.106C234 109.127 233.981 109.146 233.966 109.167V109.17C233.944 109.198 233.923 109.223 233.901 109.25C233.575 109.669 233.238 110.079 232.891 110.48L232.835 110.544C232.817 110.566 232.795 110.587 232.777 110.612C232.746 110.646 232.718 110.68 232.687 110.714C232.66 110.748 232.629 110.781 232.598 110.815C230.789 112.853 228.738 114.662 226.49 116.203C226.191 116.409 225.886 116.61 225.581 116.804C225.504 116.853 225.427 116.902 225.35 116.948C225.328 116.964 225.304 116.979 225.282 116.995C225.239 117.019 225.199 117.044 225.156 117.072C225.116 117.096 225.076 117.121 225.033 117.145C224.869 117.247 224.703 117.346 224.537 117.444C224.497 117.469 224.454 117.494 224.41 117.518C224.37 117.54 224.327 117.564 224.284 117.589C224.284 117.592 224.284 117.592 224.281 117.592H224.278V117.595H224.275C224.069 117.715 223.859 117.832 223.647 117.946C223.533 118.008 223.416 118.073 223.298 118.131C223.034 118.276 222.766 118.415 222.498 118.547C222.402 118.593 222.303 118.639 222.208 118.689C222.128 118.726 222.048 118.766 221.968 118.803C221.943 118.815 221.922 118.824 221.9 118.837C221.832 118.867 221.768 118.898 221.7 118.929C221.626 118.963 221.552 118.997 221.481 119.031C221.398 119.068 221.318 119.105 221.235 119.139C220.927 119.277 220.615 119.41 220.304 119.536C219.189 119.993 218.05 120.388 216.891 120.719C216.839 120.734 216.783 120.75 216.728 120.765C216.232 120.904 215.733 121.03 215.231 121.144C214.353 121.347 213.467 121.513 212.573 121.643H212.566C212.459 121.658 212.354 121.674 212.246 121.689C212.237 121.689 212.228 121.692 212.215 121.692C212.215 121.695 212.215 121.695 212.212 121.692C212.095 121.708 211.975 121.723 211.858 121.738C211.85 121.741 211.842 121.742 211.833 121.741C211.722 121.757 211.608 121.769 211.498 121.781C211.377 121.794 211.257 121.806 211.137 121.818C211.045 121.828 210.952 121.837 210.86 121.846C210.852 121.849 210.844 121.85 210.835 121.849C210.752 121.855 210.669 121.865 210.586 121.871H210.573C210.503 121.877 210.429 121.883 210.358 121.889C209.498 121.957 208.636 121.988 207.761 121.988C206.815 121.988 205.876 121.951 204.949 121.871H204.939C204.739 121.852 204.542 121.834 204.345 121.815C204.293 121.809 204.243 121.806 204.191 121.8C204.182 121.8 204.169 121.797 204.16 121.797C204.145 121.794 204.129 121.794 204.111 121.791C204.102 121.791 204.094 121.79 204.086 121.788C204.018 121.781 203.951 121.772 203.88 121.766L203.649 121.738C203.572 121.729 203.495 121.717 203.418 121.708C203.399 121.704 203.384 121.704 203.365 121.701C203.31 121.695 203.254 121.686 203.199 121.677C203.171 121.674 203.144 121.671 203.119 121.667C203.063 121.658 203.011 121.652 202.956 121.643H202.953C201.262 121.4 199.594 121.024 197.962 120.519C197.876 120.491 197.79 120.466 197.704 120.438C197.701 120.438 197.697 120.435 197.694 120.435C197.67 120.426 197.642 120.42 197.617 120.411C197.386 120.337 197.158 120.26 196.93 120.18C196.616 120.075 196.305 119.961 195.994 119.844C195.911 119.81 195.828 119.779 195.745 119.745C195.575 119.681 195.409 119.613 195.242 119.545C194.959 119.431 194.676 119.311 194.395 119.188C194.133 119.071 193.875 118.954 193.616 118.83C193.61 118.827 193.601 118.827 193.594 118.821C193.536 118.794 193.477 118.766 193.422 118.738H193.419C192 118.057 190.632 117.276 189.325 116.4C188.906 116.12 188.493 115.83 188.087 115.531C187.76 115.288 187.44 115.042 187.119 114.789C185.539 113.532 184.076 112.134 182.748 110.612V110.609C182.653 110.504 182.564 110.396 182.471 110.289C182.456 110.273 182.443 110.258 182.431 110.245C182.373 110.175 182.317 110.107 182.259 110.039V110.036C182.182 109.947 182.105 109.854 182.031 109.762C182.012 109.74 181.997 109.722 181.981 109.703V109.7C181.92 109.626 181.861 109.552 181.8 109.475C181.769 109.438 181.741 109.401 181.71 109.364V109.361C181.529 109.133 181.353 108.906 181.177 108.671C181.131 108.61 181.085 108.545 181.036 108.48C180.814 108.182 180.598 107.877 180.389 107.572V107.569C180.309 107.455 180.232 107.338 180.152 107.224C180.075 107.107 179.998 106.99 179.921 106.872C179.844 106.749 179.764 106.629 179.687 106.506L179.677 106.487C179.6 106.37 179.523 106.247 179.449 106.127C179.391 106.028 179.332 105.933 179.274 105.837C179.237 105.773 179.197 105.708 179.16 105.64C179.145 105.619 179.132 105.598 179.12 105.576C179.033 105.425 178.947 105.274 178.861 105.123C178.759 104.947 178.661 104.769 178.562 104.59C178.525 104.516 178.485 104.442 178.445 104.368C178.43 104.343 178.417 104.319 178.405 104.294C178.359 104.208 178.313 104.119 178.27 104.029C178.223 103.943 178.177 103.854 178.131 103.764C178.088 103.678 178.042 103.589 177.998 103.499C177.965 103.432 177.934 103.364 177.9 103.296C177.898 103.291 177.894 103.285 177.891 103.281C177.875 103.247 177.86 103.216 177.848 103.185C177.844 103.181 177.841 103.175 177.838 103.17C177.804 103.102 177.774 103.031 177.74 102.963C177.697 102.874 177.657 102.782 177.613 102.692C177.586 102.631 177.555 102.566 177.527 102.501C177.487 102.412 177.444 102.323 177.407 102.23C177.364 102.138 177.324 102.046 177.284 101.95C177.272 101.927 177.262 101.903 177.253 101.879C177.231 101.836 177.216 101.793 177.198 101.75C177.148 101.636 177.099 101.519 177.053 101.405C176.997 101.275 176.945 101.143 176.896 101.014C176.846 100.893 176.8 100.77 176.754 100.647L176.736 100.604C176.018 98.7135 175.473 96.7618 175.109 94.7728V94.7697C174.904 93.6341 174.757 92.4888 174.669 91.3382C174.665 91.2735 174.659 91.2119 174.656 91.1503C174.601 90.3709 174.576 89.5885 174.576 88.803C174.576 88.4549 174.582 88.1099 174.592 87.7649C174.807 80.5496 177.38 73.6033 181.917 67.9889C182.015 67.8657 182.114 67.7425 182.215 67.6193C182.317 67.4961 182.422 67.3759 182.524 67.2558C185.9 63.3013 190.159 60.1955 194.956 58.1889C199.754 56.1822 204.956 55.3309 210.142 55.7035C215.329 56.0761 220.356 57.6621 224.817 60.3338C229.278 63.0055 233.049 66.6881 235.826 71.0847C235.977 71.325 236.128 71.5683 236.273 71.8117C236.421 72.0581 236.563 72.3045 236.704 72.5541C239.495 77.5144 240.957 83.1115 240.949 88.803Z" fill="#FBFBFB"/>
<path d="M209.081 67.0965C203.624 68.4967 198.032 69.3039 192.401 69.5039C191.55 69.5503 190.696 69.5444 189.846 69.4865C187.976 69.3293 186.375 68.7417 184.592 68.4206C183.734 68.2667 182.779 68.1541 181.916 67.9878C182.115 67.7403 182.318 67.4959 182.525 67.2545C184.386 67.4118 186.276 67.9265 188.16 68.1657C191.362 68.5729 194.949 68.1185 197.377 66.998C198.554 66.4543 199.456 65.7757 200.63 65.2295C200.789 65.1475 200.962 65.0946 201.14 65.0731C201.479 65.0629 201.813 65.1496 202.104 65.323C204.073 66.3169 206.931 67.1246 209.584 66.6802C209.782 66.835 209.406 67.0112 209.081 67.0965Z" fill="#FBFBFB"/>
<path d="M220.822 70.594C220.846 70.5896 220.871 70.5861 220.895 70.5819C220.793 70.5189 220.697 70.4467 220.608 70.3662L220.822 70.594Z" fill="#FBFBFB"/>
<path d="M236.705 72.5547C235.597 72.6433 234.483 72.7092 233.364 72.7525C232.512 72.7985 231.659 72.7927 230.808 72.7351C228.939 72.5771 227.337 71.9903 225.554 71.6692C223.919 71.3754 221.933 71.2339 220.896 70.5818C223.578 70.1175 226.357 71.0626 229.122 71.4143C231.36 71.6894 233.627 71.5774 235.827 71.0833C236.133 71.5649 236.426 72.0554 236.705 72.5547Z" fill="#FBFBFB"/>
<path d="M204.02 103.325C209.525 103.325 213.988 98.7627 213.988 93.1351C213.988 87.5074 209.525 82.9453 204.02 82.9453C198.515 82.9453 194.053 87.5074 194.053 93.1351C194.053 98.7627 198.515 103.325 204.02 103.325Z" fill="#FFB6B6"/>
<path d="M223.3 118.131C223.035 118.276 222.767 118.414 222.499 118.547C222.404 118.593 222.305 118.639 222.209 118.688C222.129 118.725 222.049 118.765 221.969 118.802C221.945 118.815 221.923 118.824 221.901 118.836C221.834 118.867 221.769 118.898 221.701 118.929C221.627 118.963 221.553 118.997 221.482 119.03C221.399 119.067 221.319 119.104 221.236 119.138C220.928 119.277 220.617 119.409 220.306 119.536C219.191 119.993 218.051 120.388 216.893 120.718C216.84 120.734 216.785 120.749 216.729 120.765C216.234 120.903 215.735 121.03 215.232 121.144C214.355 121.347 213.468 121.513 212.574 121.643H212.568C212.46 121.658 212.355 121.673 212.248 121.689C212.238 121.689 212.229 121.692 212.217 121.692C212.217 121.695 212.217 121.695 212.214 121.692C212.097 121.707 211.976 121.723 211.859 121.738C211.851 121.74 211.843 121.741 211.835 121.741C211.724 121.757 211.61 121.769 211.499 121.781C211.379 121.793 211.259 121.806 211.139 121.818C211.046 121.827 210.954 121.837 210.861 121.846C210.853 121.849 210.845 121.85 210.837 121.849C210.754 121.855 210.67 121.864 210.587 121.871H210.575C210.504 121.877 210.43 121.883 210.359 121.889C209.5 121.957 208.637 121.988 207.763 121.988C206.817 121.988 205.877 121.951 204.95 121.871H204.941C204.741 121.852 204.544 121.834 204.346 121.815C204.294 121.809 204.245 121.806 204.192 121.8C204.183 121.8 204.171 121.797 204.162 121.797C204.146 121.794 204.131 121.794 204.112 121.79C204.104 121.791 204.096 121.79 204.088 121.787C204.02 121.781 203.952 121.772 203.881 121.766L203.65 121.738C203.573 121.729 203.496 121.716 203.419 121.707C203.401 121.704 203.385 121.704 203.367 121.701C203.311 121.695 203.256 121.686 203.2 121.676C203.173 121.673 203.145 121.67 203.12 121.667C203.065 121.658 203.013 121.652 202.957 121.643H202.954C201.264 121.399 199.595 121.023 197.964 120.518C197.878 120.491 197.791 120.466 197.705 120.438C198.103 118.583 198.922 116.845 200.098 115.357C201.275 113.869 202.778 112.671 204.491 111.856C204.067 111.453 203.774 110.931 203.65 110.359C203.57 109.991 203.564 109.61 203.632 109.239C203.699 108.868 203.84 108.513 204.044 108.197C204.444 107.583 205.071 107.153 205.788 107.002L210.353 106.047C211.088 105.903 211.85 106.056 212.473 106.471C213.096 106.887 213.529 107.531 213.68 108.265C213.726 108.489 213.747 108.719 213.741 108.948C218.137 111.875 221.301 114.909 223.3 118.131Z" fill="#5A2C7D"/>
<path d="M230.693 88.7155C228.999 86.7397 228.193 84.1183 226.839 81.8746C225.484 79.631 223.127 77.6229 220.637 78.145C218.921 78.505 217.594 80.0197 216.923 81.7083C216.251 83.397 216.125 85.2592 216.008 87.0836C216.049 83.3345 213.579 79.6999 210.177 78.5036C206.774 77.3073 202.702 78.6417 200.564 81.6537C199.631 80.7889 198.413 80.2965 197.142 80.2698C195.87 80.2431 194.632 80.684 193.664 81.5088C191.751 83.2181 191.328 86.4713 192.735 88.6514C194.141 90.8316 197.187 91.6437 199.422 90.4346L200.212 91.1615C199.767 92.7171 200.63 94.5547 202.08 95.1403C203.256 95.6152 204.915 95.5361 205.355 96.77C205.663 97.6321 205.088 98.5523 204.477 99.2148C203.866 99.8773 203.14 100.561 203.067 101.478C202.956 102.861 204.385 103.83 205.684 104.122C208.818 104.826 212.294 103.375 214.1 100.61C214.135 100.557 214.173 100.503 214.213 100.45C215.227 99.154 215.965 97.6654 216.383 96.0747C216.802 94.4841 216.892 92.8248 216.647 91.1983C216.546 90.5592 216.648 90.0839 217.089 89.9325C218.993 89.2783 224.329 90.6513 225.944 91.8922C227.558 93.1331 228.852 94.7753 230.407 96.0963C231.963 97.4172 233.945 98.4362 235.92 98.0765C237.501 97.7884 238.847 96.64 239.752 95.2548C240.657 93.8697 241.178 92.2551 241.645 90.6505C238.147 92.6711 233.36 91.8253 230.693 88.7155Z" fill="#2F2E41"/>
<path d="M26.0752 68.1643C26.0752 68.9128 26.0999 69.6614 26.1522 70.4037C26.2077 71.2909 26.3032 72.1719 26.4326 73.0467C26.8673 75.9923 27.6984 78.8656 28.903 81.5886C28.9646 81.7241 29.0262 81.8597 29.0878 81.9952L29.1802 82.1985C29.211 82.2663 29.2449 82.334 29.2757 82.3987C29.3189 82.488 29.3589 82.5743 29.402 82.6606C29.4544 82.7684 29.5068 82.8762 29.5622 82.984C29.5684 82.9963 29.5745 83.0117 29.5838 83.0271C29.63 83.1195 29.6731 83.2089 29.7224 83.3013C29.7314 83.3214 29.7417 83.3409 29.7532 83.3598C29.8056 83.4645 29.861 83.5723 29.9165 83.6771C29.9781 83.788 30.0366 83.9019 30.0982 84.0128C30.2461 84.287 30.4001 84.5581 30.5572 84.8291C30.6034 84.9092 30.6496 84.9893 30.6989 85.0694C30.742 85.1433 30.7851 85.2173 30.8313 85.2912C30.8621 85.3405 30.8929 85.3928 30.9237 85.4421C30.973 85.5253 31.0223 85.6054 31.0747 85.6886C31.1886 85.8703 31.3057 86.052 31.4197 86.2338H31.4228C31.4751 86.317 31.5306 86.4001 31.586 86.4802V86.4833C31.7493 86.7297 31.9187 86.9762 32.0881 87.2195C32.0885 87.2195 32.0889 87.2196 32.0893 87.2197C32.0897 87.2199 32.09 87.2201 32.0903 87.2204C32.0906 87.2207 32.0908 87.221 32.091 87.2214C32.0911 87.2218 32.0912 87.2222 32.0912 87.2226C32.2267 87.4197 32.3684 87.6107 32.507 87.8017V87.8048C32.5995 87.9249 32.6888 88.0481 32.7812 88.1682C32.8551 88.2668 32.9321 88.3685 33.0091 88.467C33.0245 88.4886 33.043 88.5071 33.0584 88.5286V88.5317C33.08 88.5594 33.1016 88.5841 33.1231 88.6118C33.4496 89.0307 33.7864 89.4404 34.1335 89.8409L34.1889 89.9056C34.2074 89.9271 34.229 89.9487 34.2475 89.9733C34.2783 90.0072 34.306 90.0411 34.3368 90.075C34.3645 90.1089 34.3953 90.1428 34.4261 90.1766C36.2352 92.2146 38.2866 94.0238 40.5345 95.5642C40.8333 95.7706 41.1382 95.9708 41.4432 96.1649C41.5202 96.2142 41.5972 96.2635 41.6742 96.3097C41.6958 96.3251 41.7204 96.3405 41.742 96.3559C41.7851 96.3805 41.8252 96.4052 41.8683 96.4329C41.9083 96.4575 41.9484 96.4822 41.9915 96.5068C42.1548 96.6085 42.3211 96.707 42.4875 96.8056C42.5275 96.8303 42.5706 96.8549 42.6138 96.8796C42.6538 96.9011 42.6969 96.9258 42.74 96.9504C42.74 96.9535 42.74 96.9535 42.7431 96.9535H42.7462V96.9566H42.7493C42.9557 97.0767 43.1651 97.1937 43.3777 97.3077C43.4917 97.3693 43.6087 97.434 43.7258 97.4925C43.9907 97.6373 44.2587 97.7759 44.5267 97.9084C44.6222 97.9546 44.7207 98.0008 44.8162 98.0501C44.8963 98.087 44.9764 98.1271 45.0565 98.1641C45.0811 98.1764 45.1027 98.1856 45.1243 98.1979C45.192 98.2287 45.2567 98.2595 45.3245 98.2904C45.3984 98.3243 45.4723 98.3581 45.5432 98.392C45.6264 98.429 45.7064 98.4659 45.7896 98.4998C46.0977 98.6384 46.4088 98.7709 46.7199 98.8972C47.8348 99.3542 48.9743 99.7491 50.1329 100.08C50.1853 100.095 50.2407 100.111 50.2962 100.126C50.7922 100.265 51.2912 100.391 51.7933 100.505C52.6712 100.708 53.5573 100.875 54.4516 101.004H54.4578C54.5656 101.02 54.6703 101.035 54.7782 101.05C54.7874 101.05 54.7966 101.053 54.809 101.053C54.809 101.057 54.809 101.057 54.812 101.053C54.9291 101.069 55.0492 101.084 55.1663 101.1C55.1743 101.102 55.1826 101.103 55.1909 101.103C55.3018 101.118 55.4158 101.13 55.5267 101.143C55.6468 101.155 55.7669 101.167 55.8871 101.18C55.9795 101.189 56.0719 101.198 56.1643 101.207C56.1722 101.21 56.1806 101.211 56.189 101.211C56.2721 101.217 56.3553 101.226 56.4385 101.232H56.4508C56.5217 101.238 56.5956 101.244 56.6664 101.251C57.5258 101.318 58.3884 101.349 59.2632 101.349C60.2089 101.349 61.1484 101.312 62.0756 101.232H62.0848C62.285 101.214 62.4822 101.195 62.6793 101.177C62.7317 101.171 62.781 101.167 62.8333 101.161C62.8426 101.161 62.8549 101.158 62.8641 101.158C62.8795 101.155 62.8949 101.155 62.9134 101.152C62.9217 101.152 62.9301 101.151 62.9381 101.149C63.0058 101.143 63.0736 101.134 63.1444 101.127L63.3755 101.1C63.4525 101.09 63.5295 101.078 63.6065 101.069C63.625 101.066 63.6404 101.066 63.6589 101.063C63.7143 101.057 63.7698 101.047 63.8252 101.038C63.8529 101.035 63.8807 101.032 63.9053 101.029C63.9607 101.02 64.0131 101.013 64.0686 101.004H64.0716C65.762 100.761 67.4305 100.385 69.0619 99.8798C69.1481 99.8521 69.2343 99.8275 69.3206 99.7998C69.3237 99.7998 69.3268 99.7967 69.3298 99.7967C69.3545 99.7874 69.3822 99.7813 69.4068 99.772C69.6379 99.6981 69.8658 99.6211 70.0938 99.541C70.408 99.4363 70.7191 99.3223 71.0302 99.2052C71.1134 99.1714 71.1965 99.1405 71.2797 99.1067C71.4491 99.042 71.6155 98.9742 71.7818 98.9064C72.0652 98.7925 72.3486 98.6723 72.6289 98.5491C72.8908 98.4321 73.1495 98.315 73.4083 98.1918C73.4144 98.1887 73.4237 98.1887 73.4298 98.1826C73.4883 98.1548 73.5469 98.1271 73.6023 98.0994H73.6054C75.024 97.4186 76.3921 96.6373 77.6992 95.7614C78.1181 95.4811 78.5309 95.1915 78.9375 94.8927C79.264 94.6494 79.5844 94.4029 79.9048 94.1503C81.4852 92.8932 82.9482 91.4951 84.2758 89.9734V89.9703C84.3713 89.8655 84.4606 89.7577 84.553 89.6499C84.5684 89.6345 84.5808 89.6191 84.5931 89.6068C84.6516 89.5359 84.7071 89.4682 84.7656 89.4004V89.3973C84.8426 89.308 84.9196 89.2156 84.9935 89.1232C85.012 89.1016 85.0274 89.0832 85.0428 89.0647V89.0616C85.1044 88.9876 85.1629 88.9137 85.2246 88.8367C85.2554 88.7997 85.2831 88.7628 85.3139 88.7258V88.7227C85.4956 88.4948 85.6712 88.2668 85.8468 88.0327C85.893 87.9711 85.9392 87.9064 85.9885 87.8417C86.2103 87.5429 86.4259 87.238 86.6354 86.933V86.93C86.7155 86.816 86.7925 86.6989 86.8726 86.585C86.9496 86.4679 87.0266 86.3508 87.1036 86.2338C87.1806 86.1106 87.2607 85.9905 87.3377 85.8672L87.3469 85.8488C87.424 85.7317 87.501 85.6085 87.5749 85.4883C87.6334 85.3898 87.6919 85.2943 87.7505 85.1988C87.7874 85.1341 87.8275 85.0694 87.8644 85.0017C87.8789 84.9808 87.8923 84.9592 87.9045 84.937C87.9907 84.786 88.077 84.6351 88.1632 84.4841C88.2649 84.3086 88.3635 84.1299 88.462 83.9512C88.499 83.8773 88.539 83.8034 88.5791 83.7295C88.5945 83.7048 88.6068 83.6802 88.6191 83.6555C88.6653 83.5693 88.7115 83.48 88.7547 83.3906C88.8009 83.3044 88.8471 83.215 88.8933 83.1257C88.9364 83.0395 88.9826 82.9501 89.0257 82.8608C89.0596 82.793 89.0904 82.7253 89.1243 82.6575C89.1267 82.652 89.1298 82.6468 89.1336 82.6421C89.149 82.6082 89.1644 82.5774 89.1767 82.5466C89.1804 82.5419 89.1836 82.5367 89.1859 82.5312C89.2198 82.4634 89.2506 82.3926 89.2845 82.3248C89.3276 82.2355 89.3677 82.1431 89.4108 82.0537C89.4385 81.9921 89.4693 81.9274 89.497 81.8628C89.5371 81.7734 89.5802 81.6841 89.6172 81.5917C89.6603 81.4993 89.7004 81.4069 89.7404 81.3114C89.7519 81.2883 89.7622 81.2647 89.7712 81.2405C89.7928 81.1974 89.8082 81.1543 89.8266 81.1111C89.8759 80.9972 89.9252 80.8801 89.9714 80.7661C90.0269 80.6368 90.0792 80.5043 90.1285 80.3749C90.1778 80.2548 90.224 80.1316 90.2702 80.0084L90.2887 79.9652C91.0064 78.0748 91.5508 76.1231 91.9151 74.1341V74.131C92.1206 72.9955 92.2676 71.8501 92.3556 70.6995C92.3587 70.6348 92.3649 70.5732 92.368 70.5116C92.4234 69.7322 92.448 68.9498 92.448 68.1643C92.448 67.8163 92.4419 67.4713 92.4326 67.1263C92.2176 59.9109 89.6447 52.9647 85.1075 47.3503C85.0089 47.227 84.9104 47.1038 84.8087 46.9806C84.7071 46.8574 84.6023 46.7373 84.5007 46.6171C81.1239 42.6626 76.8651 39.5568 72.0678 37.5502C67.2704 35.5436 62.0687 34.6922 56.8819 35.0648C51.6952 35.4374 46.6685 37.0235 42.2072 39.6952C37.7459 42.3669 33.9748 46.0494 31.1979 50.446C31.047 50.6863 30.896 50.9297 30.7513 51.173C30.6034 51.4194 30.4617 51.6659 30.32 51.9154C27.5294 56.8758 26.0672 62.4728 26.0752 68.1643Z" fill="#FBFBFB"/>
<path d="M57.9448 46.4578C63.4019 47.8581 68.9942 48.6652 74.6245 48.8652C75.4759 48.9116 76.3293 48.9058 77.18 48.8478C79.0495 48.6906 80.6508 48.103 82.4343 47.7819C83.2916 47.628 84.2466 47.5154 85.1098 47.3491C84.9103 47.1016 84.7073 46.8572 84.5007 46.6159C82.6395 46.7731 80.7493 47.2879 78.8658 47.527C75.6639 47.9342 72.0764 47.4798 69.6491 46.3593C68.4715 45.8156 67.5694 45.137 66.3959 44.5908C66.2363 44.5089 66.0635 44.4559 65.8853 44.4344C65.547 44.4242 65.2128 44.5109 64.922 44.6843C62.9533 45.6782 60.0948 46.4859 57.4416 46.0415C57.2438 46.1963 57.6196 46.3726 57.9448 46.4578Z" fill="#FBFBFB"/>
<path d="M46.2035 49.9544C46.1793 49.9499 46.1551 49.9465 46.1309 49.9423C46.2326 49.8792 46.3285 49.807 46.4172 49.7266L46.2035 49.9544Z" fill="#FBFBFB"/>
<path d="M30.3213 51.917C31.4294 52.0056 32.5433 52.0715 33.663 52.1148C34.5144 52.1608 35.3678 52.155 36.2186 52.0974C38.088 51.9394 39.6894 51.3526 41.4728 51.0315C43.1072 50.7377 45.0934 50.5962 46.1312 49.9441C43.449 49.4798 40.6701 50.4249 37.9043 50.7766C35.6672 51.0517 33.3993 50.9397 31.2002 50.4456C30.894 50.9272 30.601 51.4177 30.3213 51.917Z" fill="#FBFBFB"/>
<path d="M43.7256 97.4932C43.9905 97.638 44.2585 97.7766 44.5265 97.9091C44.622 97.9553 44.7205 98.0015 44.816 98.0508C44.8961 98.0878 44.9762 98.1278 45.0563 98.1648C45.081 98.1771 45.1025 98.1863 45.1241 98.1987C45.1918 98.2295 45.2565 98.2603 45.3243 98.2911C45.3982 98.325 45.4722 98.3588 45.543 98.3927C45.6262 98.4297 45.7063 98.4666 45.7894 98.5005C46.0975 98.6391 46.4086 98.7716 46.7197 98.8979C47.8347 99.3549 48.9741 99.7498 50.1328 100.081C50.1851 100.096 50.2406 100.112 50.296 100.127C50.792 100.266 51.291 100.392 51.7931 100.506C52.671 100.709 53.5571 100.876 54.4515 101.005H54.4576C54.5654 101.02 54.6702 101.036 54.778 101.051C54.7872 101.051 54.7965 101.054 54.8088 101.054C54.8088 101.057 54.8088 101.057 54.8119 101.054C54.9289 101.07 55.0491 101.085 55.1661 101.1C55.1741 101.103 55.1824 101.104 55.1908 101.103C55.3016 101.119 55.4156 101.131 55.5265 101.143C55.6466 101.156 55.7668 101.168 55.8869 101.18C55.9793 101.19 56.0717 101.199 56.1642 101.208C56.1721 101.211 56.1805 101.212 56.1888 101.211C56.272 101.217 56.3551 101.227 56.4383 101.233H56.4506C56.5215 101.239 56.5954 101.245 56.6663 101.251C57.5257 101.319 58.3882 101.35 59.263 101.35C60.2087 101.35 61.1482 101.313 62.0754 101.233H62.0846C62.2849 101.214 62.482 101.196 62.6791 101.177C62.7315 101.171 62.7808 101.168 62.8332 101.162C62.8424 101.162 62.8547 101.159 62.864 101.159C62.8794 101.156 62.8948 101.156 62.9133 101.153C62.9216 101.153 62.9299 101.152 62.9379 101.15C63.0057 101.143 63.0734 101.134 63.1443 101.128L63.3753 101.1C63.4523 101.091 63.5293 101.079 63.6063 101.07C63.6248 101.066 63.6402 101.066 63.6587 101.063C63.7141 101.057 63.7696 101.048 63.825 101.039C63.8528 101.036 63.8805 101.033 63.9051 101.03C63.9606 101.02 64.0129 101.014 64.0684 101.005H64.0715C65.7618 100.762 67.4303 100.386 69.0617 99.8806C69.1479 99.8528 69.2342 99.8282 69.3204 99.8005C68.9227 97.9456 68.1039 96.207 66.9272 94.7189C65.7506 93.2309 64.2476 92.0332 62.5344 91.2185C62.9581 90.8149 63.251 90.2934 63.3753 89.7215C63.4553 89.3528 63.4616 88.972 63.3939 88.6009C63.3263 88.2298 63.186 87.8758 62.981 87.5591C62.5813 86.9453 61.9542 86.5154 61.2375 86.3639L56.6724 85.409C55.9375 85.2657 55.1758 85.4183 54.5528 85.8336C53.9299 86.2489 53.496 86.8934 53.3456 87.6268C53.299 87.8517 53.2784 88.0811 53.284 88.3107C48.8883 91.237 45.7247 94.2712 43.7256 97.4932Z" fill="#5A2C7D"/>
<path d="M61.7857 82.3263C67.9226 82.3263 72.8976 77.3513 72.8976 71.2144C72.8976 65.0775 67.9226 60.1025 61.7857 60.1025C55.6488 60.1025 50.6738 65.0775 50.6738 71.2144C50.6738 77.3513 55.6488 82.3263 61.7857 82.3263Z" fill="#9E616A"/>
<path d="M60.2059 81.7324C57.4241 82.4837 54.3572 81.4848 52.1862 79.5901C50.0152 77.6953 48.6572 75.0105 47.8747 72.2372C47.3017 70.2062 47.0299 67.9516 47.9343 66.0448C48.8386 64.138 51.2725 62.8516 53.1503 63.8147C51.9919 62.4651 52.5706 60.233 53.9235 59.0784C55.2764 57.9239 57.1341 57.5929 58.9034 57.412C61.4712 57.1494 64.1236 57.12 66.567 57.9519C69.0105 58.7837 71.2306 60.6025 71.9953 63.0678C72.7763 63.4314 73.6559 63.5258 74.4963 63.336C75.3367 63.1463 76.0904 62.6832 76.6395 62.0192C76.781 62.7818 76.6673 63.5697 76.316 64.2611C75.9646 64.9526 75.3952 65.5089 74.6958 65.8442L78.4396 64.6304C79.0835 65.9932 77.9553 67.68 76.5126 68.1164C75.0699 68.5528 73.5125 68.0758 72.1434 67.4453C70.7744 66.8147 69.4476 66.0176 67.9605 65.7717C66.4734 65.5258 64.7266 66.0036 64.0388 67.3448C63.6785 68.0472 63.6597 68.87 63.4505 69.6312C63.2414 70.3924 62.7115 71.1817 61.9245 71.244C61.4273 71.2834 60.9404 71.0185 60.4446 71.0727C60.1403 71.1326 59.8601 71.2799 59.6383 71.4967C59.4165 71.7134 59.2627 71.9901 59.1957 72.2929C59.0723 72.9006 59.0707 73.5267 59.1913 74.135L60.1423 81.404L60.2059 81.7324Z" fill="#2F2E41"/>
</g>
<defs>
<clipPath id="clip0_582_1142">
<rect width="249.307" height="194.025" fill="white" transform="translate(0.5625 0.65918)"/>
</clipPath>
</defs>
</svg>
