<svg width="100" height="77" viewBox="0 0 100 77" fill="none" xmlns="http://www.w3.org/2000/svg">
<g opacity="0.2" clip-path="url(#clip0_582_982)">
<path d="M67.8697 76.6633C67.7722 76.7465 67.6716 76.8276 67.57 76.9076H55.2295C55.1587 76.8276 55.0878 76.7465 55.018 76.6633C54.4483 75.98 53.9467 75.2425 53.5204 74.4615C52.5073 72.6364 52.1582 70.2437 52.1582 67.8068C52.1582 67.6579 52.1593 67.5091 52.1623 67.3602C52.1736 66.6766 52.2116 65.9919 52.2681 65.3185C52.2783 65.2015 52.2886 65.0855 52.2999 64.9695C52.3913 64.0036 52.5196 63.0633 52.6653 62.1847C52.6838 62.0728 52.7023 61.9619 52.7218 61.8521C53.0188 60.1069 53.4171 58.3806 53.9146 56.6816C53.9146 56.6816 53.931 56.6858 53.9628 56.694C54.0542 56.7196 54.2728 56.7802 54.5941 56.8756C55.4789 57.1384 57.1408 57.6681 59.0573 58.4554C59.162 58.4975 59.2677 58.5416 59.3745 58.5868C60.9958 59.2552 62.5652 60.0434 64.0696 60.9447C64.163 61.0011 64.2554 61.0586 64.3478 61.1161V61.1243L64.1456 67.6702L65.9522 62.2206C66.3207 62.5008 66.6728 62.7913 67.0085 63.0921C67.1009 63.1742 67.1933 63.2584 67.2826 63.3456C68.0452 64.0446 68.696 64.8564 69.2124 65.7528C71.9151 70.6255 70.7809 74.208 67.8697 76.6633Z" fill="#FBFBFB"/>
<path d="M66.1294 76.9074H65.8009C65.7988 76.8263 65.7958 76.7452 65.7906 76.6631C65.6582 74.2005 64.602 71.4814 63.1638 68.8566C63.1125 68.7612 63.0602 68.6637 63.0047 68.5682C62.3067 67.32 61.5286 66.0984 60.7249 64.9375C60.6633 64.8471 60.5996 64.7558 60.536 64.6655C59.4664 63.1391 58.3619 61.7266 57.3641 60.5205C57.2943 60.4343 57.2225 60.3501 57.1517 60.2669C55.6725 58.4932 54.452 57.2008 53.9623 56.6937C53.8895 56.6188 53.833 56.5613 53.794 56.5213C53.7581 56.4823 53.7365 56.4617 53.7324 56.4576L53.8474 56.3427L53.8484 56.3396L53.9654 56.2246C53.9695 56.2297 54.0404 56.2975 54.1656 56.4279C54.2713 56.5356 54.416 56.6865 54.5937 56.8754C55.2137 57.5324 56.2391 58.6502 57.4257 60.0678C57.4945 60.1499 57.5653 60.2351 57.6361 60.3203C58.4461 61.2986 59.3237 62.4072 60.1932 63.5989C60.4118 63.8987 60.6239 64.196 60.8296 64.491C60.8942 64.5813 60.9579 64.6716 61.0195 64.762C61.8889 66.0163 62.6482 67.2228 63.2973 68.3814L63.4594 68.6719C65.1142 71.6897 66.0052 74.3627 66.1201 76.6631C66.1242 76.7452 66.1273 76.8263 66.1294 76.9074Z" fill="#FBFBFB"/>
<path d="M59.2378 58.2148C59.1793 58.2959 59.1198 58.376 59.0572 58.455C58.5864 59.0617 58.038 59.6039 57.426 60.0677C57.3367 60.1334 57.2454 60.2011 57.152 60.2668C56.8972 60.4446 56.6334 60.609 56.3616 60.7595C55.2418 61.3832 53.9998 61.7558 52.7216 61.8517C52.6806 61.8558 52.6385 61.8589 52.5974 61.8609C52.5789 61.9708 52.5615 62.0806 52.542 62.1925C52.583 62.1904 52.6241 62.1884 52.6652 62.1843C54.019 62.0961 55.3363 61.708 56.5217 61.048C56.8117 60.8871 57.0931 60.711 57.3644 60.5203C57.4568 60.4557 57.5471 60.3879 57.6365 60.3202C58.291 59.823 58.8756 59.2398 59.3743 58.5864C59.4339 58.5074 59.4924 58.4273 59.5499 58.3473C59.4431 58.3021 59.3394 58.258 59.2378 58.2148Z" fill="#FBFBFB"/>
<path d="M64.1814 60.7129C64.1455 60.7909 64.1075 60.8679 64.0695 60.9449C63.3376 62.4033 62.2164 63.6308 60.8299 64.4914C60.7334 64.552 60.6359 64.6105 60.5363 64.6659C60.5066 64.6834 60.4748 64.7018 60.445 64.7183C59.2055 65.406 57.8197 65.7877 56.4029 65.8315C54.9861 65.8752 53.5793 65.5798 52.2998 64.9697C52.2689 64.9554 52.2392 64.941 52.2094 64.9266C52.1981 65.0437 52.1879 65.1607 52.1797 65.2787C52.2084 65.2921 52.2382 65.3064 52.2679 65.3188C53.5842 65.9255 55.025 66.2135 56.4733 66.1593C57.9217 66.1051 59.3369 65.7102 60.6041 65.0067C60.6451 64.9841 60.6852 64.9615 60.7252 64.9379C60.8248 64.8804 60.9233 64.8219 61.0198 64.7624C62.4407 63.8767 63.5917 62.6185 64.3477 61.1245C64.3877 61.0475 64.4257 60.9695 64.4627 60.8905C64.3693 60.8309 64.2759 60.7714 64.1814 60.7129Z" fill="#FBFBFB"/>
<path d="M67.0624 62.8594C67.0449 62.9374 67.0275 63.0154 67.008 63.0924C66.4799 65.2593 65.1551 67.1479 63.2972 68.3819C63.2017 68.4466 63.1032 68.5082 63.0047 68.5687C62.8989 68.6324 62.7932 68.696 62.6844 68.7555C61.0124 69.681 59.0874 70.045 57.193 69.7938C55.2985 69.5427 53.5349 68.6897 52.1618 67.3605C52.1382 67.339 52.1156 67.3164 52.093 67.2938C52.093 67.4468 52.092 67.5977 52.0941 67.7496C52.1146 67.7691 52.1361 67.7886 52.1577 67.8071C53.5873 69.1023 55.3863 69.9179 57.3027 70.1397C59.219 70.3615 61.1568 69.9784 62.8445 69.044C62.9533 68.9845 63.0601 68.9229 63.1637 68.8572C63.2643 68.7976 63.3619 68.736 63.4594 68.6724C65.3437 67.4258 66.7041 65.5301 67.282 63.3459C67.3015 63.272 67.321 63.1981 67.3385 63.1232C67.2492 63.0328 67.1558 62.9477 67.0624 62.8594Z" fill="#FBFBFB"/>
<path d="M58.457 46.1431H0V2.28516H58.457V46.1431Z" fill="#FBFBFB"/>
<path d="M14.1648 11.4389C15.4499 11.4389 16.4917 10.3971 16.4917 9.11204C16.4917 7.82694 15.4499 6.78516 14.1648 6.78516C12.8797 6.78516 11.8379 7.82694 11.8379 9.11204C11.8379 10.3971 12.8797 11.4389 14.1648 11.4389Z" fill="#FBFBFB"/>
<path d="M19.5385 7.56055C19.4358 7.56073 19.3373 7.60167 19.2647 7.67438C19.1921 7.74709 19.1514 7.84563 19.1514 7.94836C19.1514 8.0511 19.1921 8.14963 19.2647 8.22234C19.3373 8.29505 19.4358 8.33599 19.5385 8.33617H47.8535C47.9562 8.33599 48.0547 8.29505 48.1272 8.22234C48.1998 8.14963 48.2406 8.0511 48.2406 7.94836C48.2406 7.84563 48.1998 7.74709 48.1272 7.67438C48.0547 7.60167 47.9562 7.56073 47.8535 7.56055H19.5385Z" fill="#FBFBFB"/>
<path d="M19.539 9.8877C19.4362 9.88748 19.3374 9.92813 19.2646 10.0007C19.1917 10.0733 19.1506 10.1718 19.1504 10.2747C19.1502 10.3775 19.1908 10.4763 19.2634 10.5492C19.336 10.622 19.4345 10.6631 19.5374 10.6633H37.4384C37.4894 10.6634 37.5399 10.6535 37.587 10.634C37.6342 10.6146 37.677 10.586 37.7131 10.55C37.7492 10.514 37.7778 10.4712 37.7973 10.4241C37.8169 10.377 37.8269 10.3265 37.8269 10.2755C37.8269 10.2245 37.8169 10.174 37.7973 10.1269C37.7778 10.0798 37.7492 10.0371 37.7131 10.001C37.677 9.96502 37.6342 9.93646 37.587 9.91702C37.5399 9.89757 37.4894 9.8876 37.4384 9.8877H19.539Z" fill="#FBFBFB"/>
<path d="M58.457 46.1431H0V2.28516H58.457V46.1431ZM0.654279 45.4889H57.8027V2.93944H0.654279V45.4889Z" fill="#FBFBFB"/>
<path d="M3.2666 15.6602V41.7461H55.1889V15.6602H3.2666ZM54.9393 22.1192H42.2707V15.9098H54.9393V22.1192ZM29.3526 22.1192V15.9098H42.0211V22.1192H29.3526ZM42.0211 22.3689V28.5783H29.3526V22.3689H42.0211ZM29.1029 22.1192H16.4344V15.9098H29.1029V22.1192ZM29.1029 22.3689V28.5783H16.4344V22.3689H29.1029ZM16.1848 28.5783H3.51623V22.3689H16.1848V28.5783ZM16.1848 28.828V35.0374H3.51623V28.828H16.1848ZM16.4344 28.828H29.1029V35.0374H16.4344V28.828ZM29.1029 35.287V41.4965H16.4344V35.287H29.1029ZM29.3526 35.287H42.0211V41.4965H29.3526V35.287ZM29.3526 35.0374V28.828H42.0211V35.0374H29.3526ZM42.2707 28.828H54.9393V35.0374H42.2707V28.828ZM42.2707 28.5783V22.3689H54.9393V28.5783H42.2707ZM16.1848 15.9098V22.1192H3.51623V15.9098H16.1848ZM3.51623 35.287H16.1848V41.4965H3.51623V35.287ZM42.2707 41.4965V35.287H54.9393V41.4965H42.2707Z" fill="#FBFBFB"/>
<path d="M24.5815 22.6787L19.4151 22.5618C18.8984 20.5599 19.131 18.6539 19.5434 16.8975L24.7097 17.0144C24.1872 18.8611 24.143 20.8103 24.5815 22.6787Z" fill="#FBFBFB"/>
<path d="M20.4287 18.1487L20.4315 17.9521L23.1081 18.0478L23.1052 18.2443L20.4287 18.1487Z" fill="#FBFBFB"/>
<path d="M20.417 18.9349L20.4197 18.7383L23.0962 18.834L23.0935 19.0306L20.417 18.9349Z" fill="#FBFBFB"/>
<path d="M20.4062 19.722L20.4091 19.5254L23.0856 19.6211L23.0829 19.8177L20.4062 19.722Z" fill="#FBFBFB"/>
<path d="M20.3945 20.5081L20.3973 20.3115L23.0739 20.4073L23.071 20.6038L20.3945 20.5081Z" fill="#FBFBFB"/>
<path d="M20.3838 21.2942L20.3865 21.0977L23.0632 21.1934L23.0603 21.39L20.3838 21.2942Z" fill="#FBFBFB"/>
<path d="M13.3481 37.1573L8.18173 37.0403C7.66496 35.0384 7.89761 33.1324 8.31 31.376L13.4763 31.4929C12.9538 33.3396 12.9096 35.2888 13.3481 37.1573Z" fill="#FBFBFB"/>
<path d="M9.19531 32.6272L9.19806 32.4307L11.8747 32.5263L11.8718 32.7229L9.19531 32.6272Z" fill="#FBFBFB"/>
<path d="M9.18359 33.4134L9.18634 33.2168L11.8628 33.3125L11.8601 33.5091L9.18359 33.4134Z" fill="#FBFBFB"/>
<path d="M9.17285 34.2005L9.17572 34.0039L11.8522 34.0996L11.8495 34.2962L9.17285 34.2005Z" fill="#FBFBFB"/>
<path d="M9.16113 34.9866L9.16388 34.79L11.8405 34.8858L11.8376 35.0823L9.16113 34.9866Z" fill="#FBFBFB"/>
<path d="M9.15039 35.7728L9.15314 35.5762L11.8298 35.6719L11.8269 35.8685L9.15039 35.7728Z" fill="#FBFBFB"/>
<path d="M40.308 30.542L35.1417 30.4251C34.6249 28.4232 34.8576 26.5172 35.27 24.7607L40.4363 24.8777C39.9137 26.7244 39.8696 28.6736 40.308 30.542Z" fill="#FBFBFB"/>
<path d="M36.1553 26.012L36.158 25.8154L38.8346 25.911L38.8318 26.1076L36.1553 26.012Z" fill="#FBFBFB"/>
<path d="M36.1436 26.7981L36.1463 26.6016L38.8228 26.6973L38.82 26.8939L36.1436 26.7981Z" fill="#FBFBFB"/>
<path d="M36.1318 27.5853L36.1347 27.3887L38.8112 27.4844L38.8085 27.681L36.1318 27.5853Z" fill="#FBFBFB"/>
<path d="M36.1211 28.3714L36.1238 28.1748L38.8005 28.2705L38.7976 28.4671L36.1211 28.3714Z" fill="#FBFBFB"/>
<path d="M36.1094 29.1575L36.1121 28.9609L38.7887 29.0567L38.7859 29.2532L36.1094 29.1575Z" fill="#FBFBFB"/>
<path d="M38.062 29.293L32.8956 29.176C32.3788 27.1742 32.6115 25.2681 33.0239 23.5117L38.1902 23.6287C37.6676 25.4753 37.6235 27.4246 38.062 29.293Z" fill="#FBFBFB"/>
<path d="M33.9082 24.764L33.9109 24.5674L36.5876 24.663L36.5847 24.8596L33.9082 24.764Z" fill="#FBFBFB"/>
<path d="M33.8975 25.5501L33.9002 25.3535L36.5767 25.4492L36.574 25.6458L33.8975 25.5501Z" fill="#FBFBFB"/>
<path d="M33.8857 26.3372L33.8886 26.1406L36.5651 26.2364L36.5624 26.4329L33.8857 26.3372Z" fill="#FBFBFB"/>
<path d="M33.875 27.1233L33.8777 26.9268L36.5544 27.0225L36.5515 27.2191L33.875 27.1233Z" fill="#FBFBFB"/>
<path d="M33.8633 27.9095L33.866 27.7129L36.5426 27.8086L36.5398 28.0052L33.8633 27.9095Z" fill="#FBFBFB"/>
<path d="M57.1166 40.6953L51.9503 40.5784C51.4335 38.5765 51.6662 36.6705 52.0786 34.9141L57.2449 35.031C56.7223 36.8777 56.6782 38.8269 57.1166 40.6953Z" fill="#FBFBFB"/>
<path d="M52.9629 36.1653L52.9658 35.9688L55.6423 36.0645L55.6394 36.2611L52.9629 36.1653Z" fill="#FBFBFB"/>
<path d="M52.9521 36.9515L52.9549 36.7549L55.6315 36.8506L55.6286 37.0472L52.9521 36.9515Z" fill="#FBFBFB"/>
<path d="M52.9404 37.7386L52.9433 37.542L55.6198 37.6376L55.617 37.8342L52.9404 37.7386Z" fill="#FBFBFB"/>
<path d="M52.9297 38.5247L52.9326 38.3281L55.6091 38.4237L55.6062 38.6203L52.9297 38.5247Z" fill="#FBFBFB"/>
<path d="M52.918 39.3108L52.9207 39.1143L55.5973 39.21L55.5945 39.4066L52.918 39.3108Z" fill="#FBFBFB"/>
<path d="M51.5405 23.6768L46.3741 23.5598C45.8573 21.558 46.09 19.6519 46.5024 17.8955L51.6687 18.0125C51.1461 19.8591 51.102 21.8084 51.5405 23.6768Z" fill="#FBFBFB"/>
<path d="M47.3887 19.1478L47.3914 18.9512L50.068 19.0468L50.0652 19.2434L47.3887 19.1478Z" fill="#FBFBFB"/>
<path d="M47.377 19.9339L47.3797 19.7373L50.0562 19.833L50.0534 20.0296L47.377 19.9339Z" fill="#FBFBFB"/>
<path d="M47.3652 20.72L47.3681 20.5234L50.0446 20.6192L50.0419 20.8158L47.3652 20.72Z" fill="#FBFBFB"/>
<path d="M47.3545 21.5062L47.3572 21.3096L50.0339 21.4053L50.031 21.6019L47.3545 21.5062Z" fill="#FBFBFB"/>
<path d="M47.3428 22.2933L47.3455 22.0967L50.0221 22.1924L50.0193 22.389L47.3428 22.2933Z" fill="#FBFBFB"/>
<path d="M56.8371 36.5204C57.0153 36.4766 57.1817 36.3942 57.3246 36.279C57.4674 36.1639 57.5833 36.0189 57.6641 35.8541C57.7448 35.6893 57.7885 35.5089 57.7919 35.3254C57.7954 35.142 57.7586 34.96 57.6841 34.7923L60.9416 31.7457L58.6881 31.2041L55.9402 34.1802C55.6667 34.324 55.4556 34.5631 55.3467 34.8522C55.2377 35.1413 55.2387 35.4603 55.3492 35.7487C55.4598 36.0372 55.6723 36.2751 55.9465 36.4173C56.2208 36.5595 56.5377 36.5962 56.8371 36.5204Z" fill="#FFB6B6"/>
<path d="M58.5202 34.0671L57.001 31.9251L62.7072 26.0231L64.0322 16.7201C64.0977 16.2602 64.2636 15.8204 64.5182 15.4319C64.7728 15.0434 65.1098 14.7158 65.5053 14.4721C65.9007 14.2285 66.345 14.0749 66.8065 14.0223C67.268 13.9697 67.7354 14.0193 68.1756 14.1677C68.9703 14.4365 69.6259 15.0096 69.9986 15.7612C70.3712 16.5129 70.4305 17.3816 70.1634 18.1769L66.7829 28.2067L58.5202 34.0671Z" fill="#FBFBFB"/>
<path d="M69.2339 73.7062L67.5474 73.7061L66.7451 67.2012L69.2343 67.2013L69.2339 73.7062Z" fill="#FFB6B6"/>
<path d="M70.1416 76.9081H68.9449L68.7313 75.7783L68.1842 76.9081H65.0104C64.8582 76.9081 64.7101 76.8595 64.5875 76.7693C64.465 76.6792 64.3745 76.5522 64.3292 76.4069C64.2839 76.2617 64.2863 76.1058 64.3359 75.962C64.3855 75.8181 64.4798 75.694 64.605 75.6075L67.1395 73.857V72.7148L69.8054 72.874L70.1416 76.9081Z" fill="#2F2E41"/>
<path d="M79.6391 71.9902L78.1577 72.7962L74.3438 67.466L76.5301 66.2764L79.6391 71.9902Z" fill="#FFB6B6"/>
<path d="M81.9669 74.3691L80.9158 74.9411L80.1881 74.0508L80.2476 75.3047L77.4598 76.8217C77.3262 76.8944 77.1728 76.9225 77.0221 76.9019C76.8713 76.8813 76.7311 76.813 76.6219 76.7071C76.5127 76.6012 76.4403 76.4631 76.4151 76.3131C76.3899 76.163 76.4134 76.0089 76.482 75.8731L77.8717 73.1241L77.3257 72.1208L79.7435 70.9863L81.9669 74.3691Z" fill="#2F2E41"/>
<path d="M69.9451 71.39H66.4599V58.9793L64.3022 50.8881C62.7536 45.1018 62.3421 39.07 63.0904 33.127L63.0934 33.1027L63.1121 33.087C63.1675 33.0404 68.6899 28.4742 72.183 31.9673C74.5375 34.3218 72.3251 42.7881 72.2013 43.2528V57.8478L69.9451 71.39Z" fill="#2F2E41"/>
<path d="M62.0293 35.3808L63.1526 24.1476C63.0067 23.8413 60.906 21.9009 63.1025 18.4895L65.4749 12.9206L69.918 12.8516L69.9367 12.8703C70.9819 13.9133 71.7528 15.1987 72.1807 16.6119C72.6086 18.0251 72.6802 19.5223 72.389 20.9699L71.0798 27.516L72.2142 32.0535L62.0293 35.3808Z" fill="#FBFBFB"/>
<path d="M67.8662 59.0429L75.026 69.1137L77.7725 67.161L71.7928 54.873L67.8662 59.0429Z" fill="#2F2E41"/>
<path d="M67.2803 11.7892C69.5462 11.7892 71.383 9.9524 71.383 7.68659C71.383 5.42079 69.5462 3.58398 67.2803 3.58398C65.0145 3.58398 63.1777 5.42079 63.1777 7.68659C63.1777 9.9524 65.0145 11.7892 67.2803 11.7892Z" fill="#FFB6B6"/>
<path opacity="0.1" d="M66.272 22.5254L67.3953 29.2653L66.272 34.8819H64.0254L65.0466 29.2653L66.272 22.5254Z" fill="black"/>
<path d="M67.3445 40.6684C67.481 40.5458 67.589 40.3947 67.6608 40.2259C67.7326 40.0571 67.7666 39.8745 67.7603 39.6912C67.7539 39.5078 67.7075 39.328 67.6241 39.1645C67.5408 39.0011 67.4227 38.8578 67.278 38.745L68.7174 34.5234L66.4742 35.1067L65.4513 39.0261C65.2777 39.2817 65.204 39.5921 65.244 39.8984C65.2841 40.2047 65.4351 40.4857 65.6684 40.6882C65.9018 40.8906 66.2013 41.0004 66.5102 40.9967C66.8191 40.9931 67.1159 40.8762 67.3445 40.6684Z" fill="#FFB6B6"/>
<path d="M67.673 37.7117L65.3242 36.5373L67.5795 28.6437L64.3682 19.8126C64.2095 19.376 64.1488 18.9099 64.1905 18.4473C64.2322 17.9847 64.3752 17.5369 64.6094 17.1358C64.8436 16.7347 65.1632 16.39 65.5455 16.1263C65.9279 15.8626 66.3636 15.6863 66.8218 15.6099C67.6495 15.4729 68.4977 15.6698 69.1804 16.1575C69.8631 16.6451 70.3244 17.3836 70.4633 18.211L72.2033 28.6511L67.673 37.7117Z" fill="#FBFBFB"/>
<path d="M99.9995 76.7589C99.9996 76.7784 99.9958 76.7977 99.9883 76.8158C99.9809 76.8338 99.9699 76.8502 99.9561 76.864C99.9423 76.8778 99.9259 76.8888 99.9079 76.8962C99.8898 76.9037 99.8705 76.9075 99.851 76.9074H19.0606C19.0212 76.9074 18.9835 76.8918 18.9556 76.8639C18.9278 76.836 18.9121 76.7983 18.9121 76.7589C18.9121 76.7195 18.9278 76.6817 18.9556 76.6539C18.9835 76.626 19.0212 76.6104 19.0606 76.6104H99.851C99.8903 76.6105 99.9281 76.6261 99.9559 76.654C99.9837 76.6818 99.9994 76.7195 99.9995 76.7589Z" fill="#FBFBFB"/>
<path d="M83.2362 7.48606C82.7186 8.32632 81.6222 8.69673 80.6498 8.52849C79.6774 8.36025 78.8324 7.73261 78.2082 6.96814C77.5841 6.20367 77.1524 5.30382 76.7276 4.41307C76.3027 3.52231 75.873 2.62177 75.252 1.85477C74.631 1.08776 73.7905 0.455291 72.8194 0.279129C72.291 0.183257 71.6924 0.246552 71.3068 0.620422C71.041 0.900649 70.8958 1.27408 70.9027 1.66028C70.7346 1.60111 70.5546 1.58419 70.3784 1.61101C70.2023 1.63783 70.0354 1.70757 69.8926 1.81408C69.7498 1.92059 69.6353 2.0606 69.5594 2.22176C69.4834 2.38293 69.4483 2.56031 69.457 2.73826C69.4427 2.73799 69.4284 2.73704 69.4141 2.73704C67.6047 1.70837 64.8585 2.30594 64.8585 3.42926C63.8657 3.42926 62.6523 4.4097 62.6523 5.89852C64.7053 5.89852 65.9135 8.52893 64.715 10.415C64.4056 10.896 64.0645 11.356 63.694 11.7917H66.2613C66.4767 11.4827 66.6066 11.1223 66.638 10.7469C66.7323 11.0879 66.7886 11.4383 66.806 11.7917C66.806 11.7917 73.8186 12.6954 72.0087 5.70549C72.1285 5.69951 72.2449 5.6642 72.3479 5.60267C72.6212 5.43795 72.77 5.08957 72.7961 4.73606C72.8638 4.75414 72.9312 4.77219 72.9985 4.79018C73.4809 4.92043 73.9821 5.08919 74.3133 5.46348C74.8729 6.09605 74.7552 7.05618 74.9584 7.87601C75.2035 8.86466 75.9367 9.66432 76.7512 10.276C77.6263 10.9331 78.6485 11.4324 79.738 11.536C80.8274 11.6397 81.9867 11.3084 82.7416 10.516C83.4965 9.7237 83.7593 8.44731 83.2362 7.48606Z" fill="#2F2E41"/>
</g>
<defs>
<clipPath id="clip0_582_982">
<rect width="100" height="76.6693" fill="white" transform="translate(0 0.238281)"/>
</clipPath>
</defs>
</svg>
