<svg width="24" height="25" viewBox="0 0 24 25" fill="none" xmlns="http://www.w3.org/2000/svg">
<path d="M21.0571 7.4331C21.0664 7.6443 21.0664 7.8459 21.0664 8.0571C21.0756 14.4603 16.3712 21.8523 7.76793 21.8523C5.23048 21.8523 2.73933 21.0939 0.600098 19.6731C0.970528 19.7211 1.34096 19.7403 1.71139 19.7403C3.81358 19.7403 5.86021 19.0107 7.51789 17.6571C5.51756 17.6187 3.75802 16.2651 3.14681 14.2875C3.85063 14.4315 4.57296 14.4027 5.25826 14.2011C3.08198 13.7595 1.51691 11.7723 1.50765 9.4587C1.50765 9.4395 1.50765 9.4203 1.50765 9.4011C2.15591 9.77551 2.88751 9.98671 3.62837 10.0059C1.58174 8.5851 0.942746 5.75309 2.18369 3.53549C4.5637 6.5691 8.06427 8.4027 11.8241 8.6043C11.4445 6.9243 11.9631 5.15789 13.1762 3.96749C15.0561 2.13388 18.0196 2.22988 19.7977 4.17869C20.8441 3.96749 21.8535 3.56429 22.7704 2.99788C22.4185 4.12109 21.6869 5.07149 20.7145 5.67629C21.6406 5.56109 22.5481 5.30189 23.4001 4.91789C22.7704 5.89709 21.9739 6.7419 21.0571 7.4331Z" fill="#1D9BF0"/>
</svg>
