<svg width="152" height="94" viewBox="0 0 152 94" fill="none" xmlns="http://www.w3.org/2000/svg">
<g clip-path="url(#clip0_610_2279)">
<path d="M124.178 89.8445L122.602 89.4752L123.555 82.2148L125.88 82.7598L124.178 89.8445Z" fill="#FFB6B6"/>
<path d="M117.958 91.7165C117.89 91.981 118.022 92.2441 118.253 92.3042L121.361 93.1107C121.361 93.1107 121.986 91.9608 123.37 91.7553L123 93.536L124.603 93.952L125.142 91.0743C125.142 91.0743 125.964 89.6729 125.274 88.6686C124.584 87.6642 125.277 87.9591 125.277 87.9591L125.381 86.1182L122.885 85.7744L122.154 88.5168L120.271 90.9383L118.325 91.3426C118.152 91.3786 118.008 91.5255 117.958 91.7165Z" fill="#2F2E41"/>
<path d="M139.279 88.1318L137.842 88.8759L133.843 82.7418L135.963 81.6436L139.279 88.1318Z" fill="#FFB6B6"/>
<path d="M135.773 93.5998C135.893 93.8454 136.164 93.9593 136.379 93.8544L139.264 92.4455C139.264 92.4455 138.991 91.1656 139.908 90.1092L140.785 91.7026L142.274 90.9758L140.812 88.4391C140.812 88.4391 140.524 86.8404 139.347 86.5264C138.169 86.2123 138.888 85.9852 138.888 85.9852L137.769 84.5195L135.649 85.8822L136.878 88.4404L137.023 91.5046L135.808 93.0771C135.7 93.2171 135.686 93.4225 135.773 93.5998Z" fill="#2F2E41"/>
<path d="M55.0221 61.1652H96.7761C97.3017 61.1652 97.7279 60.739 97.7279 60.2133V1.12956C97.7279 0.603881 97.3017 0.177734 96.7761 0.177734H55.0221C54.4965 0.177734 54.0703 0.603881 54.0703 1.12956V60.2133C54.0703 60.739 54.4965 61.1652 55.0221 61.1652Z" fill="white"/>
<path d="M97.906 61.3436H53.8923V0H97.906V61.3436ZM54.2484 60.9875H97.5499V0.356076H54.2484V60.9875Z" fill="#E6E6E6"/>
<path d="M88.0147 9.82715C88.1841 9.82715 88.3214 9.96449 88.3214 10.1339V10.7474C88.3214 10.9168 88.1841 11.0542 88.0147 11.0542H63.7837C63.6143 11.0542 63.4769 10.9168 63.4769 10.7474V10.1339C63.4769 9.96449 63.6143 9.82715 63.7837 9.82715H88.0147Z" fill="#E6E6E6"/>
<path d="M88.0147 12.7402C88.1841 12.7402 88.3214 12.8776 88.3214 13.047V13.6605C88.3214 13.8299 88.1841 13.9673 88.0147 13.9673H63.7837C63.6143 13.9673 63.4769 13.8299 63.4769 13.6605V13.047C63.4769 12.8776 63.6143 12.7402 63.7837 12.7402H88.0147Z" fill="#E6E6E6"/>
<path d="M88.0147 15.6543C88.1841 15.6543 88.3214 15.7916 88.3214 15.9611V16.5746C88.3214 16.744 88.1841 16.8813 88.0147 16.8813H63.7837C63.6143 16.8813 63.4769 16.744 63.4769 16.5746V15.9612C63.4769 15.7918 63.6143 15.6545 63.7837 15.6545L88.0147 15.6543Z" fill="#560185"/>
<path d="M132.615 23.2996H140.663C140.652 22.9214 140.732 22.546 140.898 22.2058C140.902 22.5834 140.985 22.9558 141.141 23.2996H141.507C142.066 23.299 142.519 22.8458 142.52 22.2866V17.0562C142.519 14.4954 140.33 10.6564 137.951 12.2628C137.874 12.2588 136.668 11.7246 136.591 11.7246C134.498 11.7263 133.778 13.6151 133.146 15.6105C132.426 15.2786 131.93 16.664 131.571 19.1025C131.466 19.8141 131.373 20.6154 131.289 21.4899C131.059 22.2236 131.466 23.0054 132.2 23.2361C132.334 23.2784 132.474 23.3 132.615 23.3003L132.615 23.2996Z" fill="#2F2E41"/>
<path d="M116.82 53.2019C116.421 54.1478 116.586 55.1204 117.187 55.3744C117.789 55.6283 118.601 55.0673 119 54.121C119.164 53.7452 119.237 53.3354 119.21 52.926L120.851 48.8966L118.944 48.167L117.528 52.2169C117.217 52.4839 116.974 52.8216 116.819 53.2017L116.82 53.2019Z" fill="#FFB6B6"/>
<path d="M134.456 21.5293L138.303 22.3341L137.713 24.1043L138.893 37.6439L136.926 42.0036L124.927 41.02L127.878 35.1187C127.878 35.1187 126.698 30.2014 128.271 29.2175C129.845 28.2336 132.402 23.3162 132.402 23.3162L134.456 21.5293Z" fill="#560185"/>
<path d="M138.042 23.1171L141.45 24.497L140.27 41.8063L142.827 56.7553L134.566 58.1323C134.566 58.1323 135.549 25.0871 136.139 24.497C136.729 23.9069 138.042 23.1162 138.042 23.1162V23.1171Z" fill="#2F2E41"/>
<path d="M131.367 25.2756C131.367 25.2756 129.149 23.8726 127.951 24.9115C126.753 25.9504 117.528 51.0635 117.528 51.0635L120.016 52.1445L125.723 40.1801L131.367 25.2756Z" fill="#2F2E41"/>
<path d="M125.014 67.5883L122.764 84.8837L125.911 85.0804C125.911 85.0804 127.548 80.6153 129.415 75.3556C129.812 74.2403 130.219 73.0897 130.622 71.9371C131.059 70.6862 131.494 69.4351 131.907 68.2275C132.928 65.2495 133.823 62.5389 134.334 60.7687C134.422 60.458 134.501 60.1769 134.566 59.9288C135.942 54.6415 136.729 40.8244 136.729 40.8244L125.321 39.8408L125.199 39.9923L122.764 43.0352L122.878 43.6784L125.911 60.6907L125.015 67.589L125.014 67.5883Z" fill="#2F2E41"/>
<path d="M125.911 60.69L125.014 67.5882L129.048 74.6906L129.414 75.3554L134.969 85.4499L137.713 83.894C137.713 83.894 134.143 75.6897 131.906 68.2269C131.658 67.4067 131.428 66.5942 131.222 65.8036C130.614 63.4883 131.609 59.2634 131.22 58.0989C129.904 54.1689 125.616 46.3068 123.625 42.7451L122.878 43.6775L125.911 60.69Z" fill="#2F2E41"/>
<path d="M132.452 23.168L128.469 24.6945L118.044 55.1826L124.338 56.1661L127.289 38.4634L132.452 23.168Z" fill="#2F2E41"/>
<path d="M142.412 56.0772C142.514 57.0988 143.123 57.8747 143.773 57.8101C144.423 57.7455 144.868 56.8651 144.766 55.843C144.732 55.4342 144.599 55.0397 144.381 54.6926L143.897 50.3691L141.873 50.6395L142.565 54.8729C142.418 55.2564 142.366 55.6694 142.412 56.0772Z" fill="#FFB6B6"/>
<path d="M140.073 24.4978C140.073 24.4978 142.63 23.9077 143.417 25.2846C144.204 26.6616 144.597 53.4124 144.597 53.4124L141.891 53.6091L140.466 40.4308L140.073 24.4983L140.073 24.4978Z" fill="#2F2E41"/>
<path d="M136.81 21.0515C139.068 21.0515 140.898 19.2209 140.898 16.9628C140.898 14.7046 139.068 12.874 136.81 12.874C134.551 12.874 132.721 14.7046 132.721 16.9628C132.721 19.2209 134.551 21.0515 136.81 21.0515Z" fill="#FFB6B6"/>
<path d="M138.451 23.2993H140.47C140.573 23.2993 140.66 23.2202 140.665 23.1177L140.665 23.1065C140.676 22.8928 140.976 22.8569 141.046 23.0592C141.074 23.1405 141.105 23.2207 141.141 23.2993H141.34V16.9957C141.34 15.9146 140.463 15.0381 139.382 15.0381C138.459 15.0381 137.661 15.6829 137.468 16.5855C137.468 16.5855 136.096 18.2687 136.904 19.215C137.713 20.1612 136.537 20.9315 136.537 20.9315C136.275 22.1501 137.205 23.2993 138.451 23.2993Z" fill="#2F2E41"/>
<path d="M71.5018 30.6415C71.9549 30.3493 72.0504 29.7239 71.7334 29.2877L70.2487 27.2447C69.9019 26.767 69.2336 26.6609 68.7559 27.0077C68.7136 27.0384 68.6736 27.0722 68.6362 27.1088C66.1221 28.4528 64.7688 30.4156 66.2735 32.7359C66.2734 33.1234 66.3017 33.5103 66.358 33.8937C66.3824 34.06 66.4384 34.2227 66.5333 34.3615C66.8151 34.7736 67.3124 34.9249 67.7499 34.7822L70.1782 33.9932C70.6942 33.8256 70.9735 33.2624 70.7829 32.7545C70.5366 32.0981 70.6381 31.1986 71.5018 30.6415Z" fill="#F2F2F2"/>
<path d="M77.2652 36.6678C76.5666 36.5989 75.9701 37.1746 75.9701 37.8767V39.9715C75.9701 40.0257 75.9743 40.0799 75.9825 40.1336C76.0723 40.7173 76.6183 41.1177 77.202 41.0279C80.6052 41.4473 82.9307 39.9674 83.0707 36.7205C83.093 36.6749 83.112 36.6279 83.1276 36.5796C83.309 36.0185 83.0012 35.4167 82.4401 35.2353L80.407 34.5747C79.7056 34.3468 78.9766 34.8022 78.8539 35.5294C78.743 36.1863 78.3094 36.7709 77.2652 36.6678Z" fill="#E6E6E6"/>
<path d="M64.6953 38.7166C65.401 42.9052 69.0763 44.4943 72.9094 44.7455C72.9845 44.757 73.0603 44.7628 73.1362 44.7629C73.9629 44.7633 74.6335 44.0934 74.6339 43.2667V39.764C74.6339 38.7842 73.8309 38.0212 72.8512 38.0113C71.9041 38.0018 71.2868 37.5536 71.0332 36.7307C70.7435 35.7907 69.7107 35.2951 68.7753 35.599L65.578 36.638C65.1639 36.7725 64.8287 37.0804 64.6597 37.4817C64.4916 37.879 64.5046 38.3297 64.6953 38.7166Z" fill="#3F3D56"/>
<path d="M84.3923 24.2328C83.8023 23.6548 82.8554 23.6646 82.2774 24.2547C82.226 24.3072 82.1785 24.3634 82.1353 24.423L79.2945 28.3332C78.9312 28.8332 79.1389 29.5297 79.7066 29.7739C81.0365 30.3457 80.8968 31.6294 80.4638 32.415C80.2516 32.8 80.4267 33.2818 80.8447 33.4176L85.632 34.9731C86.4196 35.2274 87.2642 34.7951 87.5185 34.0075C87.5441 33.9282 87.563 33.8469 87.5751 33.7644C87.6574 33.2163 87.6987 32.6629 87.6987 32.1087C88.5084 29.0889 87.3878 26.2421 84.3923 24.2328Z" fill="#560185"/>
<path d="M76.1711 28.767C76.7016 29.0656 77.3708 28.9212 77.7286 28.4287L78.6804 27.1189C78.8652 26.8649 78.9293 26.5427 78.8559 26.2373C78.785 25.9375 78.5862 25.6839 78.312 25.5435C76.0723 23.5199 73.4216 23.3957 71.1739 25.5331C70.8913 25.6757 70.6857 25.9352 70.6113 26.2428C70.538 26.5461 70.6016 26.8662 70.7852 27.1185L71.8974 28.6493C72.2794 29.175 73.0194 29.3126 73.5458 28.9315C74.3107 28.3777 75.4218 28.3451 76.1711 28.767Z" fill="#E6E6E6"/>
<path d="M151.516 93.6416H0V93.9412H151.516V93.6416Z" fill="#E6E6E6"/>
<path d="M63.6323 55.1543C63.7178 54.7925 64.1191 54.6736 64.4472 54.6873C64.6545 54.7013 64.8601 54.7338 65.0616 54.7845C65.2724 54.8317 65.4812 54.8876 65.689 54.9467C66.07 55.0553 66.4469 55.1867 66.8341 55.2716C67.159 55.3606 67.501 55.3656 67.8283 55.2862C68.1432 55.1998 68.391 54.9567 68.4835 54.6435C68.5775 54.3443 68.4421 54.0209 68.163 53.878C67.9047 53.7356 67.5798 53.8296 67.4374 54.0879C67.4353 54.0917 67.4333 54.0956 67.4313 54.0994C67.3116 54.4181 67.4055 54.7776 67.6658 54.9969C67.7992 55.1222 67.9453 55.2332 68.1018 55.3281C68.2606 55.4363 68.4373 55.5154 68.6238 55.5618C68.941 55.6459 69.276 55.5151 69.4524 55.2383C69.4874 55.1721 69.5085 55.0994 69.5143 55.0247C69.5236 54.923 69.3648 54.9236 69.3555 55.0247C69.3288 55.316 68.9877 55.452 68.7324 55.4203C68.5602 55.3917 68.3958 55.3279 68.2495 55.2328C68.1083 55.1505 67.9744 55.0561 67.8495 54.9506C67.6332 54.7633 67.4304 54.4553 67.5757 54.1632C67.6887 53.9754 67.9326 53.9149 68.1204 54.0279C68.1454 54.043 68.1687 54.0609 68.1899 54.0811C68.4171 54.267 68.3765 54.604 68.2268 54.8248C68.0468 55.0552 67.769 55.1877 67.4767 55.1824C67.1684 55.183 66.862 55.1349 66.5687 55.04C66.2028 54.9362 65.8407 54.82 65.4732 54.722C65.2646 54.6665 65.0543 54.6165 64.8419 54.5775C64.641 54.5332 64.4347 54.5189 64.2296 54.5351C63.8834 54.5515 63.5839 54.7814 63.4787 55.1116C63.4557 55.2115 63.6088 55.2538 63.6323 55.1543Z" fill="#3F3D56"/>
<path d="M69.9203 51.0156C69.9682 51.0156 70.007 51.1529 70.007 51.3224V51.9359C70.007 52.1052 69.9682 52.2427 69.9203 52.2427H63.0716C63.0237 52.2427 62.9849 52.1054 62.9849 51.9359V51.3224C62.9849 51.1529 63.0237 51.0156 63.0716 51.0156H69.9203Z" fill="#E6E6E6"/>
<path d="M88.2348 51.0156C88.2827 51.0156 88.3215 51.1529 88.3215 51.3224V51.9359C88.3215 52.1052 88.2827 52.2427 88.2348 52.2427H81.386C81.3381 52.2427 81.2993 52.1054 81.2993 51.9359V51.3224C81.2993 51.1529 81.3381 51.0156 81.386 51.0156H88.2348Z" fill="#E6E6E6"/>
<path d="M85.1853 54.4708L83.8258 54.9202L83.1461 55.1449C82.9373 55.234 82.7113 55.2755 82.4845 55.2665C82.317 55.2553 82.1699 55.1511 82.1038 54.9967C82.0749 54.842 82.1414 54.685 82.2726 54.5981C82.597 54.3513 83.0072 54.6025 83.2372 54.858C83.5183 55.1707 83.6775 55.5743 83.9412 55.9015C84.1759 56.1952 84.4735 56.4325 84.8122 56.5959C85.4888 56.9315 86.296 56.8625 86.9059 56.4169C87.6225 55.8641 87.6956 54.9059 87.6994 54.07C87.6966 53.9898 87.6292 53.927 87.5489 53.9298C87.4726 53.9325 87.4113 53.9937 87.4087 54.07C87.4053 54.8276 87.3622 55.7562 86.6714 56.2304C86.0096 56.6845 85.1403 56.564 84.5308 56.0801C84.2168 55.8005 83.9555 55.4668 83.7596 55.0948C83.542 54.7388 83.2719 54.395 82.8625 54.2568C82.5004 54.1253 82.0958 54.2667 81.8945 54.5951C81.721 54.8872 81.8171 55.2646 82.1092 55.4381C82.1318 55.4515 82.1552 55.4635 82.1793 55.4739C82.6541 55.7002 83.1973 55.4351 83.6544 55.2839L85.2631 54.7523C85.4399 54.6939 85.3642 54.4129 85.1858 54.4719L85.1853 54.4708Z" fill="#560185"/>
<path d="M24.7734 88.3067C24.7557 88.2912 24.7421 88.2831 24.7328 88.2832C24.511 88.2851 24.3134 88.4015 24.2045 88.594L21.8164 93.0292C21.7618 93.1257 21.7349 93.2313 21.7359 93.3366C21.7368 93.442 21.7654 93.5471 21.8217 93.6427C21.9343 93.8338 27.2084 93.9024 27.2084 93.9024C27.4302 93.9005 28.0389 91.172 24.7734 88.3067Z" fill="#E6E6E6"/>
<path d="M15.646 92.8286L17.4586 92.8126L18.2599 85.8135L15.5846 85.837L15.646 92.8286Z" fill="#FFB6B6"/>
<path d="M21.8559 92.7332C21.9131 92.8277 21.9456 93.1343 21.9466 93.2448C21.9495 93.5846 21.6765 93.8624 21.3367 93.8654L15.7232 93.9144C15.4915 93.9164 15.3019 93.7302 15.2999 93.4984L15.2978 93.2646C15.2978 93.2646 15.014 92.5647 15.5782 91.6939C15.5782 91.6939 16.2947 92.3656 17.3472 91.2946L17.6553 90.7246L19.9363 92.3624L21.1939 92.5061C21.4691 92.5375 21.7124 92.4963 21.8559 92.7332Z" fill="#2F2E41"/>
<path d="M22.542 86.7846L24.2643 87.35L27.2649 80.9761L24.7231 80.1416L22.542 86.7846Z" fill="#FFB6B6"/>
<path d="M28.4553 88.6836C28.4793 88.7916 28.4119 89.0923 28.3774 89.1974C28.2714 89.5202 27.9237 89.696 27.6009 89.5899L22.2674 87.8385C22.0472 87.7662 21.9273 87.529 21.9996 87.3088L22.0725 87.0868C22.0725 87.0868 22.0278 86.3327 22.8411 85.6885C22.8411 85.6885 23.3048 86.5543 24.6449 85.8768L25.1193 85.4355L26.7556 87.7176L27.901 88.2565C28.1515 88.3744 28.3953 88.4133 28.4553 88.6836Z" fill="#2F2E41"/>
<path d="M24.9737 46.2016L28.5952 57.8135L32.8408 68.2493L26.4055 83.266L22.8248 81.8708L26.0295 68.8741L20.5514 59.1699L17.9625 88.3012L14.8131 87.9241L10.7183 53.0287L11.3605 45.4404L24.9737 46.2016Z" fill="#2F2E41"/>
<path d="M21.2684 19.7629L17.3555 18.8184L16.2761 21.3821C16.2761 21.3821 10.9885 22.2753 10.7183 26.3232C10.7183 26.3232 9.66445 31.6367 10.339 33.121C11.0136 34.6053 12.6767 39.8541 12.6767 39.8541C12.6767 39.8541 10.0435 46.3934 10.7183 46.7976C11.393 47.2017 25.8515 48.6753 25.8515 47.8658C25.8515 47.0563 26.0165 37.4381 26.0165 37.4381L25.4504 22.8657L21.8082 21.5171L21.2684 19.7629Z" fill="#E6E6E6"/>
<path d="M20.6062 19.1108C22.7839 19.1108 24.5493 17.3454 24.5493 15.1677C24.5493 12.99 22.7839 11.2246 20.6062 11.2246C18.4285 11.2246 16.6631 12.99 16.6631 15.1677C16.6631 17.3454 18.4285 19.1108 20.6062 19.1108Z" fill="#FFB6B6"/>
<path d="M17.9952 15.754C18.31 15.9261 18.0117 16.7487 18.2084 16.8197C18.4357 16.9018 19.2642 15.9581 19.2741 14.9014C19.2771 14.5816 19.2034 14.4281 19.2741 14.0489C19.3665 13.5529 19.6505 12.9677 19.9135 12.9832C20.0694 12.9923 20.2218 13.2127 20.2332 13.4095C20.2492 13.6852 19.9814 13.7938 20.0201 13.9423C20.0937 14.2252 21.2184 14.4201 21.6186 13.9423C21.9324 13.5677 21.6914 12.9103 21.8318 12.8766C21.9352 12.8518 22.0464 13.2137 22.4712 13.6226C22.6312 13.7767 22.8693 14.0058 23.004 13.9423C23.1988 13.8506 23.057 13.2049 23.1106 13.1963C23.1549 13.1892 23.1829 13.6431 23.4303 14.0489C23.7481 14.5702 24.4035 14.9719 24.7091 14.7949C24.8964 14.6864 24.9111 14.3846 24.9223 14.1555C24.9458 13.6726 25.6471 12.5617 25.4654 12.0453C25.0956 10.9941 24.4627 11.7354 24.1763 11.3846C23.7885 10.9098 23.4408 11.1653 22.7909 10.6386C22.156 10.1242 22.1502 9.60685 21.7252 9.57295C21.3424 9.54242 21.2064 9.9508 20.7661 9.89266C20.393 9.84341 20.3118 9.52674 20.0201 9.57295C19.753 9.61526 19.7355 9.89426 19.3807 9.99923C19.1541 10.0662 19.1043 9.96938 18.8478 9.99923C18.3141 10.0613 17.9558 10.5476 17.8887 10.6386C17.6299 10.9898 17.7304 11.1378 17.4624 11.4912C17.2313 11.796 16.7188 11.6668 16.5262 11.819C15.8968 12.3165 15.6267 13.2337 15.6216 14.279C15.618 15.0101 15.7134 15.3794 15.9265 16.3021C16.0882 17.0028 16.8367 17.908 17.2493 18.3117C17.36 18.42 17.6705 18.7238 17.8887 18.6314C18.0954 18.5438 18.1016 18.1505 18.1018 18.0985C18.1027 17.9199 18.055 17.6989 17.6755 17.1394C17.2769 16.5517 17.1186 16.4847 17.1427 16.2868C17.1853 15.9371 17.7444 15.6168 17.9952 15.754Z" fill="#2F2E41"/>
<path d="M6.8446 55.0848C6.70729 56.2313 7.18746 57.2317 7.9171 57.3191C8.64674 57.4064 9.34954 56.5478 9.48686 55.4012C9.54697 54.8993 9.48873 54.4255 9.34307 54.0439L9.86397 49.1782L7.57543 48.9824L7.30483 53.7998C7.07319 54.1362 6.90471 54.5829 6.8446 55.0848Z" fill="#FFB6B6"/>
<path d="M13.4343 22.7715C13.4343 22.7715 12.2486 22.7879 11.463 24.3209C11.0456 25.1355 8.33207 39.7363 8.33207 39.7363L7.56975 44.3541L7.96153 45.1179C7.33873 46.0704 7.16728 47.249 7.49286 48.3395L6.74805 52.8512L10.2504 52.8701L12.9836 41.0511L15.2817 34.1965L13.4343 22.7715Z" fill="#E6E6E6"/>
<path d="M31.3275 54.907C31.4648 56.0536 30.9846 57.0539 30.255 57.1413C29.5253 57.2287 28.8225 56.3701 28.6852 55.2235C28.6251 54.7216 28.6833 54.2477 28.829 53.8662L28.3081 49.0005L30.5966 48.8047L30.8672 53.6221C31.0989 53.9584 31.2674 54.4051 31.3275 54.907Z" fill="#FFB6B6"/>
<path d="M24.7378 22.5938C24.7378 22.5938 25.9235 22.6102 26.7091 24.1432C27.1265 24.9578 29.84 39.5586 29.84 39.5586L30.6024 44.1764L30.2106 44.9401C30.8334 45.8927 31.0048 47.0713 30.6792 48.1618L31.4241 52.6735L27.9217 52.6924L25.1885 40.8734L22.8904 34.0188L24.7378 22.5938Z" fill="#E6E6E6"/>
<path d="M131.895 16.3558C132.04 16.5939 132.812 15.7227 133.997 15.6267C134.299 15.6016 134.979 16.7568 135.759 16.7735C136.276 16.7839 136.594 16.7797 137.231 16.7735C137.984 16.7651 138.19 16.7484 138.335 16.5646C138.617 16.2075 138.385 15.5725 138.519 15.5203C138.631 15.4764 138.922 15.8691 139.071 16.3558C139.384 17.3771 138.261 18.7994 138.151 20.1152C138.033 21.5334 139.193 18.8161 139.071 20.1152C138.935 21.5772 138.447 21.4665 138.453 21.995C138.455 22.0743 138.475 22.1432 138.519 22.2038C138.558 22.2581 138.596 22.279 139.255 22.4127C140.043 22.5735 140.438 22.6529 140.543 22.6215C140.814 22.5422 141.088 22.1015 141.279 21.7861C141.596 21.2702 141.371 21.7903 141.279 21.1595C141.191 20.5496 140.915 20.4703 140.911 19.9064C140.907 19.1962 141.344 18.9811 141.647 18.2355C142.208 16.857 141.66 15.2613 141.463 14.6849C141.369 14.4084 141.197 14.0586 140.897 13.4805C140.655 13.0164 140.335 12.6076 139.944 12.3013C139.359 11.8422 138.679 11.5276 137.944 11.403C137.541 11.3347 137.13 11.3705 136.735 11.4785L135.709 11.7582C135.278 11.8758 134.872 12.0888 134.513 12.3852C134.179 12.3864 133.89 12.6314 133.775 12.9875C133.763 13.0248 133.752 13.0465 133.743 13.0433C131.895 12.3874 131.896 14.3301 131.916 15.5436C131.918 15.6678 131.915 15.7777 131.9 15.867V15.8733C131.864 16.1135 131.854 16.2889 131.895 16.3558Z" fill="#2F2E41"/>
<path d="M107.865 27.085H88.4044V27.441H107.865V27.085Z" fill="#3F3D56"/>
<path d="M111.782 29.572C110.408 29.572 109.29 28.4539 109.29 27.0794C109.29 25.705 110.408 24.5869 111.782 24.5869C113.156 24.5869 114.275 25.705 114.275 27.0794C114.275 28.4539 113.156 29.572 111.782 29.572ZM111.782 24.943C110.604 24.943 109.646 25.9014 109.646 27.0794C109.646 28.2575 110.604 29.2159 111.782 29.2159C112.96 29.2159 113.919 28.2575 113.919 27.0794C113.919 25.9014 112.96 24.943 111.782 24.943Z" fill="#3F3D56"/>
<path d="M111.782 28.3255C112.47 28.3255 113.028 27.7676 113.028 27.0793C113.028 26.391 112.47 25.833 111.782 25.833C111.094 25.833 110.536 26.391 110.536 27.0793C110.536 27.7676 111.094 28.3255 111.782 28.3255Z" fill="#560185"/>
<path d="M63.4105 40.2598H43.9497V40.6158H63.4105V40.2598Z" fill="#3F3D56"/>
<path d="M37.5403 40.2543C37.5403 38.8798 38.6584 37.7617 40.0328 37.7617C41.4072 37.7617 42.5253 38.8798 42.5253 40.2543C42.5253 41.6287 41.4072 42.7468 40.0328 42.7468C38.6584 42.7468 37.5403 41.6287 37.5403 40.2543ZM37.8964 40.2543C37.8964 41.4323 38.8548 42.3907 40.0328 42.3907C41.2108 42.3907 42.1693 41.4323 42.1693 40.2543C42.1693 39.0762 41.2108 38.1178 40.0328 38.1178C38.8548 38.1178 37.8964 39.0762 37.8964 40.2543Z" fill="#3F3D56"/>
<path d="M40.0329 41.5003C40.7212 41.5003 41.2792 40.9424 41.2792 40.2541C41.2792 39.5658 40.7212 39.0078 40.0329 39.0078C39.3446 39.0078 38.7866 39.5658 38.7866 40.2541C38.7866 40.9424 39.3446 41.5003 40.0329 41.5003Z" fill="#560185"/>
</g>
<defs>
<clipPath id="clip0_610_2279">
<rect width="151.516" height="93.9524" fill="white"/>
</clipPath>
</defs>
</svg>
