<svg width="142" height="118" viewBox="0 0 142 118" fill="none" xmlns="http://www.w3.org/2000/svg">
<g clip-path="url(#clip0_610_2139)">
<path d="M96.5204 0.000138383L0 57.1943L2.90278 62.093L99.4232 4.89885L96.5204 0.000138383Z" fill="#3F3D56"/>
<path d="M117.499 4.79505L20.9785 61.9893L23.8813 66.888L120.402 9.69375L117.499 4.79505Z" fill="#3F3D56"/>
<path d="M136.08 10.0392L39.5594 67.2334L42.4622 72.1321L138.983 14.9379L136.08 10.0392Z" fill="#3F3D56"/>
<path d="M62.8688 67.0453C79.5585 67.0453 93.0882 53.5156 93.0882 36.8259C93.0882 20.1361 79.5585 6.60645 62.8688 6.60645C46.1791 6.60645 32.6494 20.1361 32.6494 36.8259C32.6494 53.5156 46.1791 67.0453 62.8688 67.0453Z" fill="white"/>
<path d="M32.4247 36.826C32.4247 20.039 46.0819 6.38184 62.8689 6.38184C79.6558 6.38184 93.313 20.039 93.313 36.826C93.313 53.613 79.6558 67.2702 62.8689 67.2702C46.0819 67.2702 32.4247 53.613 32.4247 36.826ZM32.8742 36.826C32.8742 53.3651 46.3298 66.8206 62.8689 66.8206C79.408 66.8206 92.8635 53.3651 92.8635 36.826C92.8635 20.2869 79.408 6.83138 62.8689 6.83138C46.3298 6.83138 32.8742 20.2869 32.8742 36.826Z" fill="#3F3D56"/>
<path d="M57.4819 36.9573C57.4819 35.8918 57.7979 34.8503 58.3898 33.9644C58.9817 33.0786 59.823 32.3881 60.8074 31.9804C61.7917 31.5726 62.8748 31.466 63.9198 31.6738C64.9648 31.8817 65.9246 32.3947 66.678 33.1481C67.4314 33.9015 67.9445 34.8614 68.1523 35.9063C68.3602 36.9513 68.2535 38.0344 67.8458 39.0188C67.438 40.0031 66.7476 40.8444 65.8617 41.4363C64.9758 42.0283 63.9343 42.3442 62.8689 42.3442C61.4402 42.3442 60.07 41.7766 59.0597 40.7664C58.0495 39.7562 57.4819 38.386 57.4819 36.9573ZM62.8689 31.8331C61.5103 31.8346 60.2079 32.375 59.2472 33.3356C58.2866 34.2963 57.7462 35.5987 57.7447 36.9573C57.7447 37.9707 58.0452 38.9614 58.6083 39.8041C59.1713 40.6468 59.9716 41.3035 60.9079 41.6914C61.8443 42.0792 62.8746 42.1807 63.8685 41.983C64.8625 41.7853 65.7756 41.2972 66.4922 40.5806C67.2088 39.864 67.6969 38.9509 67.8946 37.9569C68.0923 36.9629 67.9908 35.9327 67.603 34.9963C67.2151 34.06 66.5584 33.2597 65.7157 32.6967C64.873 32.1336 63.8823 31.8331 62.8689 31.8331Z" fill="#3F3D56"/>
<path d="M52.6205 36.9573C52.6205 34.9304 53.2215 32.949 54.3476 31.2636C55.4737 29.5783 57.0743 28.2648 58.9469 27.4891C60.8196 26.7134 62.8802 26.5105 64.8682 26.9059C66.8561 27.3013 68.6822 28.2774 70.1155 29.7107C71.5487 31.1439 72.5248 32.97 72.9202 34.958C73.3156 36.9459 73.1127 39.0065 72.337 40.8792C71.5613 42.7518 70.2478 44.3524 68.5625 45.4785C66.8771 46.6046 64.8957 47.2056 62.8688 47.2056C61.523 47.2056 60.1903 46.9405 58.9469 46.4255C57.7036 45.9105 56.5738 45.1556 55.6221 44.204C54.6705 43.2523 53.9156 42.1226 53.4006 40.8792C52.8856 39.6358 52.6205 38.3031 52.6205 36.9573ZM62.8688 26.9718C60.8939 26.9718 58.9632 27.5574 57.3211 28.6546C55.679 29.7519 54.3991 31.3114 53.6434 33.136C52.8876 34.9606 52.6898 36.9684 53.0751 38.9054C53.4604 40.8424 54.4115 42.6216 55.808 44.0182C57.2045 45.4147 58.9837 46.3657 60.9207 46.751C62.8577 47.1363 64.8655 46.9385 66.6901 46.1827C68.5147 45.427 70.0742 44.1471 71.1715 42.505C72.2687 40.8629 72.8543 38.9323 72.8543 36.9573C72.8514 34.3099 71.7984 31.7718 69.9264 29.8998C68.0543 28.0277 65.5162 26.9747 62.8688 26.9718Z" fill="#3F3D56"/>
<path d="M42.8977 36.9574C42.8977 33.0075 44.069 29.1463 46.2634 25.8621C48.4579 22.5779 51.577 20.0181 55.2262 18.5065C58.8754 16.995 62.891 16.5995 66.765 17.3701C70.639 18.1407 74.1975 20.0427 76.9905 22.8357C79.7835 25.6287 81.6856 29.1873 82.4562 33.0613C83.2267 36.9353 82.8312 40.9508 81.3197 44.6C79.8081 48.2493 77.2484 51.3683 73.9641 53.5628C70.6799 55.7572 66.8187 56.9285 62.8688 56.9285C57.574 56.9225 52.4977 54.8165 48.7537 51.0725C45.0097 47.3285 42.9037 42.2523 42.8977 36.9574ZM62.8688 17.2491C58.9709 17.2491 55.1605 18.405 51.9194 20.5706C48.6784 22.7361 46.1524 25.8142 44.6607 29.4154C43.169 33.0166 42.7787 36.9793 43.5392 40.8023C44.2996 44.6254 46.1767 48.1371 48.9329 50.8933C51.6892 53.6496 55.2009 55.5266 59.0239 56.2871C62.8469 57.0475 66.8096 56.6572 70.4108 55.1655C74.0121 53.6739 77.0901 51.1478 79.2557 47.9068C81.4212 44.6658 82.5771 40.8554 82.5771 36.9574C82.5712 31.7323 80.4929 26.7228 76.7982 23.0281C73.1034 19.3333 68.094 17.255 62.8688 17.2491Z" fill="#3F3D56"/>
<path d="M62.8688 39.3228C64.2475 39.3228 65.3652 38.2052 65.3652 36.8265C65.3652 35.4477 64.2475 34.3301 62.8688 34.3301C61.4901 34.3301 60.3724 35.4477 60.3724 36.8265C60.3724 38.2052 61.4901 39.3228 62.8688 39.3228Z" fill="#560185"/>
<path d="M56.4308 46.5484C57.8095 46.5484 58.9272 45.4308 58.9272 44.052C58.9272 42.6733 57.8095 41.5557 56.4308 41.5557C55.0521 41.5557 53.9344 42.6733 53.9344 44.052C53.9344 45.4308 55.0521 46.5484 56.4308 46.5484Z" fill="#560185"/>
<path d="M81.5477 45.4977C82.9264 45.4977 84.044 44.38 84.044 43.0013C84.044 41.6226 82.9264 40.5049 81.5477 40.5049C80.1689 40.5049 79.0513 41.6226 79.0513 43.0013C79.0513 44.38 80.1689 45.4977 81.5477 45.4977Z" fill="#560185"/>
<path d="M62.8688 38.0085C63.5219 38.0085 64.0513 37.4791 64.0513 36.826C64.0513 36.173 63.5219 35.6436 62.8688 35.6436C62.2157 35.6436 61.6863 36.173 61.6863 36.826C61.6863 37.4791 62.2157 38.0085 62.8688 38.0085Z" fill="#2F2E41"/>
<path d="M81.5476 44.1834C82.2007 44.1834 82.7301 43.6539 82.7301 43.0009C82.7301 42.3478 82.2007 41.8184 81.5476 41.8184C80.8945 41.8184 80.3651 42.3478 80.3651 43.0009C80.3651 43.6539 80.8945 44.1834 81.5476 44.1834Z" fill="#2F2E41"/>
<path d="M56.4308 45.366C57.0839 45.366 57.6133 44.8365 57.6133 44.1835C57.6133 43.5304 57.0839 43.001 56.4308 43.001C55.7777 43.001 55.2483 43.5304 55.2483 44.1835C55.2483 44.8365 55.7777 45.366 56.4308 45.366Z" fill="#2F2E41"/>
<path d="M7.68555 24.738C8.33862 24.738 8.86804 24.2086 8.86804 23.5555C8.86804 22.9025 8.33862 22.373 7.68555 22.373C7.03247 22.373 6.50305 22.9025 6.50305 23.5555C6.50305 24.2086 7.03247 24.738 7.68555 24.738Z" fill="#560185"/>
<path d="M62.803 23.6212H10.9044V23.3584H63.066V36.8912H62.803V23.6212Z" fill="#2F2E41"/>
<path d="M4.26941 23.5558C4.26941 22.8801 4.46976 22.2197 4.84513 21.6579C5.22049 21.0961 5.75401 20.6582 6.37823 20.3997C7.00244 20.1411 7.6893 20.0735 8.35196 20.2053C9.01463 20.3371 9.62332 20.6625 10.1011 21.1402C10.5788 21.618 10.9042 22.2266 11.036 22.8893C11.1678 23.552 11.1002 24.2388 10.8416 24.863C10.583 25.4873 10.1452 26.0208 9.58341 26.3962C9.02163 26.7715 8.36117 26.9719 7.68552 26.9719C7.23691 26.9719 6.79269 26.8835 6.37823 26.7118C5.96377 26.5402 5.58718 26.2885 5.26997 25.9713C4.95275 25.6541 4.70112 25.2775 4.52944 24.8631C4.35777 24.4486 4.26941 24.0044 4.26941 23.5558ZM7.68552 20.4024C7.06185 20.4024 6.45219 20.5874 5.93363 20.9339C5.41506 21.2804 5.01089 21.7728 4.77222 22.349C4.53355 22.9252 4.47111 23.5593 4.59278 24.1709C4.71445 24.7826 5.01477 25.3445 5.45578 25.7855C5.89678 26.2265 6.45864 26.5268 7.07033 26.6485C7.68202 26.7702 8.31605 26.7077 8.89224 26.4691C9.46844 26.2304 9.96092 25.8262 10.3074 25.3077C10.6539 24.7891 10.8388 24.1794 10.8388 23.5558C10.8379 22.7197 10.5054 21.9182 9.9142 21.3271C9.32305 20.7359 8.52154 20.4034 7.68552 20.4024Z" fill="#2F2E41"/>
<path d="M15.5689 58.7683C16.2219 58.7683 16.7513 58.2389 16.7513 57.5858C16.7513 56.9327 16.2219 56.4033 15.5689 56.4033C14.9158 56.4033 14.3864 56.9327 14.3864 57.5858C14.3864 58.2389 14.9158 58.7683 15.5689 58.7683Z" fill="#560185"/>
<path d="M12.1528 57.5851C12.1528 56.9094 12.3532 56.2489 12.7285 55.6872C13.1039 55.1254 13.6374 54.6875 14.2616 54.429C14.8859 54.1704 15.5727 54.1028 16.2354 54.2346C16.898 54.3664 17.5067 54.6918 17.9845 55.1695C18.4622 55.6473 18.7876 56.2559 18.9194 56.9186C19.0512 57.5813 18.9836 58.2681 18.725 58.8923C18.4665 59.5166 18.0286 60.0501 17.4668 60.4254C16.9051 60.8008 16.2446 61.0012 15.5689 61.0012C14.6629 61.0012 13.794 60.6412 13.1534 60.0006C12.5127 59.36 12.1528 58.4911 12.1528 57.5851ZM15.5689 54.4317C14.9453 54.4317 14.3356 54.6167 13.817 54.9632C13.2985 55.3096 12.8943 55.8021 12.6556 56.3783C12.417 56.9545 12.3545 57.5885 12.4762 58.2002C12.5979 58.8119 12.8982 59.3738 13.3392 59.8148C13.7802 60.2558 14.3421 60.5561 14.9537 60.6778C15.5654 60.7995 16.1995 60.737 16.7757 60.4983C17.3519 60.2597 17.8443 59.8555 18.1908 59.3369C18.5373 58.8184 18.7223 58.2087 18.7223 57.5851C18.7213 56.749 18.3888 55.9475 17.7976 55.3564C17.2065 54.7652 16.405 54.4327 15.5689 54.4317Z" fill="#2F2E41"/>
<path d="M118.205 30.2566C118.858 30.2566 119.388 29.7272 119.388 29.0741C119.388 28.421 118.858 27.8916 118.205 27.8916C117.552 27.8916 117.023 28.421 117.023 29.0741C117.023 29.7272 117.552 30.2566 118.205 30.2566Z" fill="#560185"/>
<path d="M114.789 29.0743C114.789 28.3987 114.989 27.7382 115.365 27.1764C115.74 26.6146 116.274 26.1768 116.898 25.9182C117.522 25.6597 118.209 25.592 118.872 25.7238C119.534 25.8557 120.143 26.181 120.621 26.6588C121.098 27.1365 121.424 27.7452 121.556 28.4079C121.687 29.0705 121.62 29.7574 121.361 30.3816C121.103 31.0058 120.665 31.5393 120.103 31.9147C119.541 32.2901 118.881 32.4904 118.205 32.4904C117.757 32.4904 117.312 32.4021 116.898 32.2304C116.483 32.0587 116.107 31.8071 115.79 31.4899C115.472 31.1727 115.221 30.7961 115.049 30.3816C114.877 29.9671 114.789 29.5229 114.789 29.0743ZM118.205 25.921C117.369 25.9219 116.568 26.2545 115.976 26.8456C115.385 27.4368 115.053 28.2383 115.052 29.0743C115.052 29.698 115.237 30.3076 115.583 30.8262C115.93 31.3448 116.422 31.7489 116.998 31.9876C117.575 32.2263 118.209 32.2887 118.82 32.167C119.432 32.0454 119.994 31.745 120.435 31.304C120.876 30.863 121.176 30.3012 121.298 29.6895C121.42 29.0778 121.357 28.4438 121.118 27.8676C120.88 27.2914 120.476 26.7989 119.957 26.4524C119.439 26.1059 118.829 25.921 118.205 25.921Z" fill="#2F2E41"/>
<path d="M81.4163 29.4699L114.918 28.9424L114.922 29.205L81.679 29.7286V43.001H81.4163V29.4699Z" fill="#2F2E41"/>
<path d="M18.8536 57.4538H56.2993V44.1836H56.5621V57.7164H18.8536V57.4538Z" fill="#2F2E41"/>
<path d="M14.912 29.7305H0.459229V30.6502H14.912V29.7305Z" fill="#3F3D56"/>
<path d="M14.912 32.3584H0.459229V33.2781H14.912V32.3584Z" fill="#3F3D56"/>
<path d="M14.912 34.9863H0.459229V35.906H14.912V34.9863Z" fill="#3F3D56"/>
<path d="M22.7953 63.7607H8.34253V64.6805H22.7953V63.7607Z" fill="#3F3D56"/>
<path d="M22.7953 66.3887H8.34253V67.3084H22.7953V66.3887Z" fill="#3F3D56"/>
<path d="M22.7953 69.0166H8.34253V69.9363H22.7953V69.0166Z" fill="#3F3D56"/>
<path d="M125.432 35.3809H110.979V36.3006H125.432V35.3809Z" fill="#3F3D56"/>
<path d="M125.432 38.0088H110.979V38.9285H125.432V38.0088Z" fill="#3F3D56"/>
<path d="M125.432 40.6367H110.979V41.5564H125.432V40.6367Z" fill="#3F3D56"/>
<path d="M132.312 113.741L130.257 114.476L126.445 106.898L129.479 105.813L132.312 113.741Z" fill="#FFB8B8"/>
<path d="M126.921 117.915L126.891 117.831C126.647 117.147 126.685 116.394 126.996 115.737C127.306 115.081 127.865 114.575 128.548 114.329L132.596 112.883L133.548 115.546L126.921 117.915Z" fill="#2F2E41"/>
<path d="M118.946 115.775L116.764 115.775L115.725 107.355L118.947 107.356L118.946 115.775Z" fill="#FFB8B8"/>
<path d="M119.503 117.89L112.465 117.89V117.801C112.465 117.441 112.536 117.085 112.673 116.753C112.811 116.42 113.013 116.118 113.267 115.864C113.522 115.609 113.824 115.408 114.156 115.27C114.488 115.132 114.845 115.062 115.204 115.062L119.503 115.062L119.503 117.89Z" fill="#2F2E41"/>
<path d="M123.921 61.987L122.971 60.1113C122.971 60.1113 119.435 60.9973 119.114 63.0469L123.921 61.987Z" fill="#560185"/>
<path d="M127.837 83.4352L125.256 97.8408L132.11 109.963L128.015 111.565L121.072 99.8147L120.182 96.61L119.648 113.346L115.955 113.233L114.261 97.6065L116.977 83.0791L127.837 83.4352Z" fill="#2F2E41"/>
<path d="M115.508 86.0339C115.428 85.6772 115.198 74.7867 115.198 74.7867C115.198 74.7867 118.994 62.3225 119.029 62.2201L119.043 62.1801L121.925 61.0993C121.966 61.0809 122.926 60.653 123.712 61.0096C123.914 61.1077 124.091 61.2486 124.233 61.4225C124.374 61.5963 124.476 61.799 124.531 62.0163C124.858 62.2599 127.214 64.8991 127.214 68.479L127.303 76.9268L129.279 86.0851L129.191 86.1037C129.137 86.1152 126.729 86.8406 122.937 86.8406C120.83 86.8406 115.508 86.0339 115.508 86.0339Z" fill="#3F3D56"/>
<path d="M120.023 59.5215C122.175 59.5215 123.919 57.7772 123.919 55.6255C123.919 53.4738 122.175 51.7295 120.023 51.7295C117.871 51.7295 116.127 53.4738 116.127 55.6255C116.127 57.7772 117.871 59.5215 120.023 59.5215Z" fill="#FFB8B8"/>
<path opacity="0.2" d="M125.573 72.7891L118.758 82.2991L117.751 77.858L125.573 72.7891Z" fill="black"/>
<path d="M113.476 82.5048C113.721 82.4951 113.96 82.432 114.177 82.3198C114.394 82.2077 114.584 82.0494 114.733 81.8559C114.883 81.6624 114.988 81.4385 115.041 81.2C115.095 80.9615 115.095 80.7142 115.043 80.4755L120.107 77.3689L117.311 76.0605L112.93 79.2112C112.535 79.3259 112.196 79.5816 111.976 79.9298C111.757 80.278 111.673 80.6946 111.74 81.1005C111.808 81.5065 112.022 81.8737 112.342 82.1325C112.661 82.3913 113.065 82.5238 113.476 82.5048Z" fill="#FFB8B8"/>
<path d="M116.977 76.1348L115.243 77.3502L116.714 79.9626L118.758 78.2712L116.977 76.1348Z" fill="#560185"/>
<path d="M116.069 76.2122L120.149 71.4829L118.586 64.9598C118.424 64.2857 118.514 63.5758 118.837 62.9627C119.161 62.3496 119.696 61.8752 120.344 61.628C120.992 61.3808 121.707 61.3778 122.357 61.6196C123.006 61.8613 123.546 62.3312 123.875 62.9416L123.91 63.0077L125.35 72.6944L118.112 80.1134L116.069 76.2122Z" fill="#3F3D56"/>
<path d="M123.342 59.0078L120.108 59.1238C119.911 59.1309 119.376 57.0037 119.306 56.5624C119.25 56.2751 119.092 56.0177 118.861 55.8384C118.63 55.6591 118.341 55.5701 118.049 55.588C117.807 55.6109 117.197 55.1587 116.567 54.6232C115.371 53.6065 115.433 51.6971 116.747 50.8381C116.783 50.8146 116.818 50.7932 116.853 50.7738C117.681 50.3099 118.651 50.1542 119.6 50.1423C120.461 50.1315 121.347 50.2399 122.105 50.6473C123.464 51.3778 124.188 52.9741 124.252 54.5161C124.315 56.0582 123.821 57.5661 123.26 59.004" fill="#2F2E41"/>
<path d="M141.106 117.944H101.76C101.713 117.944 101.667 117.925 101.634 117.892C101.601 117.858 101.582 117.813 101.582 117.766C101.582 117.719 101.601 117.673 101.634 117.64C101.667 117.607 101.713 117.588 101.76 117.588H141.106C141.153 117.588 141.199 117.607 141.232 117.64C141.265 117.673 141.284 117.719 141.284 117.766C141.284 117.813 141.265 117.858 141.232 117.892C141.199 117.925 141.153 117.944 141.106 117.944Z" fill="#3F3D56"/>
</g>
<defs>
<clipPath id="clip0_610_2139">
<rect width="141.284" height="117.944" fill="white"/>
</clipPath>
</defs>
</svg>
